  0
SECTION
  2
HEADER
  9
$ACADVER
  1
AC1009
  9
$FILLMODE
 70
0
  9
$EXTMIN
 10
-2.125000
 20
-2.050000
 30
0.000000
  9
$EXTMAX
 10
21.921000
 20
8.120000
 30
0.000000
  0
ENDSEC
  0
SECTION
  2
TABLES
  0
TABLE
  2
LTYPE
 70
1
  0
LTYPE
  2
CONTINUOUS
 70
64
  3
Solid line
 72
65
 73
0
 40
0
  0
ENDTAB
  0
TABLE
  2
LAYER
 70
255
  0
LAYER
  2
150
 70
64
 62
5
  6
CONTINUOUS
  0
LAYER
  2
160
 70
64
 62
94
  6
CONTINUOUS
  0
LAYER
  2
161
 70
64
 62
1
  6
CONTINUOUS
  0
ENDTAB
  0
ENDSEC
  0
SECTION
  2
BLOCKS
  0
BLOCK
  8
0
  2
RECT
 70
64
 10
0.000000
 20
0.000000
 30
0.000000
  3
RECT
  0
SOLID
  8
0
 10
-0.500000
 20
-0.500000
 30
0.000000
 11
0.500000
 21
-0.500000
 31
0.000000
 12
-0.500000
 22
0.500000
 32
0.000000
 13
0.500000
 23
0.500000
 33
0.000000
  0
ENDBLK
  8
0
  0
BLOCK
  8
0
  2
PIE
 70
64
 10
0.000000
 20
0.000000
 30
0.000000
  3
PIE
  0
CIRCLE
  8
0
 10
0.000000
 20
0.000000
 30
0.000000
 40
0.500000
  0
ENDBLK
  8
0
  0
BLOCK
  8
0
  2
OCTAGONP
 70
64
 10
0.000000
 20
0.000000
 30
0.000000
  3
OCTAGONP
  0
POLYLINE
  8
0
 66
1
 10
0.000000
 20
0.000000
 30
0.000000
 40
0.000000
 41
0.000000
 70
1
  0
VERTEX
  8
0
 10
-0.500000
 20
-0.207107
 30
0.000000
  0
VERTEX
  8
0
 10
-0.500000
 20
0.207107
 30
0.000000
  0
VERTEX
  8
0
 10
-0.207107
 20
0.500000
 30
0.000000
  0
VERTEX
  8
0
 10
0.207107
 20
0.500000
 30
0.000000
  0
VERTEX
  8
0
 10
0.500000
 20
0.207107
 30
0.000000
  0
VERTEX
  8
0
 10
0.500000
 20
-0.207107
 30
0.000000
  0
VERTEX
  8
0
 10
0.207107
 20
-0.500000
 30
0.000000
  0
VERTEX
  8
0
 10
-0.207107
 20
-0.500000
 30
0.000000
  0
SEQEND
  8
0
  0
ENDBLK
  8
0
  0
BLOCK
  8
0
  2
SQUAREP
 70
64
 10
0.000000
 20
0.000000
 30
0.000000
  3
SQUAREP
  0
SOLID
  8
0
 10
-0.500000
 20
-0.500000
 30
0.000000
 11
0.500000
 21
-0.500000
 31
0.000000
 12
-0.500000
 22
0.500000
 32
0.000000
 13
0.500000
 23
0.500000
 33
0.000000
  0
ENDBLK
  8
0
  0
BLOCK
  8
0
  2
ROUNDP
 70
64
 10
0.000000
 20
0.000000
 30
0.000000
  3
ROUNDP
  0
CIRCLE
  8
0
 10
0.000000
 20
0.000000
 30
0.000000
 40
0.500000
  0
ENDBLK
  8
0
  0
BLOCK
  8
0
  2
ANNULUSP
 70
64
 10
0.000000
 20
0.000000
 30
0.000000
  3
ANNULUSP
  0
CIRCLE
  8
0
 10
0.000000
 20
0.000000
 30
0.000000
 40
0.500000
  0
ENDBLK
  8
0
  0
BLOCK
  8
0
  2
THERMALP
 70
64
 10
0.000000
 20
0.000000
 30
0.000000
  3
THERMALP
  0
LINE
  8
0
 10
-0.237868
 20
0.450000
 30
0.000000
 11
0.237868
 21
0.450000
 31
0.000000
  0
LINE
  8
0
 10
0.450000
 20
0.237868
 30
0.000000
 11
0.450000
 21
-0.237868
 31
0.000000
  0
LINE
  8
0
 10
0.237868
 20
-0.450000
 30
0.000000
 11
-0.237868
 21
-0.450000
 31
0.000000
  0
LINE
  8
0
 10
-0.450000
 20
-0.237868
 30
0.000000
 11
-0.450000
 21
0.237868
 31
0.000000
  0
ENDBLK
  8
0
  0
BLOCK
  8
0
  2
OCTAGONV
 70
64
 10
0.000000
 20
0.000000
 30
0.000000
  3
OCTAGONV
  0
POLYLINE
  8
0
 66
1
 10
0.000000
 20
0.000000
 30
0.000000
 40
0.000000
 41
0.000000
 70
1
  0
VERTEX
  8
0
 10
-0.500000
 20
-0.207107
 30
0.000000
  0
VERTEX
  8
0
 10
-0.500000
 20
0.207107
 30
0.000000
  0
VERTEX
  8
0
 10
-0.207107
 20
0.500000
 30
0.000000
  0
VERTEX
  8
0
 10
0.207107
 20
0.500000
 30
0.000000
  0
VERTEX
  8
0
 10
0.500000
 20
0.207107
 30
0.000000
  0
VERTEX
  8
0
 10
0.500000
 20
-0.207107
 30
0.000000
  0
VERTEX
  8
0
 10
0.207107
 20
-0.500000
 30
0.000000
  0
VERTEX
  8
0
 10
-0.207107
 20
-0.500000
 30
0.000000
  0
SEQEND
  8
0
  0
ENDBLK
  8
0
  0
BLOCK
  8
0
  2
SQUAREV
 70
64
 10
0.000000
 20
0.000000
 30
0.000000
  3
SQUAREV
  0
SOLID
  8
0
 10
-0.500000
 20
-0.500000
 30
0.000000
 11
0.500000
 21
-0.500000
 31
0.000000
 12
-0.500000
 22
0.500000
 32
0.000000
 13
0.500000
 23
0.500000
 33
0.000000
  0
ENDBLK
  8
0
  0
BLOCK
  8
0
  2
ROUNDV
 70
64
 10
0.000000
 20
0.000000
 30
0.000000
  3
ROUNDV
  0
CIRCLE
  8
0
 10
0.000000
 20
0.000000
 30
0.000000
 40
0.500000
  0
ENDBLK
  8
0
  0
BLOCK
  8
0
  2
ANNULUSV
 70
64
 10
0.000000
 20
0.000000
 30
0.000000
  3
ANNULUSV
  0
CIRCLE
  8
0
 10
0.000000
 20
0.000000
 30
0.000000
 40
0.500000
  0
ENDBLK
  8
0
  0
BLOCK
  8
0
  2
THERMALV
 70
64
 10
0.000000
 20
0.000000
 30
0.000000
  3
THERMALV
  0
LINE
  8
0
 10
-0.237868
 20
0.450000
 30
0.000000
 11
0.237868
 21
0.450000
 31
0.000000
  0
LINE
  8
0
 10
0.450000
 20
0.237868
 30
0.000000
 11
0.450000
 21
-0.237868
 31
0.000000
  0
LINE
  8
0
 10
0.237868
 20
-0.450000
 30
0.000000
 11
-0.237868
 21
-0.450000
 31
0.000000
  0
LINE
  8
0
 10
-0.450000
 20
-0.237868
 30
0.000000
 11
-0.450000
 21
0.237868
 31
0.000000
  0
ENDBLK
  8
0
  0
ENDSEC
  0
SECTION
  2
ENTITIES
  0
LINE
  8
160
 10
17.050000
 20
0.285000
 30
0.000000
 11
17.050000
 21
0.535000
 31
0.000000
  0
LINE
  8
160
 10
17.050000
 20
0.535000
 30
0.000000
 11
16.925000
 21
0.535000
 31
0.000000
  0
LINE
  8
160
 10
16.925000
 20
0.535000
 30
0.000000
 11
16.925000
 21
2.281000
 31
0.000000
  0
LINE
  8
160
 10
16.925000
 20
3.285000
 30
0.000000
 11
16.925000
 21
5.530000
 31
0.000000
  0
LINE
  8
160
 10
17.050000
 20
5.780000
 30
0.000000
 11
17.050000
 21
6.035000
 31
0.000000
  0
LINE
  8
160
 10
17.050000
 20
6.035000
 30
0.000000
 11
16.925000
 21
6.035000
 31
0.000000
  0
LINE
  8
160
 10
16.925000
 20
6.035000
 30
0.000000
 11
16.925000
 21
6.285000
 31
0.000000
  0
LINE
  8
160
 10
16.925000
 20
6.285000
 30
0.000000
 11
15.430000
 21
6.285000
 31
0.000000
  0
LINE
  8
160
 10
15.430000
 20
6.285000
 30
0.000000
 11
15.430000
 21
6.035000
 31
0.000000
  0
LINE
  8
160
 10
15.430000
 20
6.035000
 30
0.000000
 11
15.305000
 21
6.035000
 31
0.000000
  0
LINE
  8
160
 10
15.305000
 20
5.785000
 30
0.000000
 11
15.430000
 21
5.785000
 31
0.000000
  0
LINE
  8
160
 10
15.430000
 20
5.785000
 30
0.000000
 11
15.430000
 21
3.285000
 31
0.000000
  0
LINE
  8
160
 10
15.431000
 20
3.035000
 30
0.000000
 11
15.430000
 21
0.535000
 31
0.000000
  0
LINE
  8
160
 10
15.430000
 20
0.535000
 30
0.000000
 11
15.305000
 21
0.535000
 31
0.000000
  0
LINE
  8
160
 10
15.305000
 20
0.285000
 30
0.000000
 11
15.430000
 21
0.285000
 31
0.000000
  0
LINE
  8
160
 10
15.430000
 20
0.285000
 30
0.000000
 11
15.430000
 21
0.035000
 31
0.000000
  0
LINE
  8
160
 10
15.430000
 20
0.035000
 30
0.000000
 11
16.925000
 21
0.035000
 31
0.000000
  0
LINE
  8
160
 10
21.911000
 20
5.776000
 30
0.000000
 11
21.911000
 21
5.531000
 31
0.000000
  0
LINE
  8
160
 10
21.911000
 20
5.531000
 30
0.000000
 11
21.791000
 21
5.531000
 31
0.000000
  0
LINE
  8
160
 10
21.791000
 20
5.531000
 30
0.000000
 11
21.791000
 21
3.031000
 31
0.000000
  0
LINE
  8
160
 10
21.791000
 20
2.786000
 30
0.000000
 11
21.791000
 21
0.281000
 31
0.000000
  0
LINE
  8
160
 10
21.791000
 20
0.281000
 30
0.000000
 11
21.921000
 21
0.281000
 31
0.000000
  0
LINE
  8
160
 10
21.921000
 20
0.281000
 30
0.000000
 11
21.921000
 21
0.031000
 31
0.000000
  0
LINE
  8
160
 10
21.921000
 20
0.031000
 30
0.000000
 11
20.166000
 21
0.031000
 31
0.000000
  0
LINE
  8
160
 10
20.166000
 20
0.031000
 30
0.000000
 11
20.166000
 21
0.281000
 31
0.000000
  0
LINE
  8
160
 10
20.166000
 20
0.281000
 30
0.000000
 11
20.291000
 21
0.281000
 31
0.000000
  0
LINE
  8
160
 10
20.291000
 20
0.531000
 30
0.000000
 11
20.291000
 21
1.631000
 31
0.000000
  0
LINE
  8
160
 10
20.291000
 20
3.531000
 30
0.000000
 11
20.291000
 21
5.531000
 31
0.000000
  0
LINE
  8
160
 10
20.291000
 20
5.531000
 30
0.000000
 11
20.166000
 21
5.531000
 31
0.000000
  0
LINE
  8
160
 10
20.166000
 20
5.531000
 30
0.000000
 11
20.166000
 21
5.776000
 31
0.000000
  0
LINE
  8
160
 10
20.291000
 20
5.776000
 30
0.000000
 11
21.911000
 21
5.776000
 31
0.000000
  0
LINE
  8
161
 10
21.491000
 20
3.490000
 30
0.000000
 11
21.491000
 21
4.111000
 31
0.000000
  0
LINE
  8
161
 10
21.491000
 20
4.111000
 30
0.000000
 11
21.131000
 21
4.111000
 31
0.000000
  0
LINE
  8
161
 10
21.131000
 20
4.111000
 30
0.000000
 11
21.131000
 21
3.490000
 31
0.000000
  0
LINE
  8
161
 10
21.131000
 20
3.490000
 30
0.000000
 11
21.491000
 21
3.490000
 31
0.000000
  0
LINE
  8
161
 10
15.685000
 20
3.285000
 30
0.000000
 11
16.030000
 21
3.285000
 31
0.000000
  0
LINE
  8
161
 10
16.030000
 20
3.285000
 30
0.000000
 11
16.030000
 21
3.785000
 31
0.000000
  0
LINE
  8
161
 10
16.030000
 20
3.785000
 30
0.000000
 11
15.685000
 21
3.785000
 31
0.000000
  0
LINE
  8
161
 10
15.685000
 20
3.785000
 30
0.000000
 11
15.685000
 21
3.540000
 31
0.000000
  0
LINE
  8
160
 10
16.925000
 20
3.285000
 30
0.000000
 11
17.050000
 21
3.285000
 31
0.000000
  0
LINE
  8
160
 10
17.050000
 20
3.285000
 30
0.000000
 11
17.050000
 21
3.031000
 31
0.000000
  0
LINE
  8
160
 10
15.431000
 20
3.035000
 30
0.000000
 11
15.305000
 21
3.035000
 31
0.000000
  0
LINE
  8
160
 10
15.305000
 20
3.285000
 30
0.000000
 11
15.430000
 21
3.285000
 31
0.000000
  0
LINE
  8
160
 10
20.291000
 20
3.531000
 30
0.000000
 11
20.166000
 21
3.531000
 31
0.000000
  0
LINE
  8
160
 10
20.166000
 20
3.531000
 30
0.000000
 11
20.166000
 21
2.781000
 31
0.000000
  0
LINE
  8
161
 10
21.791000
 20
3.031000
 30
0.000000
 11
21.911000
 21
3.031000
 31
0.000000
  0
LINE
  8
160
 10
21.911000
 20
2.786000
 30
0.000000
 11
21.791000
 21
2.786000
 31
0.000000
  0
LINE
  8
160
 10
21.911000
 20
3.031000
 30
0.000000
 11
21.911000
 21
2.786000
 31
0.000000
  0
LINE
  8
160
 10
6.300000
 20
0.000000
 30
0.000000
 11
13.550000
 21
0.000000
 31
0.000000
  0
LINE
  8
160
 10
13.550000
 20
0.000000
 30
0.000000
 11
13.550000
 21
6.300000
 31
0.000000
  0
LINE
  8
160
 10
13.550000
 20
6.300000
 30
0.000000
 11
6.300000
 21
6.300000
 31
0.000000
  0
LINE
  8
161
 10
7.005000
 20
0.280000
 30
0.000000
 11
7.005000
 21
0.540000
 31
0.000000
  0
LINE
  8
161
 10
7.005000
 20
0.540000
 30
0.000000
 11
6.870000
 21
0.540000
 31
0.000000
  0
LINE
  8
161
 10
6.870000
 20
0.540000
 30
0.000000
 11
6.870000
 21
0.280000
 31
0.000000
  0
LINE
  8
161
 10
6.870000
 20
0.280000
 30
0.000000
 11
7.005000
 21
0.280000
 31
0.000000
  0
LINE
  8
161
 10
7.305000
 20
0.240000
 30
0.000000
 11
7.045000
 21
0.240000
 31
0.000000
  0
LINE
  8
161
 10
7.045000
 20
0.240000
 30
0.000000
 11
7.045000
 21
0.105000
 31
0.000000
  0
LINE
  8
161
 10
7.045000
 20
0.105000
 30
0.000000
 11
7.305000
 21
0.105000
 31
0.000000
  0
LINE
  8
161
 10
7.305000
 20
0.105000
 30
0.000000
 11
7.305000
 21
0.240000
 31
0.000000
  0
LINE
  8
161
 10
12.845000
 20
0.540000
 30
0.000000
 11
12.845000
 21
0.280000
 31
0.000000
  0
LINE
  8
161
 10
12.845000
 20
0.280000
 30
0.000000
 11
12.980000
 21
0.280000
 31
0.000000
  0
LINE
  8
161
 10
12.980000
 20
0.280000
 30
0.000000
 11
12.980000
 21
0.540000
 31
0.000000
  0
LINE
  8
161
 10
12.980000
 20
0.540000
 30
0.000000
 11
12.845000
 21
0.540000
 31
0.000000
  0
LINE
  8
161
 10
12.805000
 20
0.240000
 30
0.000000
 11
12.545000
 21
0.240000
 31
0.000000
  0
LINE
  8
161
 10
12.545000
 20
0.240000
 30
0.000000
 11
12.545000
 21
0.105000
 31
0.000000
  0
LINE
  8
161
 10
12.545000
 20
0.105000
 30
0.000000
 11
12.805000
 21
0.105000
 31
0.000000
  0
LINE
  8
161
 10
12.805000
 20
0.105000
 30
0.000000
 11
12.805000
 21
0.240000
 31
0.000000
  0
LINE
  8
161
 10
12.845000
 20
5.780000
 30
0.000000
 11
12.845000
 21
6.040000
 31
0.000000
  0
LINE
  8
161
 10
12.845000
 20
6.040000
 30
0.000000
 11
12.980000
 21
6.040000
 31
0.000000
  0
LINE
  8
161
 10
12.980000
 20
6.040000
 30
0.000000
 11
12.980000
 21
5.780000
 31
0.000000
  0
LINE
  8
161
 10
12.980000
 20
5.780000
 30
0.000000
 11
12.845000
 21
5.780000
 31
0.000000
  0
LINE
  8
161
 10
12.545000
 20
6.080000
 30
0.000000
 11
12.805000
 21
6.080000
 31
0.000000
  0
LINE
  8
161
 10
12.805000
 20
6.080000
 30
0.000000
 11
12.805000
 21
6.215000
 31
0.000000
  0
LINE
  8
161
 10
12.805000
 20
6.215000
 30
0.000000
 11
12.545000
 21
6.215000
 31
0.000000
  0
LINE
  8
161
 10
12.545000
 20
6.215000
 30
0.000000
 11
12.545000
 21
6.080000
 31
0.000000
  0
LINE
  8
161
 10
7.045000
 20
6.080000
 30
0.000000
 11
7.305000
 21
6.080000
 31
0.000000
  0
LINE
  8
161
 10
7.305000
 20
6.080000
 30
0.000000
 11
7.305000
 21
6.215000
 31
0.000000
  0
LINE
  8
161
 10
7.305000
 20
6.215000
 30
0.000000
 11
7.045000
 21
6.215000
 31
0.000000
  0
LINE
  8
161
 10
7.045000
 20
6.215000
 30
0.000000
 11
7.045000
 21
6.080000
 31
0.000000
  0
LINE
  8
161
 10
7.005000
 20
5.780000
 30
0.000000
 11
7.005000
 21
6.040000
 31
0.000000
  0
LINE
  8
161
 10
7.005000
 20
6.040000
 30
0.000000
 11
6.870000
 21
6.040000
 31
0.000000
  0
LINE
  8
161
 10
6.870000
 20
6.040000
 30
0.000000
 11
6.870000
 21
5.780000
 31
0.000000
  0
LINE
  8
161
 10
6.870000
 20
5.780000
 30
0.000000
 11
7.005000
 21
5.780000
 31
0.000000
  0
LINE
  8
161
 10
9.795000
 20
6.080000
 30
0.000000
 11
10.055000
 21
6.080000
 31
0.000000
  0
LINE
  8
161
 10
10.055000
 20
6.080000
 30
0.000000
 11
10.055000
 21
6.215000
 31
0.000000
  0
LINE
  8
161
 10
10.055000
 20
6.215000
 30
0.000000
 11
9.795000
 21
6.215000
 31
0.000000
  0
LINE
  8
161
 10
9.795000
 20
6.215000
 30
0.000000
 11
9.795000
 21
6.080000
 31
0.000000
  0
LINE
  8
161
 10
9.800000
 20
0.105000
 30
0.000000
 11
10.060000
 21
0.105000
 31
0.000000
  0
LINE
  8
161
 10
10.060000
 20
0.105000
 30
0.000000
 11
10.060000
 21
0.240000
 31
0.000000
  0
LINE
  8
161
 10
10.060000
 20
0.240000
 30
0.000000
 11
9.800000
 21
0.240000
 31
0.000000
  0
LINE
  8
161
 10
9.800000
 20
0.240000
 30
0.000000
 11
9.800000
 21
0.105000
 31
0.000000
  0
LINE
  8
161
 10
12.980000
 20
3.030000
 30
0.000000
 11
12.980000
 21
3.290000
 31
0.000000
  0
LINE
  8
161
 10
12.980000
 20
3.290000
 30
0.000000
 11
12.845000
 21
3.290000
 31
0.000000
  0
LINE
  8
161
 10
12.845000
 20
3.290000
 30
0.000000
 11
12.845000
 21
3.030000
 31
0.000000
  0
LINE
  8
161
 10
12.845000
 20
3.030000
 30
0.000000
 11
12.980000
 21
3.030000
 31
0.000000
  0
LINE
  8
161
 10
7.005000
 20
3.035000
 30
0.000000
 11
7.005000
 21
3.295000
 31
0.000000
  0
LINE
  8
161
 10
7.005000
 20
3.295000
 30
0.000000
 11
6.870000
 21
3.295000
 31
0.000000
  0
LINE
  8
161
 10
6.870000
 20
3.295000
 30
0.000000
 11
6.870000
 21
3.035000
 31
0.000000
  0
LINE
  8
161
 10
6.870000
 20
3.035000
 30
0.000000
 11
7.005000
 21
3.035000
 31
0.000000
  0
LINE
  8
161
 10
20.326000
 20
1.433000
 30
0.000000
 11
20.326000
 21
1.239000
 31
0.000000
  0
ARC
  8
161
 10
20.560179
 20
1.336000
 30
0.000000
 40
0.253473
 50
202.500000
 51
157.500000
  0
LINE
  8
161
 10
20.326000
 20
3.039000
 30
0.000000
 11
20.326000
 21
3.233000
 31
0.000000
  0
ARC
  8
161
 10
20.560179
 20
3.136000
 30
0.000000
 40
0.253473
 50
202.500000
 51
157.500000
  0
LINE
  8
161
 10
21.492000
 20
4.195000
 30
0.000000
 11
20.626000
 21
4.195000
 31
0.000000
  0
LINE
  8
161
 10
20.626000
 20
4.195000
 30
0.000000
 11
20.626000
 21
5.417000
 31
0.000000
  0
LINE
  8
161
 10
20.626000
 20
5.417000
 30
0.000000
 11
21.492000
 21
5.417000
 31
0.000000
  0
LINE
  8
161
 10
21.492000
 20
5.417000
 30
0.000000
 11
21.492000
 21
4.195000
 31
0.000000
  0
LINE
  8
161
 10
16.895000
 20
0.982000
 30
0.000000
 11
16.895000
 21
0.788000
 31
0.000000
  0
ARC
  8
161
 10
16.660821
 20
0.885000
 30
0.000000
 40
0.253473
 50
22.500000
 51
337.500000
  0
LINE
  8
161
 10
21.491000
 20
2.369000
 30
0.000000
 11
21.491000
 21
2.891000
 31
0.000000
  0
LINE
  8
161
 10
21.491000
 20
2.891000
 30
0.000000
 11
21.241000
 21
2.891000
 31
0.000000
  0
LINE
  8
161
 10
21.142000
 20
2.891000
 30
0.000000
 11
20.976000
 21
2.891000
 31
0.000000
  0
LINE
  8
161
 10
20.976000
 20
2.891000
 30
0.000000
 11
20.976000
 21
2.369000
 31
0.000000
  0
LINE
  8
161
 10
20.976000
 20
2.369000
 30
0.000000
 11
21.491000
 21
2.369000
 31
0.000000
  0
LINE
  8
161
 10
21.491000
 20
1.584000
 30
0.000000
 11
21.491000
 21
2.106000
 31
0.000000
  0
LINE
  8
161
 10
21.491000
 20
2.106000
 30
0.000000
 11
20.976000
 21
2.106000
 31
0.000000
  0
LINE
  8
161
 10
20.976000
 20
2.106000
 30
0.000000
 11
20.976000
 21
1.584000
 31
0.000000
  0
LINE
  8
161
 10
20.976000
 20
1.584000
 30
0.000000
 11
21.159000
 21
1.584000
 31
0.000000
  0
LINE
  8
161
 10
21.223000
 20
1.584000
 30
0.000000
 11
21.491000
 21
1.584000
 31
0.000000
  0
LINE
  8
160
 10
20.366000
 20
2.781000
 30
0.000000
 11
20.366000
 21
1.631000
 31
0.000000
  0
LINE
  8
160
 10
20.366000
 20
1.631000
 30
0.000000
 11
20.291000
 21
1.631000
 31
0.000000
  0
LINE
  8
161
 10
15.685000
 20
3.535000
 30
0.000000
 11
15.685000
 21
3.285000
 31
0.000000
  0
LINE
  8
161
 10
16.135000
 20
4.060000
 30
0.000000
 11
16.460000
 21
4.060000
 31
0.000000
  0
LINE
  8
161
 10
16.460000
 20
4.060000
 30
0.000000
 11
16.460000
 21
4.560000
 31
0.000000
  0
LINE
  8
161
 10
16.460000
 20
4.560000
 30
0.000000
 11
16.135000
 21
4.560000
 31
0.000000
  0
LINE
  8
161
 10
16.135000
 20
4.560000
 30
0.000000
 11
16.135000
 21
4.060000
 31
0.000000
  0
LINE
  8
161
 10
16.135000
 20
2.865000
 30
0.000000
 11
16.135000
 21
2.460000
 31
0.000000
  0
LINE
  8
161
 10
16.135000
 20
2.460000
 30
0.000000
 11
16.750000
 21
2.460000
 31
0.000000
  0
LINE
  8
161
 10
16.750000
 20
2.460000
 30
0.000000
 11
16.750000
 21
3.115000
 31
0.000000
  0
LINE
  8
161
 10
16.750000
 20
3.115000
 30
0.000000
 11
16.135000
 21
3.115000
 31
0.000000
  0
LINE
  8
161
 10
16.135000
 20
3.115000
 30
0.000000
 11
16.135000
 21
2.870000
 31
0.000000
  0
LINE
  8
161
 10
15.685000
 20
3.535000
 30
0.000000
 11
15.685000
 21
3.540000
 31
0.000000
  0
LINE
  8
160
 10
13.550000
 20
6.035000
 30
0.000000
 11
13.550000
 21
5.785000
 31
0.000000
  0
LINE
  8
160
 10
13.550000
 20
0.535000
 30
0.000000
 11
13.550000
 21
0.285000
 31
0.000000
  0
LINE
  8
160
 10
13.550000
 20
3.485000
 30
0.000000
 11
13.550000
 21
2.885000
 31
0.000000
  0
LINE
  8
160
 10
15.180000
 20
0.035000
 30
0.000000
 11
15.180000
 21
0.285000
 31
0.000000
  0
LINE
  8
160
 10
15.180000
 20
0.285000
 30
0.000000
 11
15.305000
 21
0.285000
 31
0.000000
  0
LINE
  8
160
 10
15.305000
 20
0.285000
 30
0.000000
 11
15.305000
 21
0.535000
 31
0.000000
  0
LINE
  8
160
 10
15.305000
 20
0.535000
 30
0.000000
 11
15.180000
 21
0.535000
 31
0.000000
  0
LINE
  8
160
 10
15.180000
 20
0.535000
 30
0.000000
 11
15.180000
 21
3.035000
 31
0.000000
  0
LINE
  8
160
 10
15.180000
 20
3.285000
 30
0.000000
 11
15.180000
 21
5.785000
 31
0.000000
  0
LINE
  8
160
 10
15.180000
 20
5.785000
 30
0.000000
 11
15.305000
 21
5.785000
 31
0.000000
  0
LINE
  8
160
 10
15.305000
 20
5.785000
 30
0.000000
 11
15.305000
 21
6.035000
 31
0.000000
  0
LINE
  8
160
 10
15.305000
 20
6.035000
 30
0.000000
 11
15.180000
 21
6.035000
 31
0.000000
  0
LINE
  8
160
 10
15.180000
 20
6.035000
 30
0.000000
 11
15.180000
 21
6.285000
 31
0.000000
  0
LINE
  8
160
 10
15.180000
 20
6.285000
 30
0.000000
 11
13.680000
 21
6.285000
 31
0.000000
  0
LINE
  8
160
 10
13.680000
 20
6.285000
 30
0.000000
 11
13.680000
 21
6.035000
 31
0.000000
  0
LINE
  8
160
 10
13.680000
 20
6.035000
 30
0.000000
 11
13.550000
 21
6.035000
 31
0.000000
  0
LINE
  8
160
 10
13.550000
 20
5.785000
 30
0.000000
 11
13.680000
 21
5.785000
 31
0.000000
  0
LINE
  8
160
 10
13.680000
 20
5.785000
 30
0.000000
 11
13.680000
 21
3.485000
 31
0.000000
  0
LINE
  8
160
 10
13.680000
 20
2.885000
 30
0.000000
 11
13.680000
 21
0.535000
 31
0.000000
  0
LINE
  8
160
 10
13.680000
 20
0.535000
 30
0.000000
 11
13.550000
 21
0.535000
 31
0.000000
  0
LINE
  8
160
 10
13.550000
 20
0.285000
 30
0.000000
 11
13.680000
 21
0.285000
 31
0.000000
  0
LINE
  8
160
 10
13.680000
 20
0.285000
 30
0.000000
 11
13.680000
 21
0.035000
 31
0.000000
  0
LINE
  8
160
 10
13.680000
 20
0.035000
 30
0.000000
 11
15.180000
 21
0.035000
 31
0.000000
  0
LINE
  8
161
 10
13.715000
 20
1.218000
 30
0.000000
 11
13.715000
 21
1.412000
 31
0.000000
  0
ARC
  8
161
 10
13.949179
 20
1.315000
 30
0.000000
 40
0.253473
 50
202.500000
 51
157.500000
  0
LINE
  8
161
 10
13.715000
 20
2.253000
 30
0.000000
 11
13.715000
 21
2.447000
 31
0.000000
  0
ARC
  8
161
 10
13.949179
 20
2.350000
 30
0.000000
 40
0.253473
 50
202.500000
 51
157.500000
  0
LINE
  8
161
 10
13.715000
 20
3.288000
 30
0.000000
 11
13.715000
 21
3.482000
 31
0.000000
  0
ARC
  8
161
 10
13.949179
 20
3.385000
 30
0.000000
 40
0.253473
 50
202.500000
 51
157.500000
  0
LINE
  8
161
 10
13.715000
 20
4.324000
 30
0.000000
 11
13.715000
 21
4.517000
 31
0.000000
  0
ARC
  8
161
 10
13.947972
 20
4.420500
 30
0.000000
 40
0.252167
 50
202.500000
 51
157.500000
  0
LINE
  8
161
 10
13.715000
 20
5.358000
 30
0.000000
 11
13.715000
 21
5.552000
 31
0.000000
  0
ARC
  8
161
 10
13.949179
 20
5.455000
 30
0.000000
 40
0.253473
 50
202.500000
 51
157.500000
  0
LINE
  8
160
 10
13.680000
 20
3.485000
 30
0.000000
 11
13.550000
 21
3.485000
 31
0.000000
  0
LINE
  8
160
 10
13.550000
 20
2.885000
 30
0.000000
 11
13.680000
 21
2.885000
 31
0.000000
  0
LINE
  8
160
 10
15.180000
 20
3.285000
 30
0.000000
 11
15.305000
 21
3.285000
 31
0.000000
  0
LINE
  8
160
 10
15.305000
 20
3.285000
 30
0.000000
 11
15.305000
 21
3.035000
 31
0.000000
  0
LINE
  8
160
 10
15.305000
 20
3.035000
 30
0.000000
 11
15.180000
 21
3.035000
 31
0.000000
  0
LINE
  8
161
 10
14.870000
 20
0.570000
 30
0.000000
 11
14.870000
 21
1.050000
 31
0.000000
  0
LINE
  8
161
 10
14.870000
 20
1.050000
 30
0.000000
 11
14.365000
 21
1.050000
 31
0.000000
  0
LINE
  8
161
 10
14.365000
 20
1.050000
 30
0.000000
 11
14.365000
 21
0.570000
 31
0.000000
  0
LINE
  8
161
 10
14.365000
 20
0.570000
 30
0.000000
 11
14.870000
 21
0.570000
 31
0.000000
  0
LINE
  8
161
 10
14.870000
 20
1.605000
 30
0.000000
 11
14.870000
 21
2.085000
 31
0.000000
  0
LINE
  8
161
 10
14.870000
 20
2.085000
 30
0.000000
 11
14.365000
 21
2.085000
 31
0.000000
  0
LINE
  8
161
 10
14.365000
 20
2.085000
 30
0.000000
 11
14.365000
 21
1.605000
 31
0.000000
  0
LINE
  8
161
 10
14.365000
 20
1.605000
 30
0.000000
 11
14.870000
 21
1.605000
 31
0.000000
  0
LINE
  8
161
 10
14.865000
 20
2.640000
 30
0.000000
 11
14.865000
 21
3.120000
 31
0.000000
  0
LINE
  8
161
 10
14.865000
 20
3.120000
 30
0.000000
 11
14.360000
 21
3.120000
 31
0.000000
  0
LINE
  8
161
 10
14.360000
 20
3.120000
 30
0.000000
 11
14.360000
 21
2.640000
 31
0.000000
  0
LINE
  8
161
 10
14.360000
 20
2.640000
 30
0.000000
 11
14.865000
 21
2.640000
 31
0.000000
  0
LINE
  8
161
 10
14.870000
 20
3.675000
 30
0.000000
 11
14.870000
 21
4.155000
 31
0.000000
  0
LINE
  8
161
 10
14.870000
 20
4.155000
 30
0.000000
 11
14.365000
 21
4.155000
 31
0.000000
  0
LINE
  8
161
 10
14.365000
 20
4.155000
 30
0.000000
 11
14.365000
 21
3.675000
 31
0.000000
  0
LINE
  8
161
 10
14.365000
 20
3.675000
 30
0.000000
 11
14.870000
 21
3.675000
 31
0.000000
  0
LINE
  8
161
 10
14.870000
 20
4.710000
 30
0.000000
 11
14.870000
 21
5.190000
 31
0.000000
  0
LINE
  8
161
 10
14.870000
 20
5.190000
 30
0.000000
 11
14.365000
 21
5.190000
 31
0.000000
  0
LINE
  8
161
 10
14.365000
 20
5.190000
 30
0.000000
 11
14.365000
 21
4.710000
 31
0.000000
  0
LINE
  8
161
 10
14.365000
 20
4.710000
 30
0.000000
 11
14.870000
 21
4.710000
 31
0.000000
  0
LINE
  8
160
 10
0.000000
 20
0.000000
 30
0.000000
 11
6.300000
 21
0.000000
 31
0.000000
  0
LINE
  8
160
 10
6.300000
 20
0.000000
 30
0.000000
 11
6.300000
 21
6.300000
 31
0.000000
  0
LINE
  8
160
 10
6.300000
 20
6.300000
 30
0.000000
 11
0.000000
 21
6.300000
 31
0.000000
  0
LINE
  8
160
 10
0.000000
 20
6.300000
 30
0.000000
 11
0.000000
 21
0.000000
 31
0.000000
  0
LINE
  8
161
 10
0.230000
 20
0.275000
 30
0.000000
 11
0.230000
 21
0.535000
 31
0.000000
  0
LINE
  8
161
 10
0.230000
 20
0.535000
 30
0.000000
 11
0.095000
 21
0.535000
 31
0.000000
  0
LINE
  8
161
 10
0.095000
 20
0.535000
 30
0.000000
 11
0.095000
 21
0.275000
 31
0.000000
  0
LINE
  8
161
 10
0.095000
 20
0.275000
 30
0.000000
 11
0.230000
 21
0.275000
 31
0.000000
  0
LINE
  8
161
 10
0.530000
 20
0.235000
 30
0.000000
 11
0.270000
 21
0.235000
 31
0.000000
  0
LINE
  8
161
 10
0.270000
 20
0.235000
 30
0.000000
 11
0.270000
 21
0.100000
 31
0.000000
  0
LINE
  8
161
 10
0.270000
 20
0.100000
 30
0.000000
 11
0.530000
 21
0.100000
 31
0.000000
  0
LINE
  8
161
 10
0.530000
 20
0.100000
 30
0.000000
 11
0.530000
 21
0.235000
 31
0.000000
  0
LINE
  8
161
 10
6.070000
 20
0.535000
 30
0.000000
 11
6.070000
 21
0.275000
 31
0.000000
  0
LINE
  8
161
 10
6.070000
 20
0.275000
 30
0.000000
 11
6.205000
 21
0.275000
 31
0.000000
  0
LINE
  8
161
 10
6.205000
 20
0.275000
 30
0.000000
 11
6.205000
 21
0.535000
 31
0.000000
  0
LINE
  8
161
 10
6.205000
 20
0.535000
 30
0.000000
 11
6.070000
 21
0.535000
 31
0.000000
  0
LINE
  8
161
 10
6.030000
 20
0.235000
 30
0.000000
 11
5.770000
 21
0.235000
 31
0.000000
  0
LINE
  8
161
 10
5.770000
 20
0.235000
 30
0.000000
 11
5.770000
 21
0.100000
 31
0.000000
  0
LINE
  8
161
 10
5.770000
 20
0.100000
 30
0.000000
 11
6.030000
 21
0.100000
 31
0.000000
  0
LINE
  8
161
 10
6.030000
 20
0.100000
 30
0.000000
 11
6.030000
 21
0.235000
 31
0.000000
  0
LINE
  8
161
 10
6.070000
 20
5.775000
 30
0.000000
 11
6.070000
 21
6.035000
 31
0.000000
  0
LINE
  8
161
 10
6.070000
 20
6.035000
 30
0.000000
 11
6.205000
 21
6.035000
 31
0.000000
  0
LINE
  8
161
 10
6.205000
 20
6.035000
 30
0.000000
 11
6.205000
 21
5.775000
 31
0.000000
  0
LINE
  8
161
 10
6.205000
 20
5.775000
 30
0.000000
 11
6.070000
 21
5.775000
 31
0.000000
  0
LINE
  8
161
 10
5.770000
 20
6.075000
 30
0.000000
 11
6.030000
 21
6.075000
 31
0.000000
  0
LINE
  8
161
 10
6.030000
 20
6.075000
 30
0.000000
 11
6.030000
 21
6.210000
 31
0.000000
  0
LINE
  8
161
 10
6.030000
 20
6.210000
 30
0.000000
 11
5.770000
 21
6.210000
 31
0.000000
  0
LINE
  8
161
 10
5.770000
 20
6.210000
 30
0.000000
 11
5.770000
 21
6.075000
 31
0.000000
  0
LINE
  8
161
 10
0.270000
 20
6.075000
 30
0.000000
 11
0.530000
 21
6.075000
 31
0.000000
  0
LINE
  8
161
 10
0.530000
 20
6.075000
 30
0.000000
 11
0.530000
 21
6.210000
 31
0.000000
  0
LINE
  8
161
 10
0.530000
 20
6.210000
 30
0.000000
 11
0.270000
 21
6.210000
 31
0.000000
  0
LINE
  8
161
 10
0.270000
 20
6.210000
 30
0.000000
 11
0.270000
 21
6.075000
 31
0.000000
  0
LINE
  8
161
 10
0.230000
 20
5.775000
 30
0.000000
 11
0.230000
 21
6.035000
 31
0.000000
  0
LINE
  8
161
 10
0.230000
 20
6.035000
 30
0.000000
 11
0.095000
 21
6.035000
 31
0.000000
  0
LINE
  8
161
 10
0.095000
 20
6.035000
 30
0.000000
 11
0.095000
 21
5.775000
 31
0.000000
  0
LINE
  8
161
 10
0.095000
 20
5.775000
 30
0.000000
 11
0.230000
 21
5.775000
 31
0.000000
  0
LINE
  8
161
 10
1.695000
 20
3.180000
 30
0.000000
 11
1.695000
 21
1.180000
 31
0.000000
  0
LINE
  8
161
 10
1.695000
 20
1.180000
 30
0.000000
 11
4.485000
 21
1.180000
 31
0.000000
  0
LINE
  8
161
 10
4.485000
 20
1.180000
 30
0.000000
 11
4.485000
 21
3.180000
 31
0.000000
  0
LINE
  8
161
 10
4.485000
 20
3.180000
 30
0.000000
 11
1.695000
 21
3.180000
 31
0.000000
  0
LINE
  8
161
 10
3.020000
 20
6.075000
 30
0.000000
 11
3.280000
 21
6.075000
 31
0.000000
  0
LINE
  8
161
 10
3.280000
 20
6.075000
 30
0.000000
 11
3.280000
 21
6.210000
 31
0.000000
  0
LINE
  8
161
 10
3.280000
 20
6.210000
 30
0.000000
 11
3.020000
 21
6.210000
 31
0.000000
  0
LINE
  8
161
 10
3.020000
 20
6.210000
 30
0.000000
 11
3.020000
 21
6.075000
 31
0.000000
  0
LINE
  8
161
 10
2.870000
 20
0.100000
 30
0.000000
 11
3.480000
 21
0.100000
 31
0.000000
  0
LINE
  8
161
 10
3.480000
 20
0.100000
 30
0.000000
 11
3.480000
 21
0.235000
 31
0.000000
  0
LINE
  8
161
 10
3.480000
 20
0.235000
 30
0.000000
 11
2.870000
 21
0.235000
 31
0.000000
  0
LINE
  8
161
 10
2.870000
 20
0.235000
 30
0.000000
 11
2.870000
 21
0.100000
 31
0.000000
  0
LINE
  8
161
 10
6.205000
 20
3.025000
 30
0.000000
 11
6.205000
 21
3.785000
 31
0.000000
  0
LINE
  8
161
 10
6.205000
 20
3.785000
 30
0.000000
 11
6.070000
 21
3.785000
 31
0.000000
  0
LINE
  8
161
 10
6.070000
 20
3.785000
 30
0.000000
 11
6.070000
 21
3.025000
 31
0.000000
  0
LINE
  8
161
 10
6.070000
 20
3.025000
 30
0.000000
 11
6.205000
 21
3.025000
 31
0.000000
  0
LINE
  8
161
 10
0.230000
 20
3.025000
 30
0.000000
 11
0.230000
 21
3.785000
 31
0.000000
  0
LINE
  8
161
 10
0.230000
 20
3.785000
 30
0.000000
 11
0.095000
 21
3.785000
 31
0.000000
  0
LINE
  8
161
 10
0.095000
 20
3.785000
 30
0.000000
 11
0.095000
 21
3.025000
 31
0.000000
  0
LINE
  8
161
 10
0.095000
 20
3.025000
 30
0.000000
 11
0.230000
 21
3.025000
 31
0.000000
  0
ARC
  8
161
 10
21.191000
 20
1.336496
 30
0.000000
 40
0.249564
 50
97.366952
 51
82.633047
  0
ARC
  8
161
 10
21.191500
 20
3.136004
 30
0.000000
 40
0.249954
 50
281.422143
 51
258.577857
  0
LINE
  8
160
 10
20.366000
 20
2.781000
 30
0.000000
 11
20.166000
 21
2.781000
 31
0.000000
  0
LINE
  8
160
 10
18.670000
 20
0.281000
 30
0.000000
 11
18.545000
 21
0.281000
 31
0.000000
  0
LINE
  8
160
 10
16.925000
 20
0.035000
 30
0.000000
 11
16.925000
 21
0.285000
 31
0.000000
  0
LINE
  8
160
 10
16.925000
 20
0.285000
 30
0.000000
 11
17.050000
 21
0.285000
 31
0.000000
  0
LINE
  8
160
 10
17.050000
 20
0.535000
 30
0.000000
 11
17.050000
 21
2.280000
 31
0.000000
  0
LINE
  8
160
 10
17.050000
 20
3.285000
 30
0.000000
 11
17.050000
 21
5.530000
 31
0.000000
  0
LINE
  8
160
 10
17.050000
 20
5.530000
 30
0.000000
 11
16.925000
 21
5.530000
 31
0.000000
  0
LINE
  8
160
 10
16.925000
 20
5.530000
 30
0.000000
 11
16.925000
 21
5.780000
 31
0.000000
  0
LINE
  8
160
 10
16.925000
 20
5.780000
 30
0.000000
 11
17.050000
 21
5.780000
 31
0.000000
  0
LINE
  8
160
 10
17.050000
 20
5.780000
 30
0.000000
 11
18.671000
 21
5.780000
 31
0.000000
  0
LINE
  8
160
 10
18.671000
 20
5.779000
 30
0.000000
 11
18.671000
 21
5.530000
 31
0.000000
  0
LINE
  8
160
 10
18.671000
 20
5.530000
 30
0.000000
 11
18.545000
 21
5.530000
 31
0.000000
  0
LINE
  8
160
 10
18.545000
 20
5.530000
 30
0.000000
 11
18.545000
 21
3.281000
 31
0.000000
  0
LINE
  8
160
 10
18.545000
 20
2.780000
 30
0.000000
 11
18.545000
 21
0.531000
 31
0.000000
  0
LINE
  8
160
 10
18.670000
 20
0.281000
 30
0.000000
 11
18.670000
 21
0.035000
 31
0.000000
  0
LINE
  8
160
 10
18.670000
 20
0.035000
 30
0.000000
 11
16.925000
 21
0.035000
 31
0.000000
  0
LINE
  8
160
 10
17.050000
 20
3.031000
 30
0.000000
 11
16.925000
 21
3.031000
 31
0.000000
  0
LINE
  8
160
 10
16.925000
 20
3.031000
 30
0.000000
 11
16.925000
 21
2.281000
 31
0.000000
  0
LINE
  8
160
 10
16.925000
 20
2.281000
 30
0.000000
 11
17.050000
 21
2.280000
 31
0.000000
  0
LINE
  8
160
 10
18.545000
 20
2.780000
 30
0.000000
 11
18.671000
 21
2.780000
 31
0.000000
  0
LINE
  8
160
 10
18.671000
 20
2.780000
 30
0.000000
 11
18.671000
 21
3.030000
 31
0.000000
  0
LINE
  8
161
 10
17.936000
 20
0.883000
 30
0.000000
 11
18.093000
 21
0.915000
 31
0.000000
  0
LINE
  8
161
 10
17.952000
 20
1.680000
 30
0.000000
 11
18.089000
 21
1.651000
 31
0.000000
  0
LINE
  8
161
 10
17.785000
 20
1.010000
 30
0.000000
 11
17.785000
 21
1.552000
 31
0.000000
  0
LINE
  8
161
 10
18.205000
 20
1.045000
 30
0.000000
 11
18.205000
 21
1.517000
 31
0.000000
  0
ARC
  8
161
 10
17.924575
 20
1.543057
 30
0.000000
 40
0.139862
 50
78.273828
 51
176.334066
  0
ARC
  8
161
 10
17.911180
 20
1.006351
 30
0.000000
 40
0.126233
 50
178.343538
 51
282.266872
  0
ARC
  8
161
 10
18.068675
 20
1.049203
 30
0.000000
 40
0.136390
 50
280.273783
 51
358.233952
  0
ARC
  8
161
 10
18.059089
 20
1.507898
 30
0.000000
 40
0.146195
 50
3.569659
 51
78.193962
  0
LINE
  8
161
 10
17.931000
 20
3.484000
 30
0.000000
 11
18.088000
 21
3.516000
 31
0.000000
  0
LINE
  8
161
 10
17.947000
 20
4.281000
 30
0.000000
 11
18.084000
 21
4.252000
 31
0.000000
  0
LINE
  8
161
 10
17.780000
 20
3.611000
 30
0.000000
 11
17.780000
 21
4.153000
 31
0.000000
  0
LINE
  8
161
 10
18.200000
 20
3.646000
 30
0.000000
 11
18.200000
 21
4.118000
 31
0.000000
  0
ARC
  8
161
 10
17.919575
 20
4.144057
 30
0.000000
 40
0.139862
 50
78.273828
 51
176.334066
  0
ARC
  8
161
 10
17.906180
 20
3.607351
 30
0.000000
 40
0.126233
 50
178.343538
 51
282.266872
  0
ARC
  8
161
 10
18.063675
 20
3.650203
 30
0.000000
 40
0.136390
 50
280.273783
 51
358.233952
  0
ARC
  8
161
 10
18.054089
 20
4.108898
 30
0.000000
 40
0.146195
 50
3.569659
 51
78.193962
  0
LINE
  8
161
 10
17.080000
 20
4.760000
 30
0.000000
 11
17.080000
 21
4.954000
 31
0.000000
  0
ARC
  8
161
 10
17.314179
 20
4.857000
 30
0.000000
 40
0.253473
 50
202.500000
 51
157.500000
  0
LINE
  8
161
 10
17.931000
 20
2.184000
 30
0.000000
 11
18.088000
 21
2.216000
 31
0.000000
  0
LINE
  8
161
 10
17.947000
 20
2.981000
 30
0.000000
 11
18.084000
 21
2.952000
 31
0.000000
  0
LINE
  8
161
 10
17.780000
 20
2.311000
 30
0.000000
 11
17.780000
 21
2.853000
 31
0.000000
  0
LINE
  8
161
 10
18.200000
 20
2.346000
 30
0.000000
 11
18.200000
 21
2.818000
 31
0.000000
  0
ARC
  8
161
 10
17.919575
 20
2.844057
 30
0.000000
 40
0.139862
 50
78.273828
 51
176.334066
  0
ARC
  8
161
 10
17.906180
 20
2.307351
 30
0.000000
 40
0.126233
 50
178.343538
 51
282.266872
  0
ARC
  8
161
 10
18.063675
 20
2.350203
 30
0.000000
 40
0.136390
 50
280.273783
 51
358.233952
  0
ARC
  8
161
 10
18.054089
 20
2.808898
 30
0.000000
 40
0.146195
 50
3.569659
 51
78.193962
  0
LINE
  8
160
 10
18.546000
 20
5.780000
 30
0.000000
 11
18.671000
 21
5.779000
 31
0.000000
  0
LINE
  8
160
 10
20.291000
 20
6.026000
 30
0.000000
 11
20.291000
 21
5.776000
 31
0.000000
  0
LINE
  8
160
 10
20.291000
 20
5.776000
 30
0.000000
 11
20.166000
 21
5.776000
 31
0.000000
  0
LINE
  8
160
 10
20.166000
 20
5.531000
 30
0.000000
 11
20.166000
 21
3.781000
 31
0.000000
  0
LINE
  8
160
 10
20.166000
 20
0.531000
 30
0.000000
 11
20.291000
 21
0.531000
 31
0.000000
  0
LINE
  8
160
 10
20.291000
 20
0.531000
 30
0.000000
 11
20.291000
 21
0.281000
 31
0.000000
  0
LINE
  8
160
 10
20.166000
 20
0.281000
 30
0.000000
 11
18.670000
 21
0.281000
 31
0.000000
  0
LINE
  8
160
 10
18.545000
 20
0.281000
 30
0.000000
 11
18.545000
 21
0.531000
 31
0.000000
  0
LINE
  8
160
 10
18.545000
 20
0.531000
 30
0.000000
 11
18.671000
 21
0.531000
 31
0.000000
  0
LINE
  8
160
 10
18.671000
 20
0.531000
 30
0.000000
 11
18.671000
 21
2.780000
 31
0.000000
  0
LINE
  8
160
 10
18.671000
 20
3.281000
 30
0.000000
 11
18.671000
 21
5.530000
 31
0.000000
  0
LINE
  8
160
 10
18.671000
 20
5.780000
 30
0.000000
 11
18.671000
 21
5.779000
 31
0.000000
  0
LINE
  8
160
 10
18.546000
 20
5.780000
 30
0.000000
 11
18.546000
 21
6.026000
 31
0.000000
  0
LINE
  8
160
 10
18.546000
 20
6.026000
 30
0.000000
 11
20.291000
 21
6.026000
 31
0.000000
  0
LINE
  8
160
 10
20.291000
 20
3.780000
 30
0.000000
 11
20.166000
 21
3.781000
 31
0.000000
  0
LINE
  8
160
 10
18.671000
 20
3.281000
 30
0.000000
 11
18.545000
 21
3.281000
 31
0.000000
  0
LINE
  8
160
 10
18.545000
 20
3.281000
 30
0.000000
 11
18.545000
 21
3.030000
 31
0.000000
  0
LINE
  8
160
 10
18.545000
 20
3.030000
 30
0.000000
 11
18.671000
 21
3.030000
 31
0.000000
  0
LINE
  8
161
 10
19.280000
 20
5.178000
 30
0.000000
 11
19.123000
 21
5.146000
 31
0.000000
  0
LINE
  8
161
 10
19.264000
 20
4.381000
 30
0.000000
 11
19.127000
 21
4.410000
 31
0.000000
  0
LINE
  8
161
 10
19.431000
 20
5.051000
 30
0.000000
 11
19.431000
 21
4.509000
 31
0.000000
  0
LINE
  8
161
 10
19.011000
 20
5.016000
 30
0.000000
 11
19.011000
 21
4.544000
 31
0.000000
  0
ARC
  8
161
 10
19.291425
 20
4.517943
 30
0.000000
 40
0.139862
 50
258.273828
 51
356.334066
  0
ARC
  8
161
 10
19.304820
 20
5.054649
 30
0.000000
 40
0.126233
 50
358.343538
 51
102.266872
  0
ARC
  8
161
 10
19.147325
 20
5.011797
 30
0.000000
 40
0.136390
 50
100.273783
 51
178.233952
  0
ARC
  8
161
 10
19.156911
 20
4.553102
 30
0.000000
 40
0.146195
 50
183.569659
 51
258.193962
  0
LINE
  8
161
 10
19.285000
 20
2.577000
 30
0.000000
 11
19.128000
 21
2.545000
 31
0.000000
  0
LINE
  8
161
 10
19.269000
 20
1.780000
 30
0.000000
 11
19.132000
 21
1.809000
 31
0.000000
  0
LINE
  8
161
 10
19.436000
 20
2.450000
 30
0.000000
 11
19.436000
 21
1.908000
 31
0.000000
  0
LINE
  8
161
 10
19.016000
 20
2.415000
 30
0.000000
 11
19.016000
 21
1.943000
 31
0.000000
  0
ARC
  8
161
 10
19.296425
 20
1.916943
 30
0.000000
 40
0.139862
 50
258.273828
 51
356.334066
  0
ARC
  8
161
 10
19.309820
 20
2.453649
 30
0.000000
 40
0.126233
 50
358.343538
 51
102.266872
  0
ARC
  8
161
 10
19.152325
 20
2.410797
 30
0.000000
 40
0.136390
 50
100.273783
 51
178.233952
  0
ARC
  8
161
 10
19.161911
 20
1.952102
 30
0.000000
 40
0.146195
 50
183.569659
 51
258.193962
  0
LINE
  8
161
 10
20.136000
 20
1.301000
 30
0.000000
 11
20.136000
 21
1.107000
 31
0.000000
  0
ARC
  8
161
 10
19.901821
 20
1.204000
 30
0.000000
 40
0.253473
 50
22.500000
 51
337.500000
  0
LINE
  8
161
 10
20.136000
 20
3.951000
 30
0.000000
 11
20.136000
 21
3.757000
 31
0.000000
  0
ARC
  8
161
 10
19.901821
 20
3.854000
 30
0.000000
 40
0.253473
 50
22.500000
 51
337.500000
  0
LINE
  8
161
 10
18.981000
 20
3.354000
 30
0.000000
 11
18.981000
 21
2.874000
 31
0.000000
  0
LINE
  8
161
 10
18.981000
 20
2.874000
 30
0.000000
 11
19.486000
 21
2.874000
 31
0.000000
  0
LINE
  8
161
 10
19.486000
 20
2.874000
 30
0.000000
 11
19.486000
 21
3.354000
 31
0.000000
  0
LINE
  8
161
 10
19.486000
 20
3.354000
 30
0.000000
 11
18.981000
 21
3.354000
 31
0.000000
  0
LINE
  8
161
 10
20.326000
 20
3.704000
 30
0.000000
 11
20.326000
 21
3.898000
 31
0.000000
  0
ARC
  8
161
 10
20.560179
 20
3.801000
 30
0.000000
 40
0.253473
 50
202.500000
 51
157.500000
  0
LINE
  8
161
 10
20.166000
 20
2.781000
 30
0.000000
 11
20.166000
 21
0.531000
 31
0.000000
  0
LINE
  8
150
 10
0.699000
 20
0.334000
 30
0.000000
 11
0.699000
 21
0.426079
 31
0.000000
  0
LINE
  8
150
 10
0.699000
 20
0.426079
 30
0.000000
 11
0.729693
 21
0.395386
 31
0.000000
  0
LINE
  8
150
 10
0.729693
 20
0.395386
 30
0.000000
 11
0.760386
 21
0.426079
 31
0.000000
  0
LINE
  8
150
 10
0.760386
 20
0.426079
 30
0.000000
 11
0.760386
 21
0.334000
 31
0.000000
  0
LINE
  8
150
 10
0.791079
 20
0.334000
 30
0.000000
 11
0.791079
 21
0.395386
 31
0.000000
  0
LINE
  8
150
 10
0.791079
 20
0.395386
 30
0.000000
 11
0.821771
 21
0.426079
 31
0.000000
  0
LINE
  8
150
 10
0.821771
 20
0.426079
 30
0.000000
 11
0.852464
 21
0.395386
 31
0.000000
  0
LINE
  8
150
 10
0.852464
 20
0.395386
 30
0.000000
 11
0.852464
 21
0.334000
 31
0.000000
  0
LINE
  8
150
 10
0.791079
 20
0.380039
 30
0.000000
 11
0.852464
 21
0.380039
 31
0.000000
  0
LINE
  8
150
 10
0.883157
 20
0.426079
 30
0.000000
 11
0.944543
 21
0.334000
 31
0.000000
  0
LINE
  8
150
 10
0.944543
 20
0.426079
 30
0.000000
 11
0.883157
 21
0.334000
 31
0.000000
  0
LINE
  8
150
 10
1.067314
 20
0.349346
 30
0.000000
 11
1.067314
 21
0.410732
 31
0.000000
  0
LINE
  8
150
 10
1.067314
 20
0.410732
 30
0.000000
 11
1.082661
 21
0.426079
 31
0.000000
  0
LINE
  8
150
 10
1.082661
 20
0.426079
 30
0.000000
 11
1.113354
 21
0.426079
 31
0.000000
  0
LINE
  8
150
 10
1.113354
 20
0.426079
 30
0.000000
 11
1.128700
 21
0.410732
 31
0.000000
  0
LINE
  8
150
 10
1.128700
 20
0.410732
 30
0.000000
 11
1.128700
 21
0.349346
 31
0.000000
  0
LINE
  8
150
 10
1.128700
 20
0.349346
 30
0.000000
 11
1.113354
 21
0.334000
 31
0.000000
  0
LINE
  8
150
 10
1.113354
 20
0.334000
 30
0.000000
 11
1.082661
 21
0.334000
 31
0.000000
  0
LINE
  8
150
 10
1.082661
 20
0.334000
 30
0.000000
 11
1.067314
 21
0.349346
 31
0.000000
  0
LINE
  8
150
 10
1.067314
 20
0.349346
 30
0.000000
 11
1.128700
 21
0.410732
 31
0.000000
  0
LINE
  8
150
 10
1.251472
 20
0.395386
 30
0.000000
 11
1.282164
 21
0.426079
 31
0.000000
  0
LINE
  8
150
 10
1.282164
 20
0.426079
 30
0.000000
 11
1.282164
 21
0.334000
 31
0.000000
  0
LINE
  8
150
 10
1.251472
 20
0.334000
 30
0.000000
 11
1.312857
 21
0.334000
 31
0.000000
  0
LINE
  8
150
 10
1.724000
 20
0.334000
 30
0.000000
 11
1.724000
 21
0.426079
 31
0.000000
  0
LINE
  8
150
 10
1.724000
 20
0.426079
 30
0.000000
 11
1.754693
 21
0.395386
 31
0.000000
  0
LINE
  8
150
 10
1.754693
 20
0.395386
 30
0.000000
 11
1.785386
 21
0.426079
 31
0.000000
  0
LINE
  8
150
 10
1.785386
 20
0.426079
 30
0.000000
 11
1.785386
 21
0.334000
 31
0.000000
  0
LINE
  8
150
 10
1.816079
 20
0.334000
 30
0.000000
 11
1.816079
 21
0.395386
 31
0.000000
  0
LINE
  8
150
 10
1.816079
 20
0.395386
 30
0.000000
 11
1.846771
 21
0.426079
 31
0.000000
  0
LINE
  8
150
 10
1.846771
 20
0.426079
 30
0.000000
 11
1.877464
 21
0.395386
 31
0.000000
  0
LINE
  8
150
 10
1.877464
 20
0.395386
 30
0.000000
 11
1.877464
 21
0.334000
 31
0.000000
  0
LINE
  8
150
 10
1.816079
 20
0.380039
 30
0.000000
 11
1.877464
 21
0.380039
 31
0.000000
  0
LINE
  8
150
 10
1.908157
 20
0.426079
 30
0.000000
 11
1.969543
 21
0.334000
 31
0.000000
  0
LINE
  8
150
 10
1.969543
 20
0.426079
 30
0.000000
 11
1.908157
 21
0.334000
 31
0.000000
  0
LINE
  8
150
 10
2.153700
 20
0.334000
 30
0.000000
 11
2.092314
 21
0.334000
 31
0.000000
  0
LINE
  8
150
 10
2.092314
 20
0.334000
 30
0.000000
 11
2.153700
 21
0.395386
 31
0.000000
  0
LINE
  8
150
 10
2.153700
 20
0.395386
 30
0.000000
 11
2.153700
 21
0.410732
 31
0.000000
  0
LINE
  8
150
 10
2.153700
 20
0.410732
 30
0.000000
 11
2.138354
 21
0.426079
 31
0.000000
  0
LINE
  8
150
 10
2.138354
 20
0.426079
 30
0.000000
 11
2.107661
 21
0.426079
 31
0.000000
  0
LINE
  8
150
 10
2.107661
 20
0.426079
 30
0.000000
 11
2.092314
 21
0.410732
 31
0.000000
  0
LINE
  8
150
 10
2.184393
 20
0.334000
 30
0.000000
 11
2.245779
 21
0.426079
 31
0.000000
  0
LINE
  8
150
 10
2.276472
 20
0.410732
 30
0.000000
 11
2.291818
 21
0.426079
 31
0.000000
  0
LINE
  8
150
 10
2.291818
 20
0.426079
 30
0.000000
 11
2.322511
 21
0.426079
 31
0.000000
  0
LINE
  8
150
 10
2.322511
 20
0.426079
 30
0.000000
 11
2.337857
 21
0.410732
 31
0.000000
  0
LINE
  8
150
 10
2.337857
 20
0.410732
 30
0.000000
 11
2.337857
 21
0.395386
 31
0.000000
  0
LINE
  8
150
 10
2.337857
 20
0.395386
 30
0.000000
 11
2.322511
 21
0.380039
 31
0.000000
  0
LINE
  8
150
 10
2.322511
 20
0.380039
 30
0.000000
 11
2.307164
 21
0.380039
 31
0.000000
  0
LINE
  8
150
 10
2.322511
 20
0.380039
 30
0.000000
 11
2.337857
 21
0.364693
 31
0.000000
  0
LINE
  8
150
 10
2.337857
 20
0.364693
 30
0.000000
 11
2.337857
 21
0.349346
 31
0.000000
  0
LINE
  8
150
 10
2.337857
 20
0.349346
 30
0.000000
 11
2.322511
 21
0.334000
 31
0.000000
  0
LINE
  8
150
 10
2.322511
 20
0.334000
 30
0.000000
 11
2.291818
 21
0.334000
 31
0.000000
  0
LINE
  8
150
 10
2.291818
 20
0.334000
 30
0.000000
 11
2.276472
 21
0.349346
 31
0.000000
  0
LINE
  8
150
 10
2.759000
 20
0.319000
 30
0.000000
 11
2.759000
 21
0.411079
 31
0.000000
  0
LINE
  8
150
 10
2.759000
 20
0.411079
 30
0.000000
 11
2.789693
 21
0.380386
 31
0.000000
  0
LINE
  8
150
 10
2.789693
 20
0.380386
 30
0.000000
 11
2.820386
 21
0.411079
 31
0.000000
  0
LINE
  8
150
 10
2.820386
 20
0.411079
 30
0.000000
 11
2.820386
 21
0.319000
 31
0.000000
  0
LINE
  8
150
 10
2.851079
 20
0.319000
 30
0.000000
 11
2.851079
 21
0.380386
 31
0.000000
  0
LINE
  8
150
 10
2.851079
 20
0.380386
 30
0.000000
 11
2.881771
 21
0.411079
 31
0.000000
  0
LINE
  8
150
 10
2.881771
 20
0.411079
 30
0.000000
 11
2.912464
 21
0.380386
 31
0.000000
  0
LINE
  8
150
 10
2.912464
 20
0.380386
 30
0.000000
 11
2.912464
 21
0.319000
 31
0.000000
  0
LINE
  8
150
 10
2.851079
 20
0.365039
 30
0.000000
 11
2.912464
 21
0.365039
 31
0.000000
  0
LINE
  8
150
 10
2.943157
 20
0.411079
 30
0.000000
 11
3.004543
 21
0.319000
 31
0.000000
  0
LINE
  8
150
 10
3.004543
 20
0.411079
 30
0.000000
 11
2.943157
 21
0.319000
 31
0.000000
  0
LINE
  8
150
 10
3.173354
 20
0.319000
 30
0.000000
 11
3.173354
 21
0.411079
 31
0.000000
  0
LINE
  8
150
 10
3.173354
 20
0.411079
 30
0.000000
 11
3.127314
 21
0.365039
 31
0.000000
  0
LINE
  8
150
 10
3.127314
 20
0.365039
 30
0.000000
 11
3.188700
 21
0.365039
 31
0.000000
  0
LINE
  8
150
 10
3.219393
 20
0.319000
 30
0.000000
 11
3.280779
 21
0.411079
 31
0.000000
  0
LINE
  8
150
 10
3.372857
 20
0.411079
 30
0.000000
 11
3.311472
 21
0.411079
 31
0.000000
  0
LINE
  8
150
 10
3.311472
 20
0.411079
 30
0.000000
 11
3.311472
 21
0.365039
 31
0.000000
  0
LINE
  8
150
 10
3.311472
 20
0.365039
 30
0.000000
 11
3.342164
 21
0.380386
 31
0.000000
  0
LINE
  8
150
 10
3.342164
 20
0.380386
 30
0.000000
 11
3.357511
 21
0.380386
 31
0.000000
  0
LINE
  8
150
 10
3.357511
 20
0.380386
 30
0.000000
 11
3.372857
 21
0.365039
 31
0.000000
  0
LINE
  8
150
 10
3.372857
 20
0.365039
 30
0.000000
 11
3.372857
 21
0.334346
 31
0.000000
  0
LINE
  8
150
 10
3.372857
 20
0.334346
 30
0.000000
 11
3.357511
 21
0.319000
 31
0.000000
  0
LINE
  8
150
 10
3.357511
 20
0.319000
 30
0.000000
 11
3.326818
 21
0.319000
 31
0.000000
  0
LINE
  8
150
 10
3.326818
 20
0.319000
 30
0.000000
 11
3.311472
 21
0.334346
 31
0.000000
  0
LINE
  8
150
 10
3.759000
 20
0.324000
 30
0.000000
 11
3.759000
 21
0.416079
 31
0.000000
  0
LINE
  8
150
 10
3.759000
 20
0.416079
 30
0.000000
 11
3.789693
 21
0.385386
 31
0.000000
  0
LINE
  8
150
 10
3.789693
 20
0.385386
 30
0.000000
 11
3.820386
 21
0.416079
 31
0.000000
  0
LINE
  8
150
 10
3.820386
 20
0.416079
 30
0.000000
 11
3.820386
 21
0.324000
 31
0.000000
  0
LINE
  8
150
 10
3.851079
 20
0.324000
 30
0.000000
 11
3.851079
 21
0.385386
 31
0.000000
  0
LINE
  8
150
 10
3.851079
 20
0.385386
 30
0.000000
 11
3.881771
 21
0.416079
 31
0.000000
  0
LINE
  8
150
 10
3.881771
 20
0.416079
 30
0.000000
 11
3.912464
 21
0.385386
 31
0.000000
  0
LINE
  8
150
 10
3.912464
 20
0.385386
 30
0.000000
 11
3.912464
 21
0.324000
 31
0.000000
  0
LINE
  8
150
 10
3.851079
 20
0.370039
 30
0.000000
 11
3.912464
 21
0.370039
 31
0.000000
  0
LINE
  8
150
 10
3.943157
 20
0.416079
 30
0.000000
 11
4.004543
 21
0.324000
 31
0.000000
  0
LINE
  8
150
 10
4.004543
 20
0.416079
 30
0.000000
 11
3.943157
 21
0.324000
 31
0.000000
  0
LINE
  8
150
 10
4.188700
 20
0.416079
 30
0.000000
 11
4.158007
 21
0.400732
 31
0.000000
  0
LINE
  8
150
 10
4.158007
 20
0.400732
 30
0.000000
 11
4.127314
 21
0.370039
 31
0.000000
  0
LINE
  8
150
 10
4.127314
 20
0.370039
 30
0.000000
 11
4.127314
 21
0.339346
 31
0.000000
  0
LINE
  8
150
 10
4.127314
 20
0.339346
 30
0.000000
 11
4.142661
 21
0.324000
 31
0.000000
  0
LINE
  8
150
 10
4.142661
 20
0.324000
 30
0.000000
 11
4.173354
 21
0.324000
 31
0.000000
  0
LINE
  8
150
 10
4.173354
 20
0.324000
 30
0.000000
 11
4.188700
 21
0.339346
 31
0.000000
  0
LINE
  8
150
 10
4.188700
 20
0.339346
 30
0.000000
 11
4.188700
 21
0.354693
 31
0.000000
  0
LINE
  8
150
 10
4.188700
 20
0.354693
 30
0.000000
 11
4.173354
 21
0.370039
 31
0.000000
  0
LINE
  8
150
 10
4.173354
 20
0.370039
 30
0.000000
 11
4.127314
 21
0.370039
 31
0.000000
  0
LINE
  8
150
 10
4.219393
 20
0.324000
 30
0.000000
 11
4.280779
 21
0.416079
 31
0.000000
  0
LINE
  8
150
 10
4.311472
 20
0.416079
 30
0.000000
 11
4.372857
 21
0.416079
 31
0.000000
  0
LINE
  8
150
 10
4.372857
 20
0.416079
 30
0.000000
 11
4.372857
 21
0.400732
 31
0.000000
  0
LINE
  8
150
 10
4.372857
 20
0.400732
 30
0.000000
 11
4.311472
 21
0.339346
 31
0.000000
  0
LINE
  8
150
 10
4.311472
 20
0.339346
 30
0.000000
 11
4.311472
 21
0.324000
 31
0.000000
  0
LINE
  8
150
 10
4.759000
 20
0.324000
 30
0.000000
 11
4.759000
 21
0.416079
 31
0.000000
  0
LINE
  8
150
 10
4.759000
 20
0.416079
 30
0.000000
 11
4.789693
 21
0.385386
 31
0.000000
  0
LINE
  8
150
 10
4.789693
 20
0.385386
 30
0.000000
 11
4.820386
 21
0.416079
 31
0.000000
  0
LINE
  8
150
 10
4.820386
 20
0.416079
 30
0.000000
 11
4.820386
 21
0.324000
 31
0.000000
  0
LINE
  8
150
 10
4.851079
 20
0.324000
 30
0.000000
 11
4.851079
 21
0.385386
 31
0.000000
  0
LINE
  8
150
 10
4.851079
 20
0.385386
 30
0.000000
 11
4.881771
 21
0.416079
 31
0.000000
  0
LINE
  8
150
 10
4.881771
 20
0.416079
 30
0.000000
 11
4.912464
 21
0.385386
 31
0.000000
  0
LINE
  8
150
 10
4.912464
 20
0.385386
 30
0.000000
 11
4.912464
 21
0.324000
 31
0.000000
  0
LINE
  8
150
 10
4.851079
 20
0.370039
 30
0.000000
 11
4.912464
 21
0.370039
 31
0.000000
  0
LINE
  8
150
 10
4.943157
 20
0.416079
 30
0.000000
 11
5.004543
 21
0.324000
 31
0.000000
  0
LINE
  8
150
 10
5.004543
 20
0.416079
 30
0.000000
 11
4.943157
 21
0.324000
 31
0.000000
  0
LINE
  8
150
 10
5.127314
 20
0.400732
 30
0.000000
 11
5.142661
 21
0.416079
 31
0.000000
  0
LINE
  8
150
 10
5.142661
 20
0.416079
 30
0.000000
 11
5.173354
 21
0.416079
 31
0.000000
  0
LINE
  8
150
 10
5.173354
 20
0.416079
 30
0.000000
 11
5.188700
 21
0.400732
 31
0.000000
  0
LINE
  8
150
 10
5.188700
 20
0.400732
 30
0.000000
 11
5.188700
 21
0.385386
 31
0.000000
  0
LINE
  8
150
 10
5.188700
 20
0.385386
 30
0.000000
 11
5.173354
 21
0.370039
 31
0.000000
  0
LINE
  8
150
 10
5.173354
 20
0.370039
 30
0.000000
 11
5.188700
 21
0.354693
 31
0.000000
  0
LINE
  8
150
 10
5.188700
 20
0.354693
 30
0.000000
 11
5.188700
 21
0.339346
 31
0.000000
  0
LINE
  8
150
 10
5.188700
 20
0.339346
 30
0.000000
 11
5.173354
 21
0.324000
 31
0.000000
  0
LINE
  8
150
 10
5.173354
 20
0.324000
 30
0.000000
 11
5.142661
 21
0.324000
 31
0.000000
  0
LINE
  8
150
 10
5.142661
 20
0.324000
 30
0.000000
 11
5.127314
 21
0.339346
 31
0.000000
  0
LINE
  8
150
 10
5.127314
 20
0.339346
 30
0.000000
 11
5.127314
 21
0.354693
 31
0.000000
  0
LINE
  8
150
 10
5.127314
 20
0.354693
 30
0.000000
 11
5.142661
 21
0.370039
 31
0.000000
  0
LINE
  8
150
 10
5.142661
 20
0.370039
 30
0.000000
 11
5.127314
 21
0.385386
 31
0.000000
  0
LINE
  8
150
 10
5.127314
 20
0.385386
 30
0.000000
 11
5.127314
 21
0.400732
 31
0.000000
  0
LINE
  8
150
 10
5.142661
 20
0.370039
 30
0.000000
 11
5.173354
 21
0.370039
 31
0.000000
  0
LINE
  8
150
 10
5.219393
 20
0.324000
 30
0.000000
 11
5.280779
 21
0.416079
 31
0.000000
  0
LINE
  8
150
 10
5.311472
 20
0.339346
 30
0.000000
 11
5.326818
 21
0.324000
 31
0.000000
  0
LINE
  8
150
 10
5.326818
 20
0.324000
 30
0.000000
 11
5.357511
 21
0.324000
 31
0.000000
  0
LINE
  8
150
 10
5.357511
 20
0.324000
 30
0.000000
 11
5.372857
 21
0.339346
 31
0.000000
  0
LINE
  8
150
 10
5.372857
 20
0.339346
 30
0.000000
 11
5.372857
 21
0.400732
 31
0.000000
  0
LINE
  8
150
 10
5.372857
 20
0.400732
 30
0.000000
 11
5.357511
 21
0.416079
 31
0.000000
  0
LINE
  8
150
 10
5.357511
 20
0.416079
 30
0.000000
 11
5.326818
 21
0.416079
 31
0.000000
  0
LINE
  8
150
 10
5.326818
 20
0.416079
 30
0.000000
 11
5.311472
 21
0.400732
 31
0.000000
  0
LINE
  8
150
 10
5.311472
 20
0.400732
 30
0.000000
 11
5.311472
 21
0.385386
 31
0.000000
  0
LINE
  8
150
 10
5.311472
 20
0.385386
 30
0.000000
 11
5.326818
 21
0.370039
 31
0.000000
  0
LINE
  8
150
 10
5.326818
 20
0.370039
 30
0.000000
 11
5.372857
 21
0.370039
 31
0.000000
  0
LINE
  8
150
 10
5.786000
 20
1.679000
 30
0.000000
 11
5.724614
 21
1.679000
 31
0.000000
  0
LINE
  8
150
 10
5.724614
 20
1.679000
 30
0.000000
 11
5.693921
 21
1.709693
 31
0.000000
  0
LINE
  8
150
 10
5.693921
 20
1.709693
 30
0.000000
 11
5.724614
 21
1.740386
 31
0.000000
  0
LINE
  8
150
 10
5.724614
 20
1.740386
 30
0.000000
 11
5.786000
 21
1.740386
 31
0.000000
  0
LINE
  8
150
 10
5.739961
 20
1.679000
 30
0.000000
 11
5.739961
 21
1.740386
 31
0.000000
  0
LINE
  8
150
 10
5.693921
 20
1.832464
 30
0.000000
 11
5.709268
 21
1.801771
 31
0.000000
  0
LINE
  8
150
 10
5.709268
 20
1.801771
 30
0.000000
 11
5.739961
 21
1.771079
 31
0.000000
  0
LINE
  8
150
 10
5.739961
 20
1.771079
 30
0.000000
 11
5.770654
 21
1.771079
 31
0.000000
  0
LINE
  8
150
 10
5.770654
 20
1.771079
 30
0.000000
 11
5.786000
 21
1.786425
 31
0.000000
  0
LINE
  8
150
 10
5.786000
 20
1.786425
 30
0.000000
 11
5.786000
 21
1.817118
 31
0.000000
  0
LINE
  8
150
 10
5.786000
 20
1.817118
 30
0.000000
 11
5.770654
 21
1.832464
 31
0.000000
  0
LINE
  8
150
 10
5.770654
 20
1.832464
 30
0.000000
 11
5.755307
 21
1.832464
 31
0.000000
  0
LINE
  8
150
 10
5.755307
 20
1.832464
 30
0.000000
 11
5.739961
 21
1.817118
 31
0.000000
  0
LINE
  8
150
 10
5.739961
 20
1.817118
 30
0.000000
 11
5.739961
 21
1.771079
 31
0.000000
  0
LINE
  8
150
 10
5.739961
 20
1.863157
 30
0.000000
 11
5.739961
 21
1.924543
 31
0.000000
  0
LINE
  8
150
 10
5.786000
 20
2.016622
 30
0.000000
 11
5.786000
 21
1.955236
 31
0.000000
  0
LINE
  8
150
 10
5.786000
 20
1.955236
 30
0.000000
 11
5.724614
 21
2.016622
 31
0.000000
  0
LINE
  8
150
 10
5.724614
 20
2.016622
 30
0.000000
 11
5.709268
 21
2.016622
 31
0.000000
  0
LINE
  8
150
 10
5.709268
 20
2.016622
 30
0.000000
 11
5.693921
 21
2.001275
 31
0.000000
  0
LINE
  8
150
 10
5.693921
 20
2.001275
 30
0.000000
 11
5.693921
 21
1.970582
 31
0.000000
  0
LINE
  8
150
 10
5.693921
 20
1.970582
 30
0.000000
 11
5.709268
 21
1.955236
 31
0.000000
  0
LINE
  8
150
 10
5.770654
 20
2.047314
 30
0.000000
 11
5.709268
 21
2.047314
 31
0.000000
  0
LINE
  8
150
 10
5.709268
 20
2.047314
 30
0.000000
 11
5.693921
 21
2.062661
 31
0.000000
  0
LINE
  8
150
 10
5.693921
 20
2.062661
 30
0.000000
 11
5.693921
 21
2.093354
 31
0.000000
  0
LINE
  8
150
 10
5.693921
 20
2.093354
 30
0.000000
 11
5.709268
 21
2.108700
 31
0.000000
  0
LINE
  8
150
 10
5.709268
 20
2.108700
 30
0.000000
 11
5.770654
 21
2.108700
 31
0.000000
  0
LINE
  8
150
 10
5.770654
 20
2.108700
 30
0.000000
 11
5.786000
 21
2.093354
 31
0.000000
  0
LINE
  8
150
 10
5.786000
 20
2.093354
 30
0.000000
 11
5.786000
 21
2.062661
 31
0.000000
  0
LINE
  8
150
 10
5.786000
 20
2.062661
 30
0.000000
 11
5.770654
 21
2.047314
 31
0.000000
  0
LINE
  8
150
 10
5.770654
 20
2.047314
 30
0.000000
 11
5.709268
 21
2.108700
 31
0.000000
  0
LINE
  8
150
 10
5.936000
 20
1.679000
 30
0.000000
 11
5.874614
 21
1.679000
 31
0.000000
  0
LINE
  8
150
 10
5.874614
 20
1.679000
 30
0.000000
 11
5.843921
 21
1.709693
 31
0.000000
  0
LINE
  8
150
 10
5.843921
 20
1.709693
 30
0.000000
 11
5.874614
 21
1.740386
 31
0.000000
  0
LINE
  8
150
 10
5.874614
 20
1.740386
 30
0.000000
 11
5.936000
 21
1.740386
 31
0.000000
  0
LINE
  8
150
 10
5.889961
 20
1.679000
 30
0.000000
 11
5.889961
 21
1.740386
 31
0.000000
  0
LINE
  8
150
 10
5.874614
 20
1.771079
 30
0.000000
 11
5.843921
 21
1.801771
 31
0.000000
  0
LINE
  8
150
 10
5.843921
 20
1.801771
 30
0.000000
 11
5.936000
 21
1.801771
 31
0.000000
  0
LINE
  8
150
 10
5.936000
 20
1.771079
 30
0.000000
 11
5.936000
 21
1.832464
 31
0.000000
  0
LINE
  8
150
 10
5.843921
 20
1.863157
 30
0.000000
 11
5.843921
 21
1.924543
 31
0.000000
  0
LINE
  8
150
 10
5.843921
 20
1.924543
 30
0.000000
 11
5.859268
 21
1.924543
 31
0.000000
  0
LINE
  8
150
 10
5.859268
 20
1.924543
 30
0.000000
 11
5.920654
 21
1.863157
 31
0.000000
  0
LINE
  8
150
 10
5.920654
 20
1.863157
 30
0.000000
 11
5.936000
 21
1.863157
 31
0.000000
  0
LINE
  8
150
 10
5.889961
 20
1.955236
 30
0.000000
 11
5.889961
 21
2.016622
 31
0.000000
  0
LINE
  8
150
 10
5.936000
 20
2.093354
 30
0.000000
 11
5.843921
 21
2.093354
 31
0.000000
  0
LINE
  8
150
 10
5.843921
 20
2.093354
 30
0.000000
 11
5.889961
 21
2.047314
 31
0.000000
  0
LINE
  8
150
 10
5.889961
 20
2.047314
 30
0.000000
 11
5.889961
 21
2.108700
 31
0.000000
  0
LINE
  8
150
 10
5.874614
 20
2.139393
 30
0.000000
 11
5.843921
 21
2.170086
 31
0.000000
  0
LINE
  8
150
 10
5.843921
 20
2.170086
 30
0.000000
 11
5.936000
 21
2.170086
 31
0.000000
  0
LINE
  8
150
 10
5.936000
 20
2.139393
 30
0.000000
 11
5.936000
 21
2.200779
 31
0.000000
  0
LINE
  8
150
 10
5.744268
 20
3.134000
 30
0.000000
 11
5.728921
 21
3.149346
 31
0.000000
  0
LINE
  8
150
 10
5.728921
 20
3.149346
 30
0.000000
 11
5.728921
 21
3.180039
 31
0.000000
  0
LINE
  8
150
 10
5.728921
 20
3.180039
 30
0.000000
 11
5.744268
 21
3.195386
 31
0.000000
  0
LINE
  8
150
 10
5.744268
 20
3.195386
 30
0.000000
 11
5.759614
 21
3.195386
 31
0.000000
  0
LINE
  8
150
 10
5.759614
 20
3.195386
 30
0.000000
 11
5.774961
 21
3.180039
 31
0.000000
  0
LINE
  8
150
 10
5.774961
 20
3.180039
 30
0.000000
 11
5.774961
 21
3.164693
 31
0.000000
  0
LINE
  8
150
 10
5.774961
 20
3.180039
 30
0.000000
 11
5.790307
 21
3.195386
 31
0.000000
  0
LINE
  8
150
 10
5.790307
 20
3.195386
 30
0.000000
 11
5.805654
 21
3.195386
 31
0.000000
  0
LINE
  8
150
 10
5.805654
 20
3.195386
 30
0.000000
 11
5.821000
 21
3.180039
 31
0.000000
  0
LINE
  8
150
 10
5.821000
 20
3.180039
 30
0.000000
 11
5.821000
 21
3.149346
 31
0.000000
  0
LINE
  8
150
 10
5.821000
 20
3.149346
 30
0.000000
 11
5.805654
 21
3.134000
 31
0.000000
  0
LINE
  8
150
 10
5.744268
 20
3.226079
 30
0.000000
 11
5.728921
 21
3.241425
 31
0.000000
  0
LINE
  8
150
 10
5.728921
 20
3.241425
 30
0.000000
 11
5.728921
 21
3.272118
 31
0.000000
  0
LINE
  8
150
 10
5.728921
 20
3.272118
 30
0.000000
 11
5.744268
 21
3.287464
 31
0.000000
  0
LINE
  8
150
 10
5.744268
 20
3.287464
 30
0.000000
 11
5.759614
 21
3.287464
 31
0.000000
  0
LINE
  8
150
 10
5.759614
 20
3.287464
 30
0.000000
 11
5.774961
 21
3.272118
 31
0.000000
  0
LINE
  8
150
 10
5.774961
 20
3.272118
 30
0.000000
 11
5.774961
 21
3.256771
 31
0.000000
  0
LINE
  8
150
 10
5.774961
 20
3.272118
 30
0.000000
 11
5.790307
 21
3.287464
 31
0.000000
  0
LINE
  8
150
 10
5.790307
 20
3.287464
 30
0.000000
 11
5.805654
 21
3.287464
 31
0.000000
  0
LINE
  8
150
 10
5.805654
 20
3.287464
 30
0.000000
 11
5.821000
 21
3.272118
 31
0.000000
  0
LINE
  8
150
 10
5.821000
 20
3.272118
 30
0.000000
 11
5.821000
 21
3.241425
 31
0.000000
  0
LINE
  8
150
 10
5.821000
 20
3.241425
 30
0.000000
 11
5.805654
 21
3.226079
 31
0.000000
  0
LINE
  8
150
 10
5.894268
 20
3.134000
 30
0.000000
 11
5.878921
 21
3.149346
 31
0.000000
  0
LINE
  8
150
 10
5.878921
 20
3.149346
 30
0.000000
 11
5.878921
 21
3.180039
 31
0.000000
  0
LINE
  8
150
 10
5.878921
 20
3.180039
 30
0.000000
 11
5.894268
 21
3.195386
 31
0.000000
  0
LINE
  8
150
 10
5.894268
 20
3.195386
 30
0.000000
 11
5.909614
 21
3.195386
 31
0.000000
  0
LINE
  8
150
 10
5.909614
 20
3.195386
 30
0.000000
 11
5.924961
 21
3.180039
 31
0.000000
  0
LINE
  8
150
 10
5.924961
 20
3.180039
 30
0.000000
 11
5.924961
 21
3.164693
 31
0.000000
  0
LINE
  8
150
 10
5.924961
 20
3.180039
 30
0.000000
 11
5.940307
 21
3.195386
 31
0.000000
  0
LINE
  8
150
 10
5.940307
 20
3.195386
 30
0.000000
 11
5.955654
 21
3.195386
 31
0.000000
  0
LINE
  8
150
 10
5.955654
 20
3.195386
 30
0.000000
 11
5.971000
 21
3.180039
 31
0.000000
  0
LINE
  8
150
 10
5.971000
 20
3.180039
 30
0.000000
 11
5.971000
 21
3.149346
 31
0.000000
  0
LINE
  8
150
 10
5.971000
 20
3.149346
 30
0.000000
 11
5.955654
 21
3.134000
 31
0.000000
  0
LINE
  8
150
 10
5.971000
 20
3.272118
 30
0.000000
 11
5.878921
 21
3.272118
 31
0.000000
  0
LINE
  8
150
 10
5.878921
 20
3.272118
 30
0.000000
 11
5.924961
 21
3.226079
 31
0.000000
  0
LINE
  8
150
 10
5.924961
 20
3.226079
 30
0.000000
 11
5.924961
 21
3.287464
 31
0.000000
  0
LINE
  8
150
 10
5.543921
 20
3.805386
 30
0.000000
 11
5.543921
 21
3.744000
 31
0.000000
  0
LINE
  8
150
 10
5.543921
 20
3.744000
 30
0.000000
 11
5.636000
 21
3.744000
 31
0.000000
  0
LINE
  8
150
 10
5.636000
 20
3.744000
 30
0.000000
 11
5.636000
 21
3.805386
 31
0.000000
  0
LINE
  8
150
 10
5.589961
 20
3.744000
 30
0.000000
 11
5.589961
 21
3.774693
 31
0.000000
  0
LINE
  8
150
 10
5.636000
 20
3.836079
 30
0.000000
 11
5.543921
 21
3.836079
 31
0.000000
  0
LINE
  8
150
 10
5.543921
 20
3.836079
 30
0.000000
 11
5.636000
 21
3.897464
 31
0.000000
  0
LINE
  8
150
 10
5.636000
 20
3.897464
 30
0.000000
 11
5.543921
 21
3.897464
 31
0.000000
  0
LINE
  8
150
 10
5.559268
 20
3.989543
 30
0.000000
 11
5.543921
 21
3.974196
 31
0.000000
  0
LINE
  8
150
 10
5.543921
 20
3.974196
 30
0.000000
 11
5.543921
 21
3.943504
 31
0.000000
  0
LINE
  8
150
 10
5.543921
 20
3.943504
 30
0.000000
 11
5.559268
 21
3.928157
 31
0.000000
  0
LINE
  8
150
 10
5.559268
 20
3.928157
 30
0.000000
 11
5.620654
 21
3.928157
 31
0.000000
  0
LINE
  8
150
 10
5.620654
 20
3.928157
 30
0.000000
 11
5.636000
 21
3.943504
 31
0.000000
  0
LINE
  8
150
 10
5.636000
 20
3.943504
 30
0.000000
 11
5.636000
 21
3.974196
 31
0.000000
  0
LINE
  8
150
 10
5.636000
 20
3.974196
 30
0.000000
 11
5.620654
 21
3.989543
 31
0.000000
  0
LINE
  8
150
 10
5.543921
 20
4.066275
 30
0.000000
 11
5.543921
 21
4.035582
 31
0.000000
  0
LINE
  8
150
 10
5.543921
 20
4.035582
 30
0.000000
 11
5.559268
 21
4.020236
 31
0.000000
  0
LINE
  8
150
 10
5.559268
 20
4.020236
 30
0.000000
 11
5.620654
 21
4.020236
 31
0.000000
  0
LINE
  8
150
 10
5.620654
 20
4.020236
 30
0.000000
 11
5.636000
 21
4.035582
 31
0.000000
  0
LINE
  8
150
 10
5.636000
 20
4.035582
 30
0.000000
 11
5.636000
 21
4.066275
 31
0.000000
  0
LINE
  8
150
 10
5.636000
 20
4.066275
 30
0.000000
 11
5.620654
 21
4.081622
 31
0.000000
  0
LINE
  8
150
 10
5.620654
 20
4.081622
 30
0.000000
 11
5.559268
 21
4.081622
 31
0.000000
  0
LINE
  8
150
 10
5.559268
 20
4.081622
 30
0.000000
 11
5.543921
 21
4.066275
 31
0.000000
  0
LINE
  8
150
 10
5.543921
 20
4.112314
 30
0.000000
 11
5.636000
 21
4.112314
 31
0.000000
  0
LINE
  8
150
 10
5.636000
 20
4.112314
 30
0.000000
 11
5.636000
 21
4.158354
 31
0.000000
  0
LINE
  8
150
 10
5.636000
 20
4.158354
 30
0.000000
 11
5.620654
 21
4.173700
 31
0.000000
  0
LINE
  8
150
 10
5.620654
 20
4.173700
 30
0.000000
 11
5.559268
 21
4.173700
 31
0.000000
  0
LINE
  8
150
 10
5.559268
 20
4.173700
 30
0.000000
 11
5.543921
 21
4.158354
 31
0.000000
  0
LINE
  8
150
 10
5.543921
 20
4.158354
 30
0.000000
 11
5.543921
 21
4.112314
 31
0.000000
  0
LINE
  8
150
 10
5.543921
 20
4.265779
 30
0.000000
 11
5.543921
 21
4.204393
 31
0.000000
  0
LINE
  8
150
 10
5.543921
 20
4.204393
 30
0.000000
 11
5.636000
 21
4.204393
 31
0.000000
  0
LINE
  8
150
 10
5.636000
 20
4.204393
 30
0.000000
 11
5.636000
 21
4.265779
 31
0.000000
  0
LINE
  8
150
 10
5.589961
 20
4.204393
 30
0.000000
 11
5.589961
 21
4.235086
 31
0.000000
  0
LINE
  8
150
 10
5.636000
 20
4.296472
 30
0.000000
 11
5.543921
 21
4.296472
 31
0.000000
  0
LINE
  8
150
 10
5.543921
 20
4.296472
 30
0.000000
 11
5.543921
 21
4.342511
 31
0.000000
  0
LINE
  8
150
 10
5.543921
 20
4.342511
 30
0.000000
 11
5.559268
 21
4.357857
 31
0.000000
  0
LINE
  8
150
 10
5.559268
 20
4.357857
 30
0.000000
 11
5.589961
 21
4.357857
 31
0.000000
  0
LINE
  8
150
 10
5.589961
 20
4.357857
 30
0.000000
 11
5.605307
 21
4.342511
 31
0.000000
  0
LINE
  8
150
 10
5.605307
 20
4.342511
 30
0.000000
 11
5.605307
 21
4.296472
 31
0.000000
  0
LINE
  8
150
 10
5.605307
 20
4.327164
 30
0.000000
 11
5.636000
 21
4.357857
 31
0.000000
  0
LINE
  8
150
 10
5.693921
 20
3.974196
 30
0.000000
 11
5.693921
 21
3.943504
 31
0.000000
  0
LINE
  8
150
 10
5.693921
 20
3.943504
 30
0.000000
 11
5.709268
 21
3.928157
 31
0.000000
  0
LINE
  8
150
 10
5.709268
 20
3.928157
 30
0.000000
 11
5.770654
 21
3.928157
 31
0.000000
  0
LINE
  8
150
 10
5.770654
 20
3.928157
 30
0.000000
 11
5.786000
 21
3.943504
 31
0.000000
  0
LINE
  8
150
 10
5.786000
 20
3.943504
 30
0.000000
 11
5.786000
 21
3.974196
 31
0.000000
  0
LINE
  8
150
 10
5.786000
 20
3.974196
 30
0.000000
 11
5.770654
 21
3.989543
 31
0.000000
  0
LINE
  8
150
 10
5.770654
 20
3.989543
 30
0.000000
 11
5.709268
 21
3.989543
 31
0.000000
  0
LINE
  8
150
 10
5.709268
 20
3.989543
 30
0.000000
 11
5.693921
 21
3.974196
 31
0.000000
  0
LINE
  8
150
 10
5.786000
 20
4.020236
 30
0.000000
 11
5.693921
 21
4.020236
 31
0.000000
  0
LINE
  8
150
 10
5.693921
 20
4.020236
 30
0.000000
 11
5.693921
 21
4.066275
 31
0.000000
  0
LINE
  8
150
 10
5.693921
 20
4.066275
 30
0.000000
 11
5.709268
 21
4.081622
 31
0.000000
  0
LINE
  8
150
 10
5.709268
 20
4.081622
 30
0.000000
 11
5.739961
 21
4.081622
 31
0.000000
  0
LINE
  8
150
 10
5.739961
 20
4.081622
 30
0.000000
 11
5.755307
 21
4.066275
 31
0.000000
  0
LINE
  8
150
 10
5.755307
 20
4.066275
 30
0.000000
 11
5.755307
 21
4.020236
 31
0.000000
  0
LINE
  8
150
 10
5.755307
 20
4.050929
 30
0.000000
 11
5.786000
 21
4.081622
 31
0.000000
  0
LINE
  8
150
 10
5.936000
 20
3.805386
 30
0.000000
 11
5.936000
 21
3.744000
 31
0.000000
  0
LINE
  8
150
 10
5.936000
 20
3.744000
 30
0.000000
 11
5.874614
 21
3.805386
 31
0.000000
  0
LINE
  8
150
 10
5.874614
 20
3.805386
 30
0.000000
 11
5.859268
 21
3.805386
 31
0.000000
  0
LINE
  8
150
 10
5.859268
 20
3.805386
 30
0.000000
 11
5.843921
 21
3.790039
 31
0.000000
  0
LINE
  8
150
 10
5.843921
 20
3.790039
 30
0.000000
 11
5.843921
 21
3.759346
 31
0.000000
  0
LINE
  8
150
 10
5.843921
 20
3.759346
 30
0.000000
 11
5.859268
 21
3.744000
 31
0.000000
  0
LINE
  8
150
 10
5.905307
 20
3.989543
 30
0.000000
 11
5.936000
 21
3.958850
 31
0.000000
  0
LINE
  8
150
 10
5.936000
 20
3.958850
 30
0.000000
 11
5.936000
 21
3.943504
 31
0.000000
  0
LINE
  8
150
 10
5.936000
 20
3.943504
 30
0.000000
 11
5.920654
 21
3.928157
 31
0.000000
  0
LINE
  8
150
 10
5.920654
 20
3.928157
 30
0.000000
 11
5.905307
 21
3.928157
 31
0.000000
  0
LINE
  8
150
 10
5.905307
 20
3.928157
 30
0.000000
 11
5.874614
 21
3.958850
 31
0.000000
  0
LINE
  8
150
 10
5.874614
 20
3.958850
 30
0.000000
 11
5.859268
 21
3.958850
 31
0.000000
  0
LINE
  8
150
 10
5.859268
 20
3.958850
 30
0.000000
 11
5.843921
 21
3.943504
 31
0.000000
  0
LINE
  8
150
 10
5.843921
 20
3.943504
 30
0.000000
 11
5.859268
 21
3.928157
 31
0.000000
  0
LINE
  8
150
 10
5.859268
 20
3.928157
 30
0.000000
 11
5.874614
 21
3.928157
 31
0.000000
  0
LINE
  8
150
 10
5.874614
 20
3.928157
 30
0.000000
 11
5.936000
 21
3.989543
 31
0.000000
  0
LINE
  8
150
 10
5.843921
 20
4.173700
 30
0.000000
 11
5.843921
 21
4.112314
 31
0.000000
  0
LINE
  8
150
 10
5.843921
 20
4.112314
 30
0.000000
 11
5.889961
 21
4.112314
 31
0.000000
  0
LINE
  8
150
 10
5.889961
 20
4.112314
 30
0.000000
 11
5.874614
 21
4.143007
 31
0.000000
  0
LINE
  8
150
 10
5.874614
 20
4.143007
 30
0.000000
 11
5.874614
 21
4.158354
 31
0.000000
  0
LINE
  8
150
 10
5.874614
 20
4.158354
 30
0.000000
 11
5.889961
 21
4.173700
 31
0.000000
  0
LINE
  8
150
 10
5.889961
 20
4.173700
 30
0.000000
 11
5.920654
 21
4.173700
 31
0.000000
  0
LINE
  8
150
 10
5.920654
 20
4.173700
 30
0.000000
 11
5.936000
 21
4.158354
 31
0.000000
  0
LINE
  8
150
 10
5.936000
 20
4.158354
 30
0.000000
 11
5.936000
 21
4.127661
 31
0.000000
  0
LINE
  8
150
 10
5.936000
 20
4.127661
 30
0.000000
 11
5.920654
 21
4.112314
 31
0.000000
  0
LINE
  8
150
 10
5.936000
 20
4.296472
 30
0.000000
 11
5.936000
 21
4.327164
 31
0.000000
  0
LINE
  8
150
 10
5.936000
 20
4.311818
 30
0.000000
 11
5.843921
 21
4.311818
 31
0.000000
  0
LINE
  8
150
 10
5.843921
 20
4.296472
 30
0.000000
 11
5.843921
 21
4.327164
 31
0.000000
  0
LINE
  8
150
 10
5.936000
 20
4.357857
 30
0.000000
 11
5.843921
 21
4.357857
 31
0.000000
  0
LINE
  8
150
 10
5.843921
 20
4.357857
 30
0.000000
 11
5.936000
 21
4.419243
 31
0.000000
  0
LINE
  8
150
 10
5.936000
 20
4.419243
 30
0.000000
 11
5.843921
 21
4.419243
 31
0.000000
  0
LINE
  8
150
 10
5.563921
 20
4.813157
 30
0.000000
 11
5.656000
 21
4.813157
 31
0.000000
  0
LINE
  8
150
 10
5.656000
 20
4.813157
 30
0.000000
 11
5.656000
 21
4.859196
 31
0.000000
  0
LINE
  8
150
 10
5.656000
 20
4.859196
 30
0.000000
 11
5.640654
 21
4.874543
 31
0.000000
  0
LINE
  8
150
 10
5.640654
 20
4.874543
 30
0.000000
 11
5.579268
 21
4.874543
 31
0.000000
  0
LINE
  8
150
 10
5.579268
 20
4.874543
 30
0.000000
 11
5.563921
 21
4.859196
 31
0.000000
  0
LINE
  8
150
 10
5.563921
 20
4.859196
 30
0.000000
 11
5.563921
 21
4.813157
 31
0.000000
  0
LINE
  8
150
 10
5.656000
 20
4.905236
 30
0.000000
 11
5.563921
 21
4.905236
 31
0.000000
  0
LINE
  8
150
 10
5.563921
 20
4.905236
 30
0.000000
 11
5.563921
 21
4.951275
 31
0.000000
  0
LINE
  8
150
 10
5.563921
 20
4.951275
 30
0.000000
 11
5.579268
 21
4.966622
 31
0.000000
  0
LINE
  8
150
 10
5.579268
 20
4.966622
 30
0.000000
 11
5.609961
 21
4.966622
 31
0.000000
  0
LINE
  8
150
 10
5.609961
 20
4.966622
 30
0.000000
 11
5.625307
 21
4.951275
 31
0.000000
  0
LINE
  8
150
 10
5.625307
 20
4.951275
 30
0.000000
 11
5.625307
 21
4.905236
 31
0.000000
  0
LINE
  8
150
 10
5.625307
 20
4.935929
 30
0.000000
 11
5.656000
 21
4.966622
 31
0.000000
  0
LINE
  8
150
 10
5.656000
 20
4.997314
 30
0.000000
 11
5.656000
 21
5.028007
 31
0.000000
  0
LINE
  8
150
 10
5.656000
 20
5.012661
 30
0.000000
 11
5.563921
 21
5.012661
 31
0.000000
  0
LINE
  8
150
 10
5.563921
 20
4.997314
 30
0.000000
 11
5.563921
 21
5.028007
 31
0.000000
  0
LINE
  8
150
 10
5.563921
 20
5.058700
 30
0.000000
 11
5.625307
 21
5.058700
 31
0.000000
  0
LINE
  8
150
 10
5.625307
 20
5.058700
 30
0.000000
 11
5.656000
 21
5.089393
 31
0.000000
  0
LINE
  8
150
 10
5.656000
 20
5.089393
 30
0.000000
 11
5.625307
 21
5.120086
 31
0.000000
  0
LINE
  8
150
 10
5.625307
 20
5.120086
 30
0.000000
 11
5.563921
 21
5.120086
 31
0.000000
  0
LINE
  8
150
 10
5.563921
 20
5.212164
 30
0.000000
 11
5.563921
 21
5.150779
 31
0.000000
  0
LINE
  8
150
 10
5.563921
 20
5.150779
 30
0.000000
 11
5.656000
 21
5.150779
 31
0.000000
  0
LINE
  8
150
 10
5.656000
 20
5.150779
 30
0.000000
 11
5.656000
 21
5.212164
 31
0.000000
  0
LINE
  8
150
 10
5.609961
 20
5.150779
 30
0.000000
 11
5.609961
 21
5.181472
 31
0.000000
  0
LINE
  8
150
 10
5.656000
 20
5.242857
 30
0.000000
 11
5.563921
 21
5.242857
 31
0.000000
  0
LINE
  8
150
 10
5.563921
 20
5.242857
 30
0.000000
 11
5.563921
 21
5.288897
 31
0.000000
  0
LINE
  8
150
 10
5.563921
 20
5.288897
 30
0.000000
 11
5.579268
 21
5.304243
 31
0.000000
  0
LINE
  8
150
 10
5.579268
 20
5.304243
 30
0.000000
 11
5.609961
 21
5.304243
 31
0.000000
  0
LINE
  8
150
 10
5.609961
 20
5.304243
 30
0.000000
 11
5.625307
 21
5.288897
 31
0.000000
  0
LINE
  8
150
 10
5.625307
 20
5.288897
 30
0.000000
 11
5.625307
 21
5.242857
 31
0.000000
  0
LINE
  8
150
 10
5.625307
 20
5.273550
 30
0.000000
 11
5.656000
 21
5.304243
 31
0.000000
  0
LINE
  8
150
 10
5.579268
 20
5.396322
 30
0.000000
 11
5.563921
 21
5.380975
 31
0.000000
  0
LINE
  8
150
 10
5.563921
 20
5.380975
 30
0.000000
 11
5.563921
 21
5.350282
 31
0.000000
  0
LINE
  8
150
 10
5.563921
 20
5.350282
 30
0.000000
 11
5.579268
 21
5.334936
 31
0.000000
  0
LINE
  8
150
 10
5.579268
 20
5.334936
 30
0.000000
 11
5.594614
 21
5.334936
 31
0.000000
  0
LINE
  8
150
 10
5.594614
 20
5.334936
 30
0.000000
 11
5.609961
 21
5.350282
 31
0.000000
  0
LINE
  8
150
 10
5.609961
 20
5.350282
 30
0.000000
 11
5.609961
 21
5.380975
 31
0.000000
  0
LINE
  8
150
 10
5.609961
 20
5.380975
 30
0.000000
 11
5.625307
 21
5.396322
 31
0.000000
  0
LINE
  8
150
 10
5.625307
 20
5.396322
 30
0.000000
 11
5.640654
 21
5.396322
 31
0.000000
  0
LINE
  8
150
 10
5.640654
 20
5.396322
 30
0.000000
 11
5.656000
 21
5.380975
 31
0.000000
  0
LINE
  8
150
 10
5.656000
 20
5.380975
 30
0.000000
 11
5.656000
 21
5.350282
 31
0.000000
  0
LINE
  8
150
 10
5.656000
 20
5.350282
 30
0.000000
 11
5.640654
 21
5.334936
 31
0.000000
  0
LINE
  8
150
 10
5.806000
 20
4.675039
 30
0.000000
 11
5.713921
 21
4.675039
 31
0.000000
  0
LINE
  8
150
 10
5.713921
 20
4.675039
 30
0.000000
 11
5.759961
 21
4.629000
 31
0.000000
  0
LINE
  8
150
 10
5.759961
 20
4.629000
 30
0.000000
 11
5.759961
 21
4.690386
 31
0.000000
  0
LINE
  8
150
 10
5.729268
 20
4.905236
 30
0.000000
 11
5.713921
 21
4.920582
 31
0.000000
  0
LINE
  8
150
 10
5.713921
 20
4.920582
 30
0.000000
 11
5.713921
 21
4.951275
 31
0.000000
  0
LINE
  8
150
 10
5.713921
 20
4.951275
 30
0.000000
 11
5.729268
 21
4.966622
 31
0.000000
  0
LINE
  8
150
 10
5.729268
 20
4.966622
 30
0.000000
 11
5.744614
 21
4.966622
 31
0.000000
  0
LINE
  8
150
 10
5.744614
 20
4.966622
 30
0.000000
 11
5.759961
 21
4.951275
 31
0.000000
  0
LINE
  8
150
 10
5.759961
 20
4.951275
 30
0.000000
 11
5.759961
 21
4.935929
 31
0.000000
  0
LINE
  8
150
 10
5.759961
 20
4.951275
 30
0.000000
 11
5.775307
 21
4.966622
 31
0.000000
  0
LINE
  8
150
 10
5.775307
 20
4.966622
 30
0.000000
 11
5.790654
 21
4.966622
 31
0.000000
  0
LINE
  8
150
 10
5.790654
 20
4.966622
 30
0.000000
 11
5.806000
 21
4.951275
 31
0.000000
  0
LINE
  8
150
 10
5.806000
 20
4.951275
 30
0.000000
 11
5.806000
 21
4.920582
 31
0.000000
  0
LINE
  8
150
 10
5.806000
 20
4.920582
 30
0.000000
 11
5.790654
 21
4.905236
 31
0.000000
  0
LINE
  8
150
 10
5.806000
 20
5.242857
 30
0.000000
 11
5.806000
 21
5.181472
 31
0.000000
  0
LINE
  8
150
 10
5.806000
 20
5.181472
 30
0.000000
 11
5.744614
 21
5.242857
 31
0.000000
  0
LINE
  8
150
 10
5.744614
 20
5.242857
 30
0.000000
 11
5.729268
 21
5.242857
 31
0.000000
  0
LINE
  8
150
 10
5.729268
 20
5.242857
 30
0.000000
 11
5.713921
 21
5.227511
 31
0.000000
  0
LINE
  8
150
 10
5.713921
 20
5.227511
 30
0.000000
 11
5.713921
 21
5.196818
 31
0.000000
  0
LINE
  8
150
 10
5.713921
 20
5.196818
 30
0.000000
 11
5.729268
 21
5.181472
 31
0.000000
  0
LINE
  8
150
 10
5.744614
 20
5.457708
 30
0.000000
 11
5.713921
 21
5.488400
 31
0.000000
  0
LINE
  8
150
 10
5.713921
 20
5.488400
 30
0.000000
 11
5.806000
 21
5.488400
 31
0.000000
  0
LINE
  8
150
 10
5.806000
 20
5.457708
 30
0.000000
 11
5.806000
 21
5.519093
 31
0.000000
  0
LINE
  8
150
 10
5.879268
 20
4.629000
 30
0.000000
 11
5.863921
 21
4.644346
 31
0.000000
  0
LINE
  8
150
 10
5.863921
 20
4.644346
 30
0.000000
 11
5.863921
 21
4.675039
 31
0.000000
  0
LINE
  8
150
 10
5.863921
 20
4.675039
 30
0.000000
 11
5.879268
 21
4.690386
 31
0.000000
  0
LINE
  8
150
 10
5.879268
 20
4.690386
 30
0.000000
 11
5.894614
 21
4.690386
 31
0.000000
  0
LINE
  8
150
 10
5.894614
 20
4.690386
 30
0.000000
 11
5.909961
 21
4.675039
 31
0.000000
  0
LINE
  8
150
 10
5.909961
 20
4.675039
 30
0.000000
 11
5.925307
 21
4.690386
 31
0.000000
  0
LINE
  8
150
 10
5.925307
 20
4.690386
 30
0.000000
 11
5.940654
 21
4.690386
 31
0.000000
  0
LINE
  8
150
 10
5.940654
 20
4.690386
 30
0.000000
 11
5.956000
 21
4.675039
 31
0.000000
  0
LINE
  8
150
 10
5.956000
 20
4.675039
 30
0.000000
 11
5.956000
 21
4.644346
 31
0.000000
  0
LINE
  8
150
 10
5.956000
 20
4.644346
 30
0.000000
 11
5.940654
 21
4.629000
 31
0.000000
  0
LINE
  8
150
 10
5.940654
 20
4.629000
 30
0.000000
 11
5.925307
 21
4.629000
 31
0.000000
  0
LINE
  8
150
 10
5.925307
 20
4.629000
 30
0.000000
 11
5.909961
 21
4.644346
 31
0.000000
  0
LINE
  8
150
 10
5.909961
 20
4.644346
 30
0.000000
 11
5.894614
 21
4.629000
 31
0.000000
  0
LINE
  8
150
 10
5.894614
 20
4.629000
 30
0.000000
 11
5.879268
 21
4.629000
 31
0.000000
  0
LINE
  8
150
 10
5.909961
 20
4.644346
 30
0.000000
 11
5.909961
 21
4.675039
 31
0.000000
  0
LINE
  8
150
 10
5.863921
 20
4.905236
 30
0.000000
 11
5.863921
 21
4.966622
 31
0.000000
  0
LINE
  8
150
 10
5.863921
 20
4.966622
 30
0.000000
 11
5.879268
 21
4.966622
 31
0.000000
  0
LINE
  8
150
 10
5.879268
 20
4.966622
 30
0.000000
 11
5.940654
 21
4.905236
 31
0.000000
  0
LINE
  8
150
 10
5.940654
 20
4.905236
 30
0.000000
 11
5.956000
 21
4.905236
 31
0.000000
  0
LINE
  8
150
 10
5.863921
 20
5.242857
 30
0.000000
 11
5.879268
 21
5.212164
 31
0.000000
  0
LINE
  8
150
 10
5.879268
 20
5.212164
 30
0.000000
 11
5.909961
 21
5.181472
 31
0.000000
  0
LINE
  8
150
 10
5.909961
 20
5.181472
 30
0.000000
 11
5.940654
 21
5.181472
 31
0.000000
  0
LINE
  8
150
 10
5.940654
 20
5.181472
 30
0.000000
 11
5.956000
 21
5.196818
 31
0.000000
  0
LINE
  8
150
 10
5.956000
 20
5.196818
 30
0.000000
 11
5.956000
 21
5.227511
 31
0.000000
  0
LINE
  8
150
 10
5.956000
 20
5.227511
 30
0.000000
 11
5.940654
 21
5.242857
 31
0.000000
  0
LINE
  8
150
 10
5.940654
 20
5.242857
 30
0.000000
 11
5.925307
 21
5.242857
 31
0.000000
  0
LINE
  8
150
 10
5.925307
 20
5.242857
 30
0.000000
 11
5.909961
 21
5.227511
 31
0.000000
  0
LINE
  8
150
 10
5.909961
 20
5.227511
 30
0.000000
 11
5.909961
 21
5.181472
 31
0.000000
  0
LINE
  8
150
 10
5.863921
 20
5.519093
 30
0.000000
 11
5.863921
 21
5.457708
 31
0.000000
  0
LINE
  8
150
 10
5.863921
 20
5.457708
 30
0.000000
 11
5.909961
 21
5.457708
 31
0.000000
  0
LINE
  8
150
 10
5.909961
 20
5.457708
 30
0.000000
 11
5.894614
 21
5.488400
 31
0.000000
  0
LINE
  8
150
 10
5.894614
 20
5.488400
 30
0.000000
 11
5.894614
 21
5.503747
 31
0.000000
  0
LINE
  8
150
 10
5.894614
 20
5.503747
 30
0.000000
 11
5.909961
 21
5.519093
 31
0.000000
  0
LINE
  8
150
 10
5.909961
 20
5.519093
 30
0.000000
 11
5.940654
 21
5.519093
 31
0.000000
  0
LINE
  8
150
 10
5.940654
 20
5.519093
 30
0.000000
 11
5.956000
 21
5.503747
 31
0.000000
  0
LINE
  8
150
 10
5.956000
 20
5.503747
 30
0.000000
 11
5.956000
 21
5.473054
 31
0.000000
  0
LINE
  8
150
 10
5.956000
 20
5.473054
 30
0.000000
 11
5.940654
 21
5.457708
 31
0.000000
  0
LINE
  8
150
 10
5.431000
 20
5.693921
 30
0.000000
 11
5.431000
 21
5.786000
 31
0.000000
  0
LINE
  8
150
 10
5.431000
 20
5.786000
 30
0.000000
 11
5.384961
 21
5.786000
 31
0.000000
  0
LINE
  8
150
 10
5.384961
 20
5.786000
 30
0.000000
 11
5.369614
 21
5.770654
 31
0.000000
  0
LINE
  8
150
 10
5.369614
 20
5.770654
 30
0.000000
 11
5.369614
 21
5.709268
 31
0.000000
  0
LINE
  8
150
 10
5.369614
 20
5.709268
 30
0.000000
 11
5.384961
 21
5.693921
 31
0.000000
  0
LINE
  8
150
 10
5.384961
 20
5.693921
 30
0.000000
 11
5.431000
 21
5.693921
 31
0.000000
  0
LINE
  8
150
 10
5.338921
 20
5.786000
 30
0.000000
 11
5.338921
 21
5.693921
 31
0.000000
  0
LINE
  8
150
 10
5.338921
 20
5.693921
 30
0.000000
 11
5.292882
 21
5.693921
 31
0.000000
  0
LINE
  8
150
 10
5.292882
 20
5.693921
 30
0.000000
 11
5.277536
 21
5.709268
 31
0.000000
  0
LINE
  8
150
 10
5.277536
 20
5.709268
 30
0.000000
 11
5.277536
 21
5.739961
 31
0.000000
  0
LINE
  8
150
 10
5.277536
 20
5.739961
 30
0.000000
 11
5.292882
 21
5.755307
 31
0.000000
  0
LINE
  8
150
 10
5.292882
 20
5.755307
 30
0.000000
 11
5.338921
 21
5.755307
 31
0.000000
  0
LINE
  8
150
 10
5.308229
 20
5.755307
 30
0.000000
 11
5.277536
 21
5.786000
 31
0.000000
  0
LINE
  8
150
 10
5.246843
 20
5.786000
 30
0.000000
 11
5.216150
 21
5.786000
 31
0.000000
  0
LINE
  8
150
 10
5.231496
 20
5.786000
 30
0.000000
 11
5.231496
 21
5.693921
 31
0.000000
  0
LINE
  8
150
 10
5.246843
 20
5.693921
 30
0.000000
 11
5.216150
 21
5.693921
 31
0.000000
  0
LINE
  8
150
 10
5.185457
 20
5.693921
 30
0.000000
 11
5.185457
 21
5.755307
 31
0.000000
  0
LINE
  8
150
 10
5.185457
 20
5.755307
 30
0.000000
 11
5.154764
 21
5.786000
 31
0.000000
  0
LINE
  8
150
 10
5.154764
 20
5.786000
 30
0.000000
 11
5.124071
 21
5.755307
 31
0.000000
  0
LINE
  8
150
 10
5.124071
 20
5.755307
 30
0.000000
 11
5.124071
 21
5.693921
 31
0.000000
  0
LINE
  8
150
 10
5.031993
 20
5.693921
 30
0.000000
 11
5.093378
 21
5.693921
 31
0.000000
  0
LINE
  8
150
 10
5.093378
 20
5.693921
 30
0.000000
 11
5.093378
 21
5.786000
 31
0.000000
  0
LINE
  8
150
 10
5.093378
 20
5.786000
 30
0.000000
 11
5.031993
 21
5.786000
 31
0.000000
  0
LINE
  8
150
 10
5.093378
 20
5.739961
 30
0.000000
 11
5.062686
 21
5.739961
 31
0.000000
  0
LINE
  8
150
 10
5.001300
 20
5.786000
 30
0.000000
 11
5.001300
 21
5.693921
 31
0.000000
  0
LINE
  8
150
 10
5.001300
 20
5.693921
 30
0.000000
 11
4.955261
 21
5.693921
 31
0.000000
  0
LINE
  8
150
 10
4.955261
 20
5.693921
 30
0.000000
 11
4.939914
 21
5.709268
 31
0.000000
  0
LINE
  8
150
 10
4.939914
 20
5.709268
 30
0.000000
 11
4.939914
 21
5.739961
 31
0.000000
  0
LINE
  8
150
 10
4.939914
 20
5.739961
 30
0.000000
 11
4.955261
 21
5.755307
 31
0.000000
  0
LINE
  8
150
 10
4.955261
 20
5.755307
 30
0.000000
 11
5.001300
 21
5.755307
 31
0.000000
  0
LINE
  8
150
 10
4.970607
 20
5.755307
 30
0.000000
 11
4.939914
 21
5.786000
 31
0.000000
  0
LINE
  8
150
 10
5.431000
 20
5.874614
 30
0.000000
 11
5.400307
 21
5.843921
 31
0.000000
  0
LINE
  8
150
 10
5.400307
 20
5.843921
 30
0.000000
 11
5.400307
 21
5.936000
 31
0.000000
  0
LINE
  8
150
 10
5.431000
 20
5.936000
 30
0.000000
 11
5.369614
 21
5.936000
 31
0.000000
  0
LINE
  8
150
 10
5.338921
 20
5.874614
 30
0.000000
 11
5.308229
 21
5.843921
 31
0.000000
  0
LINE
  8
150
 10
5.308229
 20
5.843921
 30
0.000000
 11
5.308229
 21
5.936000
 31
0.000000
  0
LINE
  8
150
 10
5.338921
 20
5.936000
 30
0.000000
 11
5.277536
 21
5.936000
 31
0.000000
  0
LINE
  8
150
 10
5.246843
 20
5.889961
 30
0.000000
 11
5.185457
 21
5.889961
 31
0.000000
  0
LINE
  8
150
 10
5.154764
 20
5.859268
 30
0.000000
 11
5.139418
 21
5.843921
 31
0.000000
  0
LINE
  8
150
 10
5.139418
 20
5.843921
 30
0.000000
 11
5.108725
 21
5.843921
 31
0.000000
  0
LINE
  8
150
 10
5.108725
 20
5.843921
 30
0.000000
 11
5.093378
 21
5.859268
 31
0.000000
  0
LINE
  8
150
 10
5.093378
 20
5.859268
 30
0.000000
 11
5.093378
 21
5.874614
 31
0.000000
  0
LINE
  8
150
 10
5.093378
 20
5.874614
 30
0.000000
 11
5.108725
 21
5.889961
 31
0.000000
  0
LINE
  8
150
 10
5.108725
 20
5.889961
 30
0.000000
 11
5.124071
 21
5.889961
 31
0.000000
  0
LINE
  8
150
 10
5.108725
 20
5.889961
 30
0.000000
 11
5.093378
 21
5.905307
 31
0.000000
  0
LINE
  8
150
 10
5.093378
 20
5.905307
 30
0.000000
 11
5.093378
 21
5.920654
 31
0.000000
  0
LINE
  8
150
 10
5.093378
 20
5.920654
 30
0.000000
 11
5.108725
 21
5.936000
 31
0.000000
  0
LINE
  8
150
 10
5.108725
 20
5.936000
 30
0.000000
 11
5.139418
 21
5.936000
 31
0.000000
  0
LINE
  8
150
 10
5.139418
 20
5.936000
 30
0.000000
 11
5.154764
 21
5.920654
 31
0.000000
  0
LINE
  8
150
 10
5.001300
 20
5.843921
 30
0.000000
 11
5.062686
 21
5.843921
 31
0.000000
  0
LINE
  8
150
 10
5.062686
 20
5.843921
 30
0.000000
 11
5.062686
 21
5.889961
 31
0.000000
  0
LINE
  8
150
 10
5.062686
 20
5.889961
 30
0.000000
 11
5.031993
 21
5.874614
 31
0.000000
  0
LINE
  8
150
 10
5.031993
 20
5.874614
 30
0.000000
 11
5.016646
 21
5.874614
 31
0.000000
  0
LINE
  8
150
 10
5.016646
 20
5.874614
 30
0.000000
 11
5.001300
 21
5.889961
 31
0.000000
  0
LINE
  8
150
 10
5.001300
 20
5.889961
 30
0.000000
 11
5.001300
 21
5.920654
 31
0.000000
  0
LINE
  8
150
 10
5.001300
 20
5.920654
 30
0.000000
 11
5.016646
 21
5.936000
 31
0.000000
  0
LINE
  8
150
 10
5.016646
 20
5.936000
 30
0.000000
 11
5.047339
 21
5.936000
 31
0.000000
  0
LINE
  8
150
 10
5.047339
 20
5.936000
 30
0.000000
 11
5.062686
 21
5.920654
 31
0.000000
  0
LINE
  8
150
 10
4.970607
 20
5.843921
 30
0.000000
 11
4.970607
 21
5.905307
 31
0.000000
  0
LINE
  8
150
 10
4.970607
 20
5.905307
 30
0.000000
 11
4.939914
 21
5.936000
 31
0.000000
  0
LINE
  8
150
 10
4.939914
 20
5.936000
 30
0.000000
 11
4.909221
 21
5.905307
 31
0.000000
  0
LINE
  8
150
 10
4.909221
 20
5.905307
 30
0.000000
 11
4.909221
 21
5.843921
 31
0.000000
  0
LINE
  8
150
 10
4.695307
 20
5.781000
 30
0.000000
 11
4.695307
 21
5.688921
 31
0.000000
  0
LINE
  8
150
 10
4.726000
 20
5.688921
 30
0.000000
 11
4.664614
 21
5.688921
 31
0.000000
  0
LINE
  8
150
 10
4.572536
 20
5.688921
 30
0.000000
 11
4.633921
 21
5.688921
 31
0.000000
  0
LINE
  8
150
 10
4.633921
 20
5.688921
 30
0.000000
 11
4.633921
 21
5.781000
 31
0.000000
  0
LINE
  8
150
 10
4.633921
 20
5.781000
 30
0.000000
 11
4.572536
 21
5.781000
 31
0.000000
  0
LINE
  8
150
 10
4.633921
 20
5.734961
 30
0.000000
 11
4.603229
 21
5.734961
 31
0.000000
  0
LINE
  8
150
 10
4.480457
 20
5.688921
 30
0.000000
 11
4.541843
 21
5.688921
 31
0.000000
  0
LINE
  8
150
 10
4.541843
 20
5.688921
 30
0.000000
 11
4.541843
 21
5.781000
 31
0.000000
  0
LINE
  8
150
 10
4.541843
 20
5.781000
 30
0.000000
 11
4.480457
 21
5.781000
 31
0.000000
  0
LINE
  8
150
 10
4.541843
 20
5.734961
 30
0.000000
 11
4.511150
 21
5.734961
 31
0.000000
  0
LINE
  8
150
 10
4.449764
 20
5.781000
 30
0.000000
 11
4.449764
 21
5.688921
 31
0.000000
  0
LINE
  8
150
 10
4.449764
 20
5.688921
 30
0.000000
 11
4.388378
 21
5.781000
 31
0.000000
  0
LINE
  8
150
 10
4.388378
 20
5.781000
 30
0.000000
 11
4.388378
 21
5.688921
 31
0.000000
  0
LINE
  8
150
 10
4.296300
 20
5.704268
 30
0.000000
 11
4.311646
 21
5.688921
 31
0.000000
  0
LINE
  8
150
 10
4.311646
 20
5.688921
 30
0.000000
 11
4.342339
 21
5.688921
 31
0.000000
  0
LINE
  8
150
 10
4.342339
 20
5.688921
 30
0.000000
 11
4.357686
 21
5.704268
 31
0.000000
  0
LINE
  8
150
 10
4.357686
 20
5.704268
 30
0.000000
 11
4.357686
 21
5.719614
 31
0.000000
  0
LINE
  8
150
 10
4.357686
 20
5.719614
 30
0.000000
 11
4.342339
 21
5.734961
 31
0.000000
  0
LINE
  8
150
 10
4.342339
 20
5.734961
 30
0.000000
 11
4.311646
 21
5.734961
 31
0.000000
  0
LINE
  8
150
 10
4.311646
 20
5.734961
 30
0.000000
 11
4.296300
 21
5.750307
 31
0.000000
  0
LINE
  8
150
 10
4.296300
 20
5.750307
 30
0.000000
 11
4.296300
 21
5.765654
 31
0.000000
  0
LINE
  8
150
 10
4.296300
 20
5.765654
 30
0.000000
 11
4.311646
 21
5.781000
 31
0.000000
  0
LINE
  8
150
 10
4.311646
 20
5.781000
 30
0.000000
 11
4.342339
 21
5.781000
 31
0.000000
  0
LINE
  8
150
 10
4.342339
 20
5.781000
 30
0.000000
 11
4.357686
 21
5.765654
 31
0.000000
  0
LINE
  8
150
 10
4.265607
 20
5.688921
 30
0.000000
 11
4.265607
 21
5.704268
 31
0.000000
  0
LINE
  8
150
 10
4.265607
 20
5.704268
 30
0.000000
 11
4.234914
 21
5.734961
 31
0.000000
  0
LINE
  8
150
 10
4.234914
 20
5.734961
 30
0.000000
 11
4.204221
 21
5.704268
 31
0.000000
  0
LINE
  8
150
 10
4.204221
 20
5.704268
 30
0.000000
 11
4.204221
 21
5.688921
 31
0.000000
  0
LINE
  8
150
 10
4.234914
 20
5.734961
 30
0.000000
 11
4.234914
 21
5.781000
 31
0.000000
  0
LINE
  8
150
 10
4.035410
 20
5.781000
 30
0.000000
 11
4.035410
 21
5.688921
 31
0.000000
  0
LINE
  8
150
 10
4.035410
 20
5.688921
 30
0.000000
 11
4.081450
 21
5.734961
 31
0.000000
  0
LINE
  8
150
 10
4.081450
 20
5.734961
 30
0.000000
 11
4.020064
 21
5.734961
 31
0.000000
  0
LINE
  8
150
 10
3.989371
 20
5.781000
 30
0.000000
 11
3.989371
 21
5.765654
 31
0.000000
  0
LINE
  8
150
 10
3.989371
 20
5.765654
 30
0.000000
 11
3.974025
 21
5.765654
 31
0.000000
  0
LINE
  8
150
 10
3.974025
 20
5.765654
 30
0.000000
 11
3.974025
 21
5.781000
 31
0.000000
  0
LINE
  8
150
 10
3.974025
 20
5.781000
 30
0.000000
 11
3.989371
 21
5.781000
 31
0.000000
  0
LINE
  8
150
 10
3.943332
 20
5.719614
 30
0.000000
 11
3.912639
 21
5.688921
 31
0.000000
  0
LINE
  8
150
 10
3.912639
 20
5.688921
 30
0.000000
 11
3.912639
 21
5.781000
 31
0.000000
  0
LINE
  8
150
 10
3.943332
 20
5.781000
 30
0.000000
 11
3.881946
 21
5.781000
 31
0.000000
  0
LINE
  8
150
 10
4.633921
 20
5.838921
 30
0.000000
 11
4.633921
 21
5.915654
 31
0.000000
  0
LINE
  8
150
 10
4.633921
 20
5.915654
 30
0.000000
 11
4.618575
 21
5.931000
 31
0.000000
  0
LINE
  8
150
 10
4.618575
 20
5.931000
 30
0.000000
 11
4.587882
 21
5.931000
 31
0.000000
  0
LINE
  8
150
 10
4.587882
 20
5.931000
 30
0.000000
 11
4.572536
 21
5.915654
 31
0.000000
  0
LINE
  8
150
 10
4.572536
 20
5.915654
 30
0.000000
 11
4.572536
 21
5.838921
 31
0.000000
  0
LINE
  8
150
 10
4.480457
 20
5.854268
 30
0.000000
 11
4.495804
 21
5.838921
 31
0.000000
  0
LINE
  8
150
 10
4.495804
 20
5.838921
 30
0.000000
 11
4.526496
 21
5.838921
 31
0.000000
  0
LINE
  8
150
 10
4.526496
 20
5.838921
 30
0.000000
 11
4.541843
 21
5.854268
 31
0.000000
  0
LINE
  8
150
 10
4.541843
 20
5.854268
 30
0.000000
 11
4.541843
 21
5.869614
 31
0.000000
  0
LINE
  8
150
 10
4.541843
 20
5.869614
 30
0.000000
 11
4.526496
 21
5.884961
 31
0.000000
  0
LINE
  8
150
 10
4.526496
 20
5.884961
 30
0.000000
 11
4.495804
 21
5.884961
 31
0.000000
  0
LINE
  8
150
 10
4.495804
 20
5.884961
 30
0.000000
 11
4.480457
 21
5.900307
 31
0.000000
  0
LINE
  8
150
 10
4.480457
 20
5.900307
 30
0.000000
 11
4.480457
 21
5.915654
 31
0.000000
  0
LINE
  8
150
 10
4.480457
 20
5.915654
 30
0.000000
 11
4.495804
 21
5.931000
 31
0.000000
  0
LINE
  8
150
 10
4.495804
 20
5.931000
 30
0.000000
 11
4.526496
 21
5.931000
 31
0.000000
  0
LINE
  8
150
 10
4.526496
 20
5.931000
 30
0.000000
 11
4.541843
 21
5.915654
 31
0.000000
  0
LINE
  8
150
 10
4.449764
 20
5.931000
 30
0.000000
 11
4.449764
 21
5.838921
 31
0.000000
  0
LINE
  8
150
 10
4.449764
 20
5.838921
 30
0.000000
 11
4.403725
 21
5.838921
 31
0.000000
  0
LINE
  8
150
 10
4.403725
 20
5.838921
 30
0.000000
 11
4.388378
 21
5.854268
 31
0.000000
  0
LINE
  8
150
 10
4.388378
 20
5.854268
 30
0.000000
 11
4.388378
 21
5.869614
 31
0.000000
  0
LINE
  8
150
 10
4.388378
 20
5.869614
 30
0.000000
 11
4.403725
 21
5.884961
 31
0.000000
  0
LINE
  8
150
 10
4.403725
 20
5.884961
 30
0.000000
 11
4.388378
 21
5.900307
 31
0.000000
  0
LINE
  8
150
 10
4.388378
 20
5.900307
 30
0.000000
 11
4.388378
 21
5.915654
 31
0.000000
  0
LINE
  8
150
 10
4.388378
 20
5.915654
 30
0.000000
 11
4.403725
 21
5.931000
 31
0.000000
  0
LINE
  8
150
 10
4.403725
 20
5.931000
 30
0.000000
 11
4.449764
 21
5.931000
 31
0.000000
  0
LINE
  8
150
 10
4.449764
 20
5.884961
 30
0.000000
 11
4.403725
 21
5.884961
 31
0.000000
  0
LINE
  8
150
 10
4.357686
 20
5.931000
 30
0.000000
 11
4.296300
 21
5.838921
 31
0.000000
  0
LINE
  8
150
 10
4.265607
 20
5.931000
 30
0.000000
 11
4.265607
 21
5.838921
 31
0.000000
  0
LINE
  8
150
 10
4.265607
 20
5.838921
 30
0.000000
 11
4.219568
 21
5.838921
 31
0.000000
  0
LINE
  8
150
 10
4.219568
 20
5.838921
 30
0.000000
 11
4.204221
 21
5.854268
 31
0.000000
  0
LINE
  8
150
 10
4.204221
 20
5.854268
 30
0.000000
 11
4.204221
 21
5.884961
 31
0.000000
  0
LINE
  8
150
 10
4.204221
 20
5.884961
 30
0.000000
 11
4.219568
 21
5.900307
 31
0.000000
  0
LINE
  8
150
 10
4.219568
 20
5.900307
 30
0.000000
 11
4.265607
 21
5.900307
 31
0.000000
  0
LINE
  8
150
 10
4.173528
 20
5.838921
 30
0.000000
 11
4.173528
 21
5.931000
 31
0.000000
  0
LINE
  8
150
 10
4.173528
 20
5.931000
 30
0.000000
 11
4.142836
 21
5.900307
 31
0.000000
  0
LINE
  8
150
 10
4.142836
 20
5.900307
 30
0.000000
 11
4.112143
 21
5.931000
 31
0.000000
  0
LINE
  8
150
 10
4.112143
 20
5.931000
 30
0.000000
 11
4.112143
 21
5.838921
 31
0.000000
  0
LINE
  8
150
 10
4.081450
 20
5.931000
 30
0.000000
 11
4.081450
 21
5.838921
 31
0.000000
  0
LINE
  8
150
 10
4.081450
 20
5.838921
 30
0.000000
 11
4.035410
 21
5.838921
 31
0.000000
  0
LINE
  8
150
 10
4.035410
 20
5.838921
 30
0.000000
 11
4.020064
 21
5.854268
 31
0.000000
  0
LINE
  8
150
 10
4.020064
 20
5.854268
 30
0.000000
 11
4.020064
 21
5.884961
 31
0.000000
  0
LINE
  8
150
 10
4.020064
 20
5.884961
 30
0.000000
 11
4.035410
 21
5.900307
 31
0.000000
  0
LINE
  8
150
 10
4.035410
 20
5.900307
 30
0.000000
 11
4.081450
 21
5.900307
 31
0.000000
  0
LINE
  8
150
 10
4.050757
 20
5.900307
 30
0.000000
 11
4.020064
 21
5.931000
 31
0.000000
  0
LINE
  8
150
 10
3.603921
 20
5.786000
 30
0.000000
 11
3.603921
 21
5.724614
 31
0.000000
  0
LINE
  8
150
 10
3.603921
 20
5.724614
 30
0.000000
 11
3.573229
 21
5.693921
 31
0.000000
  0
LINE
  8
150
 10
3.573229
 20
5.693921
 30
0.000000
 11
3.542536
 21
5.724614
 31
0.000000
  0
LINE
  8
150
 10
3.542536
 20
5.724614
 30
0.000000
 11
3.542536
 21
5.786000
 31
0.000000
  0
LINE
  8
150
 10
3.603921
 20
5.739961
 30
0.000000
 11
3.542536
 21
5.739961
 31
0.000000
  0
LINE
  8
150
 10
3.511843
 20
5.693921
 30
0.000000
 11
3.511843
 21
5.770654
 31
0.000000
  0
LINE
  8
150
 10
3.511843
 20
5.770654
 30
0.000000
 11
3.496496
 21
5.786000
 31
0.000000
  0
LINE
  8
150
 10
3.496496
 20
5.786000
 30
0.000000
 11
3.465804
 21
5.786000
 31
0.000000
  0
LINE
  8
150
 10
3.465804
 20
5.786000
 30
0.000000
 11
3.450457
 21
5.770654
 31
0.000000
  0
LINE
  8
150
 10
3.450457
 20
5.770654
 30
0.000000
 11
3.450457
 21
5.693921
 31
0.000000
  0
LINE
  8
150
 10
3.419764
 20
5.693921
 30
0.000000
 11
3.358378
 21
5.786000
 31
0.000000
  0
LINE
  8
150
 10
3.358378
 20
5.693921
 30
0.000000
 11
3.419764
 21
5.786000
 31
0.000000
  0
LINE
  8
150
 10
3.696000
 20
5.936000
 30
0.000000
 11
3.696000
 21
5.843921
 31
0.000000
  0
LINE
  8
150
 10
3.696000
 20
5.843921
 30
0.000000
 11
3.649961
 21
5.843921
 31
0.000000
  0
LINE
  8
150
 10
3.649961
 20
5.843921
 30
0.000000
 11
3.634614
 21
5.859268
 31
0.000000
  0
LINE
  8
150
 10
3.634614
 20
5.859268
 30
0.000000
 11
3.634614
 21
5.889961
 31
0.000000
  0
LINE
  8
150
 10
3.634614
 20
5.889961
 30
0.000000
 11
3.649961
 21
5.905307
 31
0.000000
  0
LINE
  8
150
 10
3.649961
 20
5.905307
 30
0.000000
 11
3.696000
 21
5.905307
 31
0.000000
  0
LINE
  8
150
 10
3.557882
 20
5.843921
 30
0.000000
 11
3.588575
 21
5.843921
 31
0.000000
  0
LINE
  8
150
 10
3.588575
 20
5.843921
 30
0.000000
 11
3.603921
 21
5.859268
 31
0.000000
  0
LINE
  8
150
 10
3.603921
 20
5.859268
 30
0.000000
 11
3.603921
 21
5.920654
 31
0.000000
  0
LINE
  8
150
 10
3.603921
 20
5.920654
 30
0.000000
 11
3.588575
 21
5.936000
 31
0.000000
  0
LINE
  8
150
 10
3.588575
 20
5.936000
 30
0.000000
 11
3.557882
 21
5.936000
 31
0.000000
  0
LINE
  8
150
 10
3.557882
 20
5.936000
 30
0.000000
 11
3.542536
 21
5.920654
 31
0.000000
  0
LINE
  8
150
 10
3.542536
 20
5.920654
 30
0.000000
 11
3.542536
 21
5.859268
 31
0.000000
  0
LINE
  8
150
 10
3.542536
 20
5.859268
 30
0.000000
 11
3.557882
 21
5.843921
 31
0.000000
  0
LINE
  8
150
 10
3.511843
 20
5.843921
 30
0.000000
 11
3.511843
 21
5.936000
 31
0.000000
  0
LINE
  8
150
 10
3.511843
 20
5.936000
 30
0.000000
 11
3.481150
 21
5.905307
 31
0.000000
  0
LINE
  8
150
 10
3.481150
 20
5.905307
 30
0.000000
 11
3.450457
 21
5.936000
 31
0.000000
  0
LINE
  8
150
 10
3.450457
 20
5.936000
 30
0.000000
 11
3.450457
 21
5.843921
 31
0.000000
  0
LINE
  8
150
 10
3.358378
 20
5.843921
 30
0.000000
 11
3.419764
 21
5.843921
 31
0.000000
  0
LINE
  8
150
 10
3.419764
 20
5.843921
 30
0.000000
 11
3.419764
 21
5.936000
 31
0.000000
  0
LINE
  8
150
 10
3.419764
 20
5.936000
 30
0.000000
 11
3.358378
 21
5.936000
 31
0.000000
  0
LINE
  8
150
 10
3.419764
 20
5.889961
 30
0.000000
 11
3.389071
 21
5.889961
 31
0.000000
  0
LINE
  8
150
 10
3.327686
 20
5.936000
 30
0.000000
 11
3.327686
 21
5.843921
 31
0.000000
  0
LINE
  8
150
 10
3.327686
 20
5.843921
 30
0.000000
 11
3.281646
 21
5.843921
 31
0.000000
  0
LINE
  8
150
 10
3.281646
 20
5.843921
 30
0.000000
 11
3.266300
 21
5.859268
 31
0.000000
  0
LINE
  8
150
 10
3.266300
 20
5.859268
 30
0.000000
 11
3.266300
 21
5.889961
 31
0.000000
  0
LINE
  8
150
 10
3.266300
 20
5.889961
 30
0.000000
 11
3.281646
 21
5.905307
 31
0.000000
  0
LINE
  8
150
 10
3.281646
 20
5.905307
 30
0.000000
 11
3.327686
 21
5.905307
 31
0.000000
  0
LINE
  8
150
 10
3.296993
 20
5.905307
 30
0.000000
 11
3.266300
 21
5.936000
 31
0.000000
  0
LINE
  8
150
 10
1.125307
 20
5.776000
 30
0.000000
 11
1.125307
 21
5.683921
 31
0.000000
  0
LINE
  8
150
 10
1.156000
 20
5.683921
 30
0.000000
 11
1.094614
 21
5.683921
 31
0.000000
  0
LINE
  8
150
 10
1.017882
 20
5.683921
 30
0.000000
 11
1.048575
 21
5.683921
 31
0.000000
  0
LINE
  8
150
 10
1.048575
 20
5.683921
 30
0.000000
 11
1.063921
 21
5.699268
 31
0.000000
  0
LINE
  8
150
 10
1.063921
 20
5.699268
 30
0.000000
 11
1.063921
 21
5.760654
 31
0.000000
  0
LINE
  8
150
 10
1.063921
 20
5.760654
 30
0.000000
 11
1.048575
 21
5.776000
 31
0.000000
  0
LINE
  8
150
 10
1.048575
 20
5.776000
 30
0.000000
 11
1.017882
 21
5.776000
 31
0.000000
  0
LINE
  8
150
 10
1.017882
 20
5.776000
 30
0.000000
 11
1.002536
 21
5.760654
 31
0.000000
  0
LINE
  8
150
 10
1.002536
 20
5.760654
 30
0.000000
 11
1.002536
 21
5.699268
 31
0.000000
  0
LINE
  8
150
 10
1.002536
 20
5.699268
 30
0.000000
 11
1.017882
 21
5.683921
 31
0.000000
  0
LINE
  8
150
 10
0.971843
 20
5.776000
 30
0.000000
 11
0.971843
 21
5.683921
 31
0.000000
  0
LINE
  8
150
 10
0.971843
 20
5.683921
 30
0.000000
 11
0.910457
 21
5.776000
 31
0.000000
  0
LINE
  8
150
 10
0.910457
 20
5.776000
 30
0.000000
 11
0.910457
 21
5.683921
 31
0.000000
  0
LINE
  8
150
 10
0.818378
 20
5.683921
 30
0.000000
 11
0.879764
 21
5.683921
 31
0.000000
  0
LINE
  8
150
 10
0.879764
 20
5.683921
 30
0.000000
 11
0.879764
 21
5.776000
 31
0.000000
  0
LINE
  8
150
 10
0.879764
 20
5.776000
 30
0.000000
 11
0.818378
 21
5.776000
 31
0.000000
  0
LINE
  8
150
 10
0.879764
 20
5.729961
 30
0.000000
 11
0.849071
 21
5.729961
 31
0.000000
  0
LINE
  8
150
 10
1.156000
 20
5.926000
 30
0.000000
 11
1.156000
 21
5.864614
 31
0.000000
  0
LINE
  8
150
 10
1.156000
 20
5.864614
 30
0.000000
 11
1.125307
 21
5.833921
 31
0.000000
  0
LINE
  8
150
 10
1.125307
 20
5.833921
 30
0.000000
 11
1.094614
 21
5.864614
 31
0.000000
  0
LINE
  8
150
 10
1.094614
 20
5.864614
 30
0.000000
 11
1.094614
 21
5.926000
 31
0.000000
  0
LINE
  8
150
 10
1.156000
 20
5.879961
 30
0.000000
 11
1.094614
 21
5.879961
 31
0.000000
  0
LINE
  8
150
 10
1.063921
 20
5.864614
 30
0.000000
 11
1.033229
 21
5.833921
 31
0.000000
  0
LINE
  8
150
 10
1.033229
 20
5.833921
 30
0.000000
 11
1.033229
 21
5.926000
 31
0.000000
  0
LINE
  8
150
 10
1.063921
 20
5.926000
 30
0.000000
 11
1.002536
 21
5.926000
 31
0.000000
  0
LINE
  8
150
 10
0.910457
 20
5.833921
 30
0.000000
 11
0.941150
 21
5.849268
 31
0.000000
  0
LINE
  8
150
 10
0.941150
 20
5.849268
 30
0.000000
 11
0.971843
 21
5.879961
 31
0.000000
  0
LINE
  8
150
 10
0.971843
 20
5.879961
 30
0.000000
 11
0.971843
 21
5.910654
 31
0.000000
  0
LINE
  8
150
 10
0.971843
 20
5.910654
 30
0.000000
 11
0.956496
 21
5.926000
 31
0.000000
  0
LINE
  8
150
 10
0.956496
 20
5.926000
 30
0.000000
 11
0.925804
 21
5.926000
 31
0.000000
  0
LINE
  8
150
 10
0.925804
 20
5.926000
 30
0.000000
 11
0.910457
 21
5.910654
 31
0.000000
  0
LINE
  8
150
 10
0.910457
 20
5.910654
 30
0.000000
 11
0.910457
 21
5.895307
 31
0.000000
  0
LINE
  8
150
 10
0.910457
 20
5.895307
 30
0.000000
 11
0.925804
 21
5.879961
 31
0.000000
  0
LINE
  8
150
 10
0.925804
 20
5.879961
 30
0.000000
 11
0.971843
 21
5.879961
 31
0.000000
  0
LINE
  8
150
 10
0.879764
 20
5.926000
 30
0.000000
 11
0.818378
 21
5.833921
 31
0.000000
  0
LINE
  8
150
 10
0.741646
 20
5.926000
 30
0.000000
 11
0.741646
 21
5.833921
 31
0.000000
  0
LINE
  8
150
 10
0.741646
 20
5.833921
 30
0.000000
 11
0.787686
 21
5.879961
 31
0.000000
  0
LINE
  8
150
 10
0.787686
 20
5.879961
 30
0.000000
 11
0.726300
 21
5.879961
 31
0.000000
  0
LINE
  8
150
 10
0.695607
 20
5.910654
 30
0.000000
 11
0.695607
 21
5.849268
 31
0.000000
  0
LINE
  8
150
 10
0.695607
 20
5.849268
 30
0.000000
 11
0.680261
 21
5.833921
 31
0.000000
  0
LINE
  8
150
 10
0.680261
 20
5.833921
 30
0.000000
 11
0.649568
 21
5.833921
 31
0.000000
  0
LINE
  8
150
 10
0.649568
 20
5.833921
 30
0.000000
 11
0.634221
 21
5.849268
 31
0.000000
  0
LINE
  8
150
 10
0.634221
 20
5.849268
 30
0.000000
 11
0.634221
 21
5.910654
 31
0.000000
  0
LINE
  8
150
 10
0.634221
 20
5.910654
 30
0.000000
 11
0.649568
 21
5.926000
 31
0.000000
  0
LINE
  8
150
 10
0.649568
 20
5.926000
 30
0.000000
 11
0.680261
 21
5.926000
 31
0.000000
  0
LINE
  8
150
 10
0.680261
 20
5.926000
 30
0.000000
 11
0.695607
 21
5.910654
 31
0.000000
  0
LINE
  8
150
 10
0.695607
 20
5.910654
 30
0.000000
 11
0.634221
 21
5.849268
 31
0.000000
  0
LINE
  8
150
 10
0.380732
 20
5.057583
 30
0.000000
 11
0.396079
 21
5.072929
 31
0.000000
  0
LINE
  8
150
 10
0.396079
 20
5.072929
 30
0.000000
 11
0.396079
 21
5.103622
 31
0.000000
  0
LINE
  8
150
 10
0.396079
 20
5.103622
 30
0.000000
 11
0.380732
 21
5.118968
 31
0.000000
  0
LINE
  8
150
 10
0.380732
 20
5.118968
 30
0.000000
 11
0.365386
 21
5.118968
 31
0.000000
  0
LINE
  8
150
 10
0.365386
 20
5.118968
 30
0.000000
 11
0.350039
 21
5.103622
 31
0.000000
  0
LINE
  8
150
 10
0.350039
 20
5.103622
 30
0.000000
 11
0.350039
 21
5.072929
 31
0.000000
  0
LINE
  8
150
 10
0.350039
 20
5.072929
 30
0.000000
 11
0.334693
 21
5.057583
 31
0.000000
  0
LINE
  8
150
 10
0.334693
 20
5.057583
 30
0.000000
 11
0.319346
 21
5.057583
 31
0.000000
  0
LINE
  8
150
 10
0.319346
 20
5.057583
 30
0.000000
 11
0.304000
 21
5.072929
 31
0.000000
  0
LINE
  8
150
 10
0.304000
 20
5.072929
 30
0.000000
 11
0.304000
 21
5.103622
 31
0.000000
  0
LINE
  8
150
 10
0.304000
 20
5.103622
 30
0.000000
 11
0.319346
 21
5.118968
 31
0.000000
  0
LINE
  8
150
 10
0.396079
 20
4.965504
 30
0.000000
 11
0.396079
 21
5.026890
 31
0.000000
  0
LINE
  8
150
 10
0.396079
 20
5.026890
 30
0.000000
 11
0.304000
 21
5.026890
 31
0.000000
  0
LINE
  8
150
 10
0.304000
 20
5.026890
 30
0.000000
 11
0.304000
 21
4.965504
 31
0.000000
  0
LINE
  8
150
 10
0.350039
 20
5.026890
 30
0.000000
 11
0.350039
 21
4.996197
 31
0.000000
  0
LINE
  8
150
 10
0.304000
 20
4.934811
 30
0.000000
 11
0.396079
 21
4.934811
 31
0.000000
  0
LINE
  8
150
 10
0.396079
 20
4.934811
 30
0.000000
 11
0.396079
 21
4.888772
 31
0.000000
  0
LINE
  8
150
 10
0.396079
 20
4.888772
 30
0.000000
 11
0.380732
 21
4.873425
 31
0.000000
  0
LINE
  8
150
 10
0.380732
 20
4.873425
 30
0.000000
 11
0.350039
 21
4.873425
 31
0.000000
  0
LINE
  8
150
 10
0.350039
 20
4.873425
 30
0.000000
 11
0.334693
 21
4.888772
 31
0.000000
  0
LINE
  8
150
 10
0.334693
 20
4.888772
 30
0.000000
 11
0.334693
 21
4.934811
 31
0.000000
  0
LINE
  8
150
 10
0.334693
 20
4.904118
 30
0.000000
 11
0.304000
 21
4.873425
 31
0.000000
  0
LINE
  8
150
 10
0.304000
 20
4.842732
 30
0.000000
 11
0.304000
 21
4.812040
 31
0.000000
  0
LINE
  8
150
 10
0.304000
 20
4.827386
 30
0.000000
 11
0.396079
 21
4.827386
 31
0.000000
  0
LINE
  8
150
 10
0.396079
 20
4.842732
 30
0.000000
 11
0.396079
 21
4.812040
 31
0.000000
  0
LINE
  8
150
 10
0.304000
 20
4.781347
 30
0.000000
 11
0.365386
 21
4.781347
 31
0.000000
  0
LINE
  8
150
 10
0.365386
 20
4.781347
 30
0.000000
 11
0.396079
 21
4.750654
 31
0.000000
  0
LINE
  8
150
 10
0.396079
 20
4.750654
 30
0.000000
 11
0.365386
 21
4.719961
 31
0.000000
  0
LINE
  8
150
 10
0.365386
 20
4.719961
 30
0.000000
 11
0.304000
 21
4.719961
 31
0.000000
  0
LINE
  8
150
 10
0.350039
 20
4.781347
 30
0.000000
 11
0.350039
 21
4.719961
 31
0.000000
  0
LINE
  8
150
 10
0.396079
 20
4.689268
 30
0.000000
 11
0.304000
 21
4.689268
 31
0.000000
  0
LINE
  8
150
 10
0.304000
 20
4.689268
 30
0.000000
 11
0.304000
 21
4.627882
 31
0.000000
  0
LINE
  8
150
 10
0.365386
 20
4.505111
 30
0.000000
 11
0.396079
 21
4.474418
 31
0.000000
  0
LINE
  8
150
 10
0.396079
 20
4.474418
 30
0.000000
 11
0.304000
 21
4.474418
 31
0.000000
  0
LINE
  8
150
 10
0.304000
 20
4.505111
 30
0.000000
 11
0.304000
 21
4.443725
 31
0.000000
  0
LINE
  8
150
 10
0.426000
 20
1.426850
 30
0.000000
 11
0.518079
 21
1.426850
 31
0.000000
  0
LINE
  8
150
 10
0.518079
 20
1.426850
 30
0.000000
 11
0.518079
 21
1.380811
 31
0.000000
  0
LINE
  8
150
 10
0.518079
 20
1.380811
 30
0.000000
 11
0.502732
 21
1.365465
 31
0.000000
  0
LINE
  8
150
 10
0.502732
 20
1.365465
 30
0.000000
 11
0.472039
 21
1.365465
 31
0.000000
  0
LINE
  8
150
 10
0.472039
 20
1.365465
 30
0.000000
 11
0.456693
 21
1.380811
 31
0.000000
  0
LINE
  8
150
 10
0.456693
 20
1.380811
 30
0.000000
 11
0.456693
 21
1.426850
 31
0.000000
  0
LINE
  8
150
 10
0.426000
 20
1.334772
 30
0.000000
 11
0.426000
 21
1.304079
 31
0.000000
  0
LINE
  8
150
 10
0.426000
 20
1.319425
 30
0.000000
 11
0.518079
 21
1.319425
 31
0.000000
  0
LINE
  8
150
 10
0.518079
 20
1.334772
 30
0.000000
 11
0.518079
 21
1.304079
 31
0.000000
  0
LINE
  8
150
 10
0.426000
 20
1.273386
 30
0.000000
 11
0.518079
 21
1.273386
 31
0.000000
  0
LINE
  8
150
 10
0.518079
 20
1.273386
 30
0.000000
 11
0.426000
 21
1.212000
 31
0.000000
  0
LINE
  8
150
 10
0.426000
 20
1.212000
 30
0.000000
 11
0.518079
 21
1.212000
 31
0.000000
  0
LINE
  8
150
 10
0.441346
 20
1.089229
 30
0.000000
 11
0.426000
 21
1.073882
 31
0.000000
  0
LINE
  8
150
 10
0.426000
 20
1.073882
 30
0.000000
 11
0.426000
 21
1.043189
 31
0.000000
  0
LINE
  8
150
 10
0.426000
 20
1.043189
 30
0.000000
 11
0.441346
 21
1.027843
 31
0.000000
  0
LINE
  8
150
 10
0.441346
 20
1.027843
 30
0.000000
 11
0.502732
 21
1.027843
 31
0.000000
  0
LINE
  8
150
 10
0.502732
 20
1.027843
 30
0.000000
 11
0.518079
 21
1.043189
 31
0.000000
  0
LINE
  8
150
 10
0.518079
 20
1.043189
 30
0.000000
 11
0.518079
 21
1.073882
 31
0.000000
  0
LINE
  8
150
 10
0.518079
 20
1.073882
 30
0.000000
 11
0.502732
 21
1.089229
 31
0.000000
  0
LINE
  8
150
 10
0.502732
 20
1.089229
 30
0.000000
 11
0.487386
 21
1.089229
 31
0.000000
  0
LINE
  8
150
 10
0.487386
 20
1.089229
 30
0.000000
 11
0.472039
 21
1.073882
 31
0.000000
  0
LINE
  8
150
 10
0.472039
 20
1.073882
 30
0.000000
 11
0.472039
 21
1.027843
 31
0.000000
  0
LINE
  8
150
 10
0.276000
 20
1.472890
 30
0.000000
 11
0.368079
 21
1.472890
 31
0.000000
  0
LINE
  8
150
 10
0.368079
 20
1.472890
 30
0.000000
 11
0.368079
 21
1.426850
 31
0.000000
  0
LINE
  8
150
 10
0.368079
 20
1.426850
 30
0.000000
 11
0.352732
 21
1.411504
 31
0.000000
  0
LINE
  8
150
 10
0.352732
 20
1.411504
 30
0.000000
 11
0.322039
 21
1.411504
 31
0.000000
  0
LINE
  8
150
 10
0.322039
 20
1.411504
 30
0.000000
 11
0.306693
 21
1.426850
 31
0.000000
  0
LINE
  8
150
 10
0.306693
 20
1.426850
 30
0.000000
 11
0.306693
 21
1.472890
 31
0.000000
  0
LINE
  8
150
 10
0.276000
 20
1.380811
 30
0.000000
 11
0.276000
 21
1.350118
 31
0.000000
  0
LINE
  8
150
 10
0.276000
 20
1.365465
 30
0.000000
 11
0.368079
 21
1.365465
 31
0.000000
  0
LINE
  8
150
 10
0.368079
 20
1.380811
 30
0.000000
 11
0.368079
 21
1.350118
 31
0.000000
  0
LINE
  8
150
 10
0.276000
 20
1.319425
 30
0.000000
 11
0.368079
 21
1.319425
 31
0.000000
  0
LINE
  8
150
 10
0.368079
 20
1.319425
 30
0.000000
 11
0.276000
 21
1.258040
 31
0.000000
  0
LINE
  8
150
 10
0.276000
 20
1.258040
 30
0.000000
 11
0.368079
 21
1.258040
 31
0.000000
  0
LINE
  8
150
 10
0.337386
 20
1.135268
 30
0.000000
 11
0.368079
 21
1.104575
 31
0.000000
  0
LINE
  8
150
 10
0.368079
 20
1.104575
 30
0.000000
 11
0.276000
 21
1.104575
 31
0.000000
  0
LINE
  8
150
 10
0.276000
 20
1.135268
 30
0.000000
 11
0.276000
 21
1.073882
 31
0.000000
  0
LINE
  8
150
 10
0.291346
 20
1.043189
 30
0.000000
 11
0.352732
 21
1.043189
 31
0.000000
  0
LINE
  8
150
 10
0.352732
 20
1.043189
 30
0.000000
 11
0.368079
 21
1.027843
 31
0.000000
  0
LINE
  8
150
 10
0.368079
 20
1.027843
 30
0.000000
 11
0.368079
 21
0.997150
 31
0.000000
  0
LINE
  8
150
 10
0.368079
 20
0.997150
 30
0.000000
 11
0.352732
 21
0.981804
 31
0.000000
  0
LINE
  8
150
 10
0.352732
 20
0.981804
 30
0.000000
 11
0.291346
 21
0.981804
 31
0.000000
  0
LINE
  8
150
 10
0.291346
 20
0.981804
 30
0.000000
 11
0.276000
 21
0.997150
 31
0.000000
  0
LINE
  8
150
 10
0.276000
 20
0.997150
 30
0.000000
 11
0.276000
 21
1.027843
 31
0.000000
  0
LINE
  8
150
 10
0.276000
 20
1.027843
 30
0.000000
 11
0.291346
 21
1.043189
 31
0.000000
  0
LINE
  8
150
 10
0.291346
 20
1.043189
 30
0.000000
 11
0.352732
 21
0.981804
 31
0.000000
  0
LINE
  8
150
 10
2.385000
 20
3.603000
 30
0.000000
 11
2.385000
 21
3.725772
 31
0.000000
  0
LINE
  8
150
 10
2.385000
 20
3.725772
 30
0.000000
 11
2.415693
 21
3.725772
 31
0.000000
  0
LINE
  8
150
 10
2.415693
 20
3.725772
 30
0.000000
 11
2.446386
 21
3.695079
 31
0.000000
  0
LINE
  8
150
 10
2.446386
 20
3.695079
 30
0.000000
 11
2.446386
 21
3.603000
 31
0.000000
  0
LINE
  8
150
 10
2.446386
 20
3.695079
 30
0.000000
 11
2.477079
 21
3.725772
 31
0.000000
  0
LINE
  8
150
 10
2.477079
 20
3.725772
 30
0.000000
 11
2.507772
 21
3.695079
 31
0.000000
  0
LINE
  8
150
 10
2.507772
 20
3.695079
 30
0.000000
 11
2.507772
 21
3.603000
 31
0.000000
  0
LINE
  8
150
 10
2.569157
 20
3.725772
 30
0.000000
 11
2.599850
 21
3.725772
 31
0.000000
  0
LINE
  8
150
 10
2.599850
 20
3.725772
 30
0.000000
 11
2.599850
 21
3.603000
 31
0.000000
  0
LINE
  8
150
 10
2.569157
 20
3.603000
 30
0.000000
 11
2.630543
 21
3.603000
 31
0.000000
  0
LINE
  8
150
 10
2.599850
 20
3.817850
 30
0.000000
 11
2.599850
 21
3.787157
 31
0.000000
  0
LINE
  8
150
 10
2.691929
 20
3.603000
 30
0.000000
 11
2.691929
 21
3.725772
 31
0.000000
  0
LINE
  8
150
 10
2.691929
 20
3.725772
 30
0.000000
 11
2.784008
 21
3.725772
 31
0.000000
  0
LINE
  8
150
 10
2.784008
 20
3.725772
 30
0.000000
 11
2.814700
 21
3.695079
 31
0.000000
  0
LINE
  8
150
 10
2.814700
 20
3.695079
 30
0.000000
 11
2.814700
 21
3.603000
 31
0.000000
  0
LINE
  8
150
 10
2.876086
 20
3.725772
 30
0.000000
 11
2.906779
 21
3.725772
 31
0.000000
  0
LINE
  8
150
 10
2.906779
 20
3.725772
 30
0.000000
 11
2.906779
 21
3.603000
 31
0.000000
  0
LINE
  8
150
 10
2.876086
 20
3.603000
 30
0.000000
 11
2.937472
 21
3.603000
 31
0.000000
  0
LINE
  8
150
 10
2.906779
 20
3.817850
 30
0.000000
 11
2.906779
 21
3.787157
 31
0.000000
  0
LINE
  8
150
 10
2.998858
 20
3.603000
 30
0.000000
 11
2.998858
 21
3.787157
 31
0.000000
  0
LINE
  8
150
 10
2.998858
 20
3.787157
 30
0.000000
 11
3.090936
 21
3.787157
 31
0.000000
  0
LINE
  8
150
 10
3.090936
 20
3.787157
 30
0.000000
 11
3.121629
 21
3.756464
 31
0.000000
  0
LINE
  8
150
 10
3.121629
 20
3.756464
 30
0.000000
 11
3.121629
 21
3.725772
 31
0.000000
  0
LINE
  8
150
 10
3.121629
 20
3.725772
 30
0.000000
 11
3.090936
 21
3.695079
 31
0.000000
  0
LINE
  8
150
 10
3.090936
 20
3.695079
 30
0.000000
 11
3.121629
 21
3.664386
 31
0.000000
  0
LINE
  8
150
 10
3.121629
 20
3.664386
 30
0.000000
 11
3.121629
 21
3.633693
 31
0.000000
  0
LINE
  8
150
 10
3.121629
 20
3.633693
 30
0.000000
 11
3.090936
 21
3.603000
 31
0.000000
  0
LINE
  8
150
 10
3.090936
 20
3.603000
 30
0.000000
 11
2.998858
 21
3.603000
 31
0.000000
  0
LINE
  8
150
 10
2.998858
 20
3.695079
 30
0.000000
 11
3.090936
 21
3.695079
 31
0.000000
  0
LINE
  8
150
 10
3.305787
 20
3.756464
 30
0.000000
 11
3.275094
 21
3.787157
 31
0.000000
  0
LINE
  8
150
 10
3.275094
 20
3.787157
 30
0.000000
 11
3.213708
 21
3.787157
 31
0.000000
  0
LINE
  8
150
 10
3.213708
 20
3.787157
 30
0.000000
 11
3.183015
 21
3.756464
 31
0.000000
  0
LINE
  8
150
 10
3.183015
 20
3.756464
 30
0.000000
 11
3.183015
 21
3.633693
 31
0.000000
  0
LINE
  8
150
 10
3.183015
 20
3.633693
 30
0.000000
 11
3.213708
 21
3.603000
 31
0.000000
  0
LINE
  8
150
 10
3.213708
 20
3.603000
 30
0.000000
 11
3.275094
 21
3.603000
 31
0.000000
  0
LINE
  8
150
 10
3.275094
 20
3.603000
 30
0.000000
 11
3.305787
 21
3.633693
 31
0.000000
  0
LINE
  8
150
 10
3.489944
 20
3.756464
 30
0.000000
 11
3.459251
 21
3.787157
 31
0.000000
  0
LINE
  8
150
 10
3.459251
 20
3.787157
 30
0.000000
 11
3.397865
 21
3.787157
 31
0.000000
  0
LINE
  8
150
 10
3.397865
 20
3.787157
 30
0.000000
 11
3.367172
 21
3.756464
 31
0.000000
  0
LINE
  8
150
 10
3.367172
 20
3.756464
 30
0.000000
 11
3.367172
 21
3.725772
 31
0.000000
  0
LINE
  8
150
 10
3.367172
 20
3.725772
 30
0.000000
 11
3.397865
 21
3.695079
 31
0.000000
  0
LINE
  8
150
 10
3.397865
 20
3.695079
 30
0.000000
 11
3.459251
 21
3.695079
 31
0.000000
  0
LINE
  8
150
 10
3.459251
 20
3.695079
 30
0.000000
 11
3.489944
 21
3.664386
 31
0.000000
  0
LINE
  8
150
 10
3.489944
 20
3.664386
 30
0.000000
 11
3.489944
 21
3.633693
 31
0.000000
  0
LINE
  8
150
 10
3.489944
 20
3.633693
 30
0.000000
 11
3.459251
 21
3.603000
 31
0.000000
  0
LINE
  8
150
 10
3.459251
 20
3.603000
 30
0.000000
 11
3.397865
 21
3.603000
 31
0.000000
  0
LINE
  8
150
 10
3.397865
 20
3.603000
 30
0.000000
 11
3.367172
 21
3.633693
 31
0.000000
  0
LINE
  8
150
 10
3.551330
 20
3.695079
 30
0.000000
 11
3.674101
 21
3.695079
 31
0.000000
  0
LINE
  8
150
 10
3.827566
 20
3.603000
 30
0.000000
 11
3.827566
 21
3.787157
 31
0.000000
  0
LINE
  8
150
 10
3.827566
 20
3.787157
 30
0.000000
 11
3.735487
 21
3.695079
 31
0.000000
  0
LINE
  8
150
 10
3.735487
 20
3.695079
 30
0.000000
 11
3.858259
 21
3.695079
 31
0.000000
  0
LINE
  8
150
 10
3.019614
 20
5.843921
 30
0.000000
 11
3.081000
 21
5.843921
 31
0.000000
  0
LINE
  8
150
 10
3.081000
 20
5.843921
 30
0.000000
 11
3.081000
 21
5.936000
 31
0.000000
  0
LINE
  8
150
 10
3.081000
 20
5.936000
 30
0.000000
 11
3.019614
 21
5.936000
 31
0.000000
  0
LINE
  8
150
 10
3.081000
 20
5.889961
 30
0.000000
 11
3.050307
 21
5.889961
 31
0.000000
  0
LINE
  8
150
 10
2.958229
 20
5.936000
 30
0.000000
 11
2.958229
 21
5.843921
 31
0.000000
  0
LINE
  8
150
 10
2.988921
 20
5.843921
 30
0.000000
 11
2.927536
 21
5.843921
 31
0.000000
  0
LINE
  8
150
 10
2.896843
 20
5.936000
 30
0.000000
 11
2.896843
 21
5.843921
 31
0.000000
  0
LINE
  8
150
 10
2.896843
 20
5.889961
 30
0.000000
 11
2.835457
 21
5.889961
 31
0.000000
  0
LINE
  8
150
 10
2.835457
 20
5.843921
 30
0.000000
 11
2.835457
 21
5.936000
 31
0.000000
  0
LINE
  8
150
 10
2.743378
 20
5.843921
 30
0.000000
 11
2.804764
 21
5.843921
 31
0.000000
  0
LINE
  8
150
 10
2.804764
 20
5.843921
 30
0.000000
 11
2.804764
 21
5.936000
 31
0.000000
  0
LINE
  8
150
 10
2.804764
 20
5.936000
 30
0.000000
 11
2.743378
 21
5.936000
 31
0.000000
  0
LINE
  8
150
 10
2.804764
 20
5.889961
 30
0.000000
 11
2.774071
 21
5.889961
 31
0.000000
  0
LINE
  8
150
 10
2.712686
 20
5.936000
 30
0.000000
 11
2.712686
 21
5.843921
 31
0.000000
  0
LINE
  8
150
 10
2.712686
 20
5.843921
 30
0.000000
 11
2.666646
 21
5.843921
 31
0.000000
  0
LINE
  8
150
 10
2.666646
 20
5.843921
 30
0.000000
 11
2.651300
 21
5.859268
 31
0.000000
  0
LINE
  8
150
 10
2.651300
 20
5.859268
 30
0.000000
 11
2.651300
 21
5.889961
 31
0.000000
  0
LINE
  8
150
 10
2.651300
 20
5.889961
 30
0.000000
 11
2.666646
 21
5.905307
 31
0.000000
  0
LINE
  8
150
 10
2.666646
 20
5.905307
 30
0.000000
 11
2.712686
 21
5.905307
 31
0.000000
  0
LINE
  8
150
 10
2.681993
 20
5.905307
 30
0.000000
 11
2.651300
 21
5.936000
 31
0.000000
  0
LINE
  8
150
 10
2.620607
 20
5.936000
 30
0.000000
 11
2.620607
 21
5.843921
 31
0.000000
  0
LINE
  8
150
 10
2.620607
 20
5.843921
 30
0.000000
 11
2.559221
 21
5.936000
 31
0.000000
  0
LINE
  8
150
 10
2.559221
 20
5.936000
 30
0.000000
 11
2.559221
 21
5.843921
 31
0.000000
  0
LINE
  8
150
 10
2.467143
 20
5.843921
 30
0.000000
 11
2.528528
 21
5.843921
 31
0.000000
  0
LINE
  8
150
 10
2.528528
 20
5.843921
 30
0.000000
 11
2.528528
 21
5.936000
 31
0.000000
  0
LINE
  8
150
 10
2.528528
 20
5.936000
 30
0.000000
 11
2.467143
 21
5.936000
 31
0.000000
  0
LINE
  8
150
 10
2.528528
 20
5.889961
 30
0.000000
 11
2.497836
 21
5.889961
 31
0.000000
  0
LINE
  8
150
 10
2.405757
 20
5.936000
 30
0.000000
 11
2.405757
 21
5.843921
 31
0.000000
  0
LINE
  8
150
 10
2.436450
 20
5.843921
 30
0.000000
 11
2.375064
 21
5.843921
 31
0.000000
  0
LINE
  8
150
 10
0.683732
 20
3.721583
 30
0.000000
 11
0.699079
 21
3.736929
 31
0.000000
  0
LINE
  8
150
 10
0.699079
 20
3.736929
 30
0.000000
 11
0.699079
 21
3.767622
 31
0.000000
  0
LINE
  8
150
 10
0.699079
 20
3.767622
 30
0.000000
 11
0.683732
 21
3.782968
 31
0.000000
  0
LINE
  8
150
 10
0.683732
 20
3.782968
 30
0.000000
 11
0.668386
 21
3.782968
 31
0.000000
  0
LINE
  8
150
 10
0.668386
 20
3.782968
 30
0.000000
 11
0.653039
 21
3.767622
 31
0.000000
  0
LINE
  8
150
 10
0.653039
 20
3.767622
 30
0.000000
 11
0.653039
 21
3.736929
 31
0.000000
  0
LINE
  8
150
 10
0.653039
 20
3.736929
 30
0.000000
 11
0.637693
 21
3.721583
 31
0.000000
  0
LINE
  8
150
 10
0.637693
 20
3.721583
 30
0.000000
 11
0.622346
 21
3.721583
 31
0.000000
  0
LINE
  8
150
 10
0.622346
 20
3.721583
 30
0.000000
 11
0.607000
 21
3.736929
 31
0.000000
  0
LINE
  8
150
 10
0.607000
 20
3.736929
 30
0.000000
 11
0.607000
 21
3.767622
 31
0.000000
  0
LINE
  8
150
 10
0.607000
 20
3.767622
 30
0.000000
 11
0.622346
 21
3.782968
 31
0.000000
  0
LINE
  8
150
 10
0.699079
 20
3.629504
 30
0.000000
 11
0.699079
 21
3.690890
 31
0.000000
  0
LINE
  8
150
 10
0.699079
 20
3.690890
 30
0.000000
 11
0.607000
 21
3.690890
 31
0.000000
  0
LINE
  8
150
 10
0.607000
 20
3.690890
 30
0.000000
 11
0.607000
 21
3.629504
 31
0.000000
  0
LINE
  8
150
 10
0.653039
 20
3.690890
 30
0.000000
 11
0.653039
 21
3.660197
 31
0.000000
  0
LINE
  8
150
 10
0.607000
 20
3.598811
 30
0.000000
 11
0.699079
 21
3.598811
 31
0.000000
  0
LINE
  8
150
 10
0.699079
 20
3.598811
 30
0.000000
 11
0.699079
 21
3.552772
 31
0.000000
  0
LINE
  8
150
 10
0.699079
 20
3.552772
 30
0.000000
 11
0.683732
 21
3.537425
 31
0.000000
  0
LINE
  8
150
 10
0.683732
 20
3.537425
 30
0.000000
 11
0.653039
 21
3.537425
 31
0.000000
  0
LINE
  8
150
 10
0.653039
 20
3.537425
 30
0.000000
 11
0.637693
 21
3.552772
 31
0.000000
  0
LINE
  8
150
 10
0.637693
 20
3.552772
 30
0.000000
 11
0.637693
 21
3.598811
 31
0.000000
  0
LINE
  8
150
 10
0.637693
 20
3.568118
 30
0.000000
 11
0.607000
 21
3.537425
 31
0.000000
  0
LINE
  8
150
 10
0.607000
 20
3.506733
 30
0.000000
 11
0.607000
 21
3.476040
 31
0.000000
  0
LINE
  8
150
 10
0.607000
 20
3.491386
 30
0.000000
 11
0.699079
 21
3.491386
 31
0.000000
  0
LINE
  8
150
 10
0.699079
 20
3.506733
 30
0.000000
 11
0.699079
 21
3.476040
 31
0.000000
  0
LINE
  8
150
 10
0.607000
 20
3.445347
 30
0.000000
 11
0.668386
 21
3.445347
 31
0.000000
  0
LINE
  8
150
 10
0.668386
 20
3.445347
 30
0.000000
 11
0.699079
 21
3.414654
 31
0.000000
  0
LINE
  8
150
 10
0.699079
 20
3.414654
 30
0.000000
 11
0.668386
 21
3.383961
 31
0.000000
  0
LINE
  8
150
 10
0.668386
 20
3.383961
 30
0.000000
 11
0.607000
 21
3.383961
 31
0.000000
  0
LINE
  8
150
 10
0.653039
 20
3.445347
 30
0.000000
 11
0.653039
 21
3.383961
 31
0.000000
  0
LINE
  8
150
 10
0.699079
 20
3.353268
 30
0.000000
 11
0.607000
 21
3.353268
 31
0.000000
  0
LINE
  8
150
 10
0.607000
 20
3.353268
 30
0.000000
 11
0.607000
 21
3.291883
 31
0.000000
  0
LINE
  8
150
 10
0.607000
 20
3.107725
 30
0.000000
 11
0.607000
 21
3.169111
 31
0.000000
  0
LINE
  8
150
 10
0.607000
 20
3.169111
 30
0.000000
 11
0.668386
 21
3.107725
 31
0.000000
  0
LINE
  8
150
 10
0.668386
 20
3.107725
 30
0.000000
 11
0.683732
 21
3.107725
 31
0.000000
  0
LINE
  8
150
 10
0.683732
 20
3.107725
 30
0.000000
 11
0.699079
 21
3.123072
 31
0.000000
  0
LINE
  8
150
 10
0.699079
 20
3.123072
 30
0.000000
 11
0.699079
 21
3.153765
 31
0.000000
  0
LINE
  8
150
 10
0.699079
 20
3.153765
 30
0.000000
 11
0.683732
 21
3.169111
 31
0.000000
  0
LINE
  8
150
 10
0.549079
 20
3.430000
 30
0.000000
 11
0.549079
 21
3.460693
 31
0.000000
  0
LINE
  8
150
 10
0.549079
 20
3.460693
 30
0.000000
 11
0.533732
 21
3.476039
 31
0.000000
  0
LINE
  8
150
 10
0.533732
 20
3.476039
 30
0.000000
 11
0.472346
 21
3.476039
 31
0.000000
  0
LINE
  8
150
 10
0.472346
 20
3.476039
 30
0.000000
 11
0.457000
 21
3.460693
 31
0.000000
  0
LINE
  8
150
 10
0.457000
 20
3.460693
 30
0.000000
 11
0.457000
 21
3.430000
 31
0.000000
  0
LINE
  8
150
 10
0.457000
 20
3.430000
 30
0.000000
 11
0.472346
 21
3.414654
 31
0.000000
  0
LINE
  8
150
 10
0.472346
 20
3.414654
 30
0.000000
 11
0.533732
 21
3.414654
 31
0.000000
  0
LINE
  8
150
 10
0.533732
 20
3.414654
 30
0.000000
 11
0.549079
 21
3.430000
 31
0.000000
  0
LINE
  8
150
 10
0.457000
 20
3.383961
 30
0.000000
 11
0.549079
 21
3.383961
 31
0.000000
  0
LINE
  8
150
 10
0.549079
 20
3.383961
 30
0.000000
 11
0.549079
 21
3.337922
 31
0.000000
  0
LINE
  8
150
 10
0.549079
 20
3.337922
 30
0.000000
 11
0.533732
 21
3.322575
 31
0.000000
  0
LINE
  8
150
 10
0.533732
 20
3.322575
 30
0.000000
 11
0.503039
 21
3.322575
 31
0.000000
  0
LINE
  8
150
 10
0.503039
 20
3.322575
 30
0.000000
 11
0.487693
 21
3.337922
 31
0.000000
  0
LINE
  8
150
 10
0.487693
 20
3.337922
 30
0.000000
 11
0.487693
 21
3.383961
 31
0.000000
  0
LINE
  8
150
 10
0.487693
 20
3.353268
 30
0.000000
 11
0.457000
 21
3.322575
 31
0.000000
  0
LINE
  8
150
 10
0.307000
 20
3.875047
 30
0.000000
 11
0.399079
 21
3.875047
 31
0.000000
  0
LINE
  8
150
 10
0.399079
 20
3.875047
 30
0.000000
 11
0.399079
 21
3.829008
 31
0.000000
  0
LINE
  8
150
 10
0.399079
 20
3.829008
 30
0.000000
 11
0.383732
 21
3.813661
 31
0.000000
  0
LINE
  8
150
 10
0.383732
 20
3.813661
 30
0.000000
 11
0.353039
 21
3.813661
 31
0.000000
  0
LINE
  8
150
 10
0.353039
 20
3.813661
 30
0.000000
 11
0.337693
 21
3.829008
 31
0.000000
  0
LINE
  8
150
 10
0.337693
 20
3.829008
 30
0.000000
 11
0.337693
 21
3.875047
 31
0.000000
  0
LINE
  8
150
 10
0.307000
 20
3.782968
 30
0.000000
 11
0.307000
 21
3.752276
 31
0.000000
  0
LINE
  8
150
 10
0.307000
 20
3.767622
 30
0.000000
 11
0.399079
 21
3.767622
 31
0.000000
  0
LINE
  8
150
 10
0.399079
 20
3.782968
 30
0.000000
 11
0.399079
 21
3.752276
 31
0.000000
  0
LINE
  8
150
 10
0.307000
 20
3.721583
 30
0.000000
 11
0.399079
 21
3.721583
 31
0.000000
  0
LINE
  8
150
 10
0.399079
 20
3.721583
 30
0.000000
 11
0.307000
 21
3.660197
 31
0.000000
  0
LINE
  8
150
 10
0.307000
 20
3.660197
 30
0.000000
 11
0.399079
 21
3.660197
 31
0.000000
  0
LINE
  8
150
 10
0.383732
 20
3.568118
 30
0.000000
 11
0.399079
 21
3.583465
 31
0.000000
  0
LINE
  8
150
 10
0.399079
 20
3.583465
 30
0.000000
 11
0.399079
 21
3.614158
 31
0.000000
  0
LINE
  8
150
 10
0.399079
 20
3.614158
 30
0.000000
 11
0.383732
 21
3.629504
 31
0.000000
  0
LINE
  8
150
 10
0.383732
 20
3.629504
 30
0.000000
 11
0.368386
 21
3.629504
 31
0.000000
  0
LINE
  8
150
 10
0.368386
 20
3.629504
 30
0.000000
 11
0.353039
 21
3.614158
 31
0.000000
  0
LINE
  8
150
 10
0.353039
 20
3.614158
 30
0.000000
 11
0.353039
 21
3.583465
 31
0.000000
  0
LINE
  8
150
 10
0.353039
 20
3.583465
 30
0.000000
 11
0.337693
 21
3.568118
 31
0.000000
  0
LINE
  8
150
 10
0.337693
 20
3.568118
 30
0.000000
 11
0.322346
 21
3.568118
 31
0.000000
  0
LINE
  8
150
 10
0.322346
 20
3.568118
 30
0.000000
 11
0.307000
 21
3.583465
 31
0.000000
  0
LINE
  8
150
 10
0.307000
 20
3.583465
 30
0.000000
 11
0.307000
 21
3.614158
 31
0.000000
  0
LINE
  8
150
 10
0.307000
 20
3.614158
 30
0.000000
 11
0.322346
 21
3.629504
 31
0.000000
  0
LINE
  8
150
 10
0.399079
 20
3.445347
 30
0.000000
 11
0.399079
 21
3.383961
 31
0.000000
  0
LINE
  8
150
 10
0.399079
 20
3.383961
 30
0.000000
 11
0.383732
 21
3.383961
 31
0.000000
  0
LINE
  8
150
 10
0.383732
 20
3.383961
 30
0.000000
 11
0.322346
 21
3.445347
 31
0.000000
  0
LINE
  8
150
 10
0.322346
 20
3.445347
 30
0.000000
 11
0.307000
 21
3.445347
 31
0.000000
  0
LINE
  8
150
 10
0.337693
 20
3.199804
 30
0.000000
 11
0.307000
 21
3.230497
 31
0.000000
  0
LINE
  8
150
 10
0.307000
 20
3.230497
 30
0.000000
 11
0.307000
 21
3.245843
 31
0.000000
  0
LINE
  8
150
 10
0.307000
 20
3.245843
 30
0.000000
 11
0.322346
 21
3.261190
 31
0.000000
  0
LINE
  8
150
 10
0.322346
 20
3.261190
 30
0.000000
 11
0.337693
 21
3.261190
 31
0.000000
  0
LINE
  8
150
 10
0.337693
 20
3.261190
 30
0.000000
 11
0.368386
 21
3.230497
 31
0.000000
  0
LINE
  8
150
 10
0.368386
 20
3.230497
 30
0.000000
 11
0.383732
 21
3.230497
 31
0.000000
  0
LINE
  8
150
 10
0.383732
 20
3.230497
 30
0.000000
 11
0.399079
 21
3.245843
 31
0.000000
  0
LINE
  8
150
 10
0.399079
 20
3.245843
 30
0.000000
 11
0.383732
 21
3.261190
 31
0.000000
  0
LINE
  8
150
 10
0.383732
 20
3.261190
 30
0.000000
 11
0.368386
 21
3.261190
 31
0.000000
  0
LINE
  8
150
 10
0.368386
 20
3.261190
 30
0.000000
 11
0.307000
 21
3.199804
 31
0.000000
  0
LINE
  8
150
 10
0.383732
 20
3.077032
 30
0.000000
 11
0.399079
 21
3.061686
 31
0.000000
  0
LINE
  8
150
 10
0.399079
 20
3.061686
 30
0.000000
 11
0.399079
 21
3.030993
 31
0.000000
  0
LINE
  8
150
 10
0.399079
 20
3.030993
 30
0.000000
 11
0.383732
 21
3.015647
 31
0.000000
  0
LINE
  8
150
 10
0.383732
 20
3.015647
 30
0.000000
 11
0.368386
 21
3.015647
 31
0.000000
  0
LINE
  8
150
 10
0.368386
 20
3.015647
 30
0.000000
 11
0.353039
 21
3.030993
 31
0.000000
  0
LINE
  8
150
 10
0.353039
 20
3.030993
 30
0.000000
 11
0.337693
 21
3.015647
 31
0.000000
  0
LINE
  8
150
 10
0.337693
 20
3.015647
 30
0.000000
 11
0.322346
 21
3.015647
 31
0.000000
  0
LINE
  8
150
 10
0.322346
 20
3.015647
 30
0.000000
 11
0.307000
 21
3.030993
 31
0.000000
  0
LINE
  8
150
 10
0.307000
 20
3.030993
 30
0.000000
 11
0.307000
 21
3.061686
 31
0.000000
  0
LINE
  8
150
 10
0.307000
 20
3.061686
 30
0.000000
 11
0.322346
 21
3.077032
 31
0.000000
  0
LINE
  8
150
 10
0.322346
 20
3.077032
 30
0.000000
 11
0.337693
 21
3.077032
 31
0.000000
  0
LINE
  8
150
 10
0.337693
 20
3.077032
 30
0.000000
 11
0.353039
 21
3.061686
 31
0.000000
  0
LINE
  8
150
 10
0.353039
 20
3.061686
 30
0.000000
 11
0.368386
 21
3.077032
 31
0.000000
  0
LINE
  8
150
 10
0.368386
 20
3.077032
 30
0.000000
 11
0.383732
 21
3.077032
 31
0.000000
  0
LINE
  8
150
 10
0.353039
 20
3.061686
 30
0.000000
 11
0.353039
 21
3.030993
 31
0.000000
  0
LINE
  8
150
 10
0.378732
 20
2.462583
 30
0.000000
 11
0.394079
 21
2.477929
 31
0.000000
  0
LINE
  8
150
 10
0.394079
 20
2.477929
 30
0.000000
 11
0.394079
 21
2.508622
 31
0.000000
  0
LINE
  8
150
 10
0.394079
 20
2.508622
 30
0.000000
 11
0.378732
 21
2.523968
 31
0.000000
  0
LINE
  8
150
 10
0.378732
 20
2.523968
 30
0.000000
 11
0.363386
 21
2.523968
 31
0.000000
  0
LINE
  8
150
 10
0.363386
 20
2.523968
 30
0.000000
 11
0.348039
 21
2.508622
 31
0.000000
  0
LINE
  8
150
 10
0.348039
 20
2.508622
 30
0.000000
 11
0.348039
 21
2.477929
 31
0.000000
  0
LINE
  8
150
 10
0.348039
 20
2.477929
 30
0.000000
 11
0.332693
 21
2.462583
 31
0.000000
  0
LINE
  8
150
 10
0.332693
 20
2.462583
 30
0.000000
 11
0.317346
 21
2.462583
 31
0.000000
  0
LINE
  8
150
 10
0.317346
 20
2.462583
 30
0.000000
 11
0.302000
 21
2.477929
 31
0.000000
  0
LINE
  8
150
 10
0.302000
 20
2.477929
 30
0.000000
 11
0.302000
 21
2.508622
 31
0.000000
  0
LINE
  8
150
 10
0.302000
 20
2.508622
 30
0.000000
 11
0.317346
 21
2.523968
 31
0.000000
  0
LINE
  8
150
 10
0.394079
 20
2.370504
 30
0.000000
 11
0.394079
 21
2.431890
 31
0.000000
  0
LINE
  8
150
 10
0.394079
 20
2.431890
 30
0.000000
 11
0.302000
 21
2.431890
 31
0.000000
  0
LINE
  8
150
 10
0.302000
 20
2.431890
 30
0.000000
 11
0.302000
 21
2.370504
 31
0.000000
  0
LINE
  8
150
 10
0.348039
 20
2.431890
 30
0.000000
 11
0.348039
 21
2.401197
 31
0.000000
  0
LINE
  8
150
 10
0.302000
 20
2.339811
 30
0.000000
 11
0.394079
 21
2.339811
 31
0.000000
  0
LINE
  8
150
 10
0.394079
 20
2.339811
 30
0.000000
 11
0.394079
 21
2.293772
 31
0.000000
  0
LINE
  8
150
 10
0.394079
 20
2.293772
 30
0.000000
 11
0.378732
 21
2.278425
 31
0.000000
  0
LINE
  8
150
 10
0.378732
 20
2.278425
 30
0.000000
 11
0.348039
 21
2.278425
 31
0.000000
  0
LINE
  8
150
 10
0.348039
 20
2.278425
 30
0.000000
 11
0.332693
 21
2.293772
 31
0.000000
  0
LINE
  8
150
 10
0.332693
 20
2.293772
 30
0.000000
 11
0.332693
 21
2.339811
 31
0.000000
  0
LINE
  8
150
 10
0.332693
 20
2.309118
 30
0.000000
 11
0.302000
 21
2.278425
 31
0.000000
  0
LINE
  8
150
 10
0.302000
 20
2.247732
 30
0.000000
 11
0.302000
 21
2.217040
 31
0.000000
  0
LINE
  8
150
 10
0.302000
 20
2.232386
 30
0.000000
 11
0.394079
 21
2.232386
 31
0.000000
  0
LINE
  8
150
 10
0.394079
 20
2.247732
 30
0.000000
 11
0.394079
 21
2.217040
 31
0.000000
  0
LINE
  8
150
 10
0.302000
 20
2.186347
 30
0.000000
 11
0.363386
 21
2.186347
 31
0.000000
  0
LINE
  8
150
 10
0.363386
 20
2.186347
 30
0.000000
 11
0.394079
 21
2.155654
 31
0.000000
  0
LINE
  8
150
 10
0.394079
 20
2.155654
 30
0.000000
 11
0.363386
 21
2.124961
 31
0.000000
  0
LINE
  8
150
 10
0.363386
 20
2.124961
 30
0.000000
 11
0.302000
 21
2.124961
 31
0.000000
  0
LINE
  8
150
 10
0.348039
 20
2.186347
 30
0.000000
 11
0.348039
 21
2.124961
 31
0.000000
  0
LINE
  8
150
 10
0.394079
 20
2.094268
 30
0.000000
 11
0.302000
 21
2.094268
 31
0.000000
  0
LINE
  8
150
 10
0.302000
 20
2.094268
 30
0.000000
 11
0.302000
 21
2.032882
 31
0.000000
  0
LINE
  8
150
 10
0.378732
 20
1.910111
 30
0.000000
 11
0.394079
 21
1.894765
 31
0.000000
  0
LINE
  8
150
 10
0.394079
 20
1.894765
 30
0.000000
 11
0.394079
 21
1.864072
 31
0.000000
  0
LINE
  8
150
 10
0.394079
 20
1.864072
 30
0.000000
 11
0.378732
 21
1.848725
 31
0.000000
  0
LINE
  8
150
 10
0.378732
 20
1.848725
 30
0.000000
 11
0.363386
 21
1.848725
 31
0.000000
  0
LINE
  8
150
 10
0.363386
 20
1.848725
 30
0.000000
 11
0.348039
 21
1.864072
 31
0.000000
  0
LINE
  8
150
 10
0.348039
 20
1.864072
 30
0.000000
 11
0.348039
 21
1.879418
 31
0.000000
  0
LINE
  8
150
 10
0.348039
 20
1.864072
 30
0.000000
 11
0.332693
 21
1.848725
 31
0.000000
  0
LINE
  8
150
 10
0.332693
 20
1.848725
 30
0.000000
 11
0.317346
 21
1.848725
 31
0.000000
  0
LINE
  8
150
 10
0.317346
 20
1.848725
 30
0.000000
 11
0.302000
 21
1.864072
 31
0.000000
  0
LINE
  8
150
 10
0.302000
 20
1.864072
 30
0.000000
 11
0.302000
 21
1.894765
 31
0.000000
  0
LINE
  8
150
 10
0.302000
 20
1.894765
 30
0.000000
 11
0.317346
 21
1.910111
 31
0.000000
  0
LINE
  8
150
 10
2.841803
 20
3.275000
 30
0.000000
 11
2.841803
 21
3.367079
 31
0.000000
  0
LINE
  8
150
 10
2.841803
 20
3.367079
 30
0.000000
 11
2.887843
 21
3.367079
 31
0.000000
  0
LINE
  8
150
 10
2.887843
 20
3.367079
 30
0.000000
 11
2.903189
 21
3.351732
 31
0.000000
  0
LINE
  8
150
 10
2.903189
 20
3.351732
 30
0.000000
 11
2.903189
 21
3.321039
 31
0.000000
  0
LINE
  8
150
 10
2.903189
 20
3.321039
 30
0.000000
 11
2.887843
 21
3.305693
 31
0.000000
  0
LINE
  8
150
 10
2.887843
 20
3.305693
 30
0.000000
 11
2.841803
 21
3.305693
 31
0.000000
  0
LINE
  8
150
 10
2.872496
 20
3.305693
 30
0.000000
 11
2.903189
 21
3.275000
 31
0.000000
  0
LINE
  8
150
 10
2.995268
 20
3.367079
 30
0.000000
 11
2.933882
 21
3.367079
 31
0.000000
  0
LINE
  8
150
 10
2.933882
 20
3.367079
 30
0.000000
 11
2.933882
 21
3.275000
 31
0.000000
  0
LINE
  8
150
 10
2.933882
 20
3.275000
 30
0.000000
 11
2.995268
 21
3.275000
 31
0.000000
  0
LINE
  8
150
 10
2.933882
 20
3.321039
 30
0.000000
 11
2.964575
 21
3.321039
 31
0.000000
  0
LINE
  8
150
 10
3.025961
 20
3.367079
 30
0.000000
 11
3.025961
 21
3.305693
 31
0.000000
  0
LINE
  8
150
 10
3.025961
 20
3.305693
 30
0.000000
 11
3.056653
 21
3.275000
 31
0.000000
  0
LINE
  8
150
 10
3.056653
 20
3.275000
 30
0.000000
 11
3.087346
 21
3.305693
 31
0.000000
  0
LINE
  8
150
 10
3.087346
 20
3.305693
 30
0.000000
 11
3.087346
 21
3.367079
 31
0.000000
  0
LINE
  8
150
 10
3.210118
 20
3.275000
 30
0.000000
 11
3.210118
 21
3.367079
 31
0.000000
  0
LINE
  8
150
 10
3.210118
 20
3.367079
 30
0.000000
 11
3.240811
 21
3.336386
 31
0.000000
  0
LINE
  8
150
 10
3.240811
 20
3.336386
 30
0.000000
 11
3.271503
 21
3.367079
 31
0.000000
  0
LINE
  8
150
 10
3.271503
 20
3.367079
 30
0.000000
 11
3.271503
 21
3.275000
 31
0.000000
  0
LINE
  8
150
 10
15.947803
 20
0.082000
 30
0.000000
 11
15.947803
 21
0.174079
 31
0.000000
  0
LINE
  8
150
 10
15.947803
 20
0.174079
 30
0.000000
 11
15.993843
 21
0.174079
 31
0.000000
  0
LINE
  8
150
 10
15.993843
 20
0.174079
 30
0.000000
 11
16.009189
 21
0.158732
 31
0.000000
  0
LINE
  8
150
 10
16.009189
 20
0.158732
 30
0.000000
 11
16.009189
 21
0.128039
 31
0.000000
  0
LINE
  8
150
 10
16.009189
 20
0.128039
 30
0.000000
 11
15.993843
 21
0.112693
 31
0.000000
  0
LINE
  8
150
 10
15.993843
 20
0.112693
 30
0.000000
 11
15.947803
 21
0.112693
 31
0.000000
  0
LINE
  8
150
 10
15.978496
 20
0.112693
 30
0.000000
 11
16.009189
 21
0.082000
 31
0.000000
  0
LINE
  8
150
 10
16.101268
 20
0.174079
 30
0.000000
 11
16.039882
 21
0.174079
 31
0.000000
  0
LINE
  8
150
 10
16.039882
 20
0.174079
 30
0.000000
 11
16.039882
 21
0.082000
 31
0.000000
  0
LINE
  8
150
 10
16.039882
 20
0.082000
 30
0.000000
 11
16.101268
 21
0.082000
 31
0.000000
  0
LINE
  8
150
 10
16.039882
 20
0.128039
 30
0.000000
 11
16.070575
 21
0.128039
 31
0.000000
  0
LINE
  8
150
 10
16.131961
 20
0.174079
 30
0.000000
 11
16.131961
 21
0.112693
 31
0.000000
  0
LINE
  8
150
 10
16.131961
 20
0.112693
 30
0.000000
 11
16.162653
 21
0.082000
 31
0.000000
  0
LINE
  8
150
 10
16.162653
 20
0.082000
 30
0.000000
 11
16.193346
 21
0.112693
 31
0.000000
  0
LINE
  8
150
 10
16.193346
 20
0.112693
 30
0.000000
 11
16.193346
 21
0.174079
 31
0.000000
  0
LINE
  8
150
 10
16.316118
 20
0.082000
 30
0.000000
 11
16.316118
 21
0.174079
 31
0.000000
  0
LINE
  8
150
 10
16.316118
 20
0.174079
 30
0.000000
 11
16.346811
 21
0.143386
 31
0.000000
  0
LINE
  8
150
 10
16.346811
 20
0.143386
 30
0.000000
 11
16.377503
 21
0.174079
 31
0.000000
  0
LINE
  8
150
 10
16.377503
 20
0.174079
 30
0.000000
 11
16.377503
 21
0.082000
 31
0.000000
  0
LINE
  8
150
 10
14.145803
 20
0.069000
 30
0.000000
 11
14.145803
 21
0.161079
 31
0.000000
  0
LINE
  8
150
 10
14.145803
 20
0.161079
 30
0.000000
 11
14.191843
 21
0.161079
 31
0.000000
  0
LINE
  8
150
 10
14.191843
 20
0.161079
 30
0.000000
 11
14.207189
 21
0.145732
 31
0.000000
  0
LINE
  8
150
 10
14.207189
 20
0.145732
 30
0.000000
 11
14.207189
 21
0.115039
 31
0.000000
  0
LINE
  8
150
 10
14.207189
 20
0.115039
 30
0.000000
 11
14.191843
 21
0.099693
 31
0.000000
  0
LINE
  8
150
 10
14.191843
 20
0.099693
 30
0.000000
 11
14.145803
 21
0.099693
 31
0.000000
  0
LINE
  8
150
 10
14.176496
 20
0.099693
 30
0.000000
 11
14.207189
 21
0.069000
 31
0.000000
  0
LINE
  8
150
 10
14.299268
 20
0.161079
 30
0.000000
 11
14.237882
 21
0.161079
 31
0.000000
  0
LINE
  8
150
 10
14.237882
 20
0.161079
 30
0.000000
 11
14.237882
 21
0.069000
 31
0.000000
  0
LINE
  8
150
 10
14.237882
 20
0.069000
 30
0.000000
 11
14.299268
 21
0.069000
 31
0.000000
  0
LINE
  8
150
 10
14.237882
 20
0.115039
 30
0.000000
 11
14.268575
 21
0.115039
 31
0.000000
  0
LINE
  8
150
 10
14.329961
 20
0.161079
 30
0.000000
 11
14.329961
 21
0.099693
 31
0.000000
  0
LINE
  8
150
 10
14.329961
 20
0.099693
 30
0.000000
 11
14.360653
 21
0.069000
 31
0.000000
  0
LINE
  8
150
 10
14.360653
 20
0.069000
 30
0.000000
 11
14.391346
 21
0.099693
 31
0.000000
  0
LINE
  8
150
 10
14.391346
 20
0.099693
 30
0.000000
 11
14.391346
 21
0.161079
 31
0.000000
  0
LINE
  8
150
 10
14.514118
 20
0.069000
 30
0.000000
 11
14.514118
 21
0.161079
 31
0.000000
  0
LINE
  8
150
 10
14.514118
 20
0.161079
 30
0.000000
 11
14.544811
 21
0.130386
 31
0.000000
  0
LINE
  8
150
 10
14.544811
 20
0.130386
 30
0.000000
 11
14.575503
 21
0.161079
 31
0.000000
  0
LINE
  8
150
 10
14.575503
 20
0.161079
 30
0.000000
 11
14.575503
 21
0.069000
 31
0.000000
  0
LINE
  8
150
 10
18.095197
 20
5.707000
 30
0.000000
 11
18.095197
 21
5.614921
 31
0.000000
  0
LINE
  8
150
 10
18.095197
 20
5.614921
 30
0.000000
 11
18.049157
 21
5.614921
 31
0.000000
  0
LINE
  8
150
 10
18.049157
 20
5.614921
 30
0.000000
 11
18.033811
 21
5.630268
 31
0.000000
  0
LINE
  8
150
 10
18.033811
 20
5.630268
 30
0.000000
 11
18.033811
 21
5.660961
 31
0.000000
  0
LINE
  8
150
 10
18.033811
 20
5.660961
 30
0.000000
 11
18.049157
 21
5.676307
 31
0.000000
  0
LINE
  8
150
 10
18.049157
 20
5.676307
 30
0.000000
 11
18.095197
 21
5.676307
 31
0.000000
  0
LINE
  8
150
 10
18.064504
 20
5.676307
 30
0.000000
 11
18.033811
 21
5.707000
 31
0.000000
  0
LINE
  8
150
 10
17.941732
 20
5.614921
 30
0.000000
 11
18.003118
 21
5.614921
 31
0.000000
  0
LINE
  8
150
 10
18.003118
 20
5.614921
 30
0.000000
 11
18.003118
 21
5.707000
 31
0.000000
  0
LINE
  8
150
 10
18.003118
 20
5.707000
 30
0.000000
 11
17.941732
 21
5.707000
 31
0.000000
  0
LINE
  8
150
 10
18.003118
 20
5.660961
 30
0.000000
 11
17.972425
 21
5.660961
 31
0.000000
  0
LINE
  8
150
 10
17.911039
 20
5.614921
 30
0.000000
 11
17.911039
 21
5.676307
 31
0.000000
  0
LINE
  8
150
 10
17.911039
 20
5.676307
 30
0.000000
 11
17.880347
 21
5.707000
 31
0.000000
  0
LINE
  8
150
 10
17.880347
 20
5.707000
 30
0.000000
 11
17.849654
 21
5.676307
 31
0.000000
  0
LINE
  8
150
 10
17.849654
 20
5.676307
 30
0.000000
 11
17.849654
 21
5.614921
 31
0.000000
  0
LINE
  8
150
 10
17.726882
 20
5.707000
 30
0.000000
 11
17.726882
 21
5.614921
 31
0.000000
  0
LINE
  8
150
 10
17.726882
 20
5.614921
 30
0.000000
 11
17.696189
 21
5.645614
 31
0.000000
  0
LINE
  8
150
 10
17.696189
 20
5.645614
 30
0.000000
 11
17.665497
 21
5.614921
 31
0.000000
  0
LINE
  8
150
 10
17.665497
 20
5.614921
 30
0.000000
 11
17.665497
 21
5.707000
 31
0.000000
  0
LINE
  8
150
 10
19.191803
 20
0.329000
 30
0.000000
 11
19.191803
 21
0.421079
 31
0.000000
  0
LINE
  8
150
 10
19.191803
 20
0.421079
 30
0.000000
 11
19.237843
 21
0.421079
 31
0.000000
  0
LINE
  8
150
 10
19.237843
 20
0.421079
 30
0.000000
 11
19.253189
 21
0.405732
 31
0.000000
  0
LINE
  8
150
 10
19.253189
 20
0.405732
 30
0.000000
 11
19.253189
 21
0.375039
 31
0.000000
  0
LINE
  8
150
 10
19.253189
 20
0.375039
 30
0.000000
 11
19.237843
 21
0.359693
 31
0.000000
  0
LINE
  8
150
 10
19.237843
 20
0.359693
 30
0.000000
 11
19.191803
 21
0.359693
 31
0.000000
  0
LINE
  8
150
 10
19.222496
 20
0.359693
 30
0.000000
 11
19.253189
 21
0.329000
 31
0.000000
  0
LINE
  8
150
 10
19.345268
 20
0.421079
 30
0.000000
 11
19.283882
 21
0.421079
 31
0.000000
  0
LINE
  8
150
 10
19.283882
 20
0.421079
 30
0.000000
 11
19.283882
 21
0.329000
 31
0.000000
  0
LINE
  8
150
 10
19.283882
 20
0.329000
 30
0.000000
 11
19.345268
 21
0.329000
 31
0.000000
  0
LINE
  8
150
 10
19.283882
 20
0.375039
 30
0.000000
 11
19.314575
 21
0.375039
 31
0.000000
  0
LINE
  8
150
 10
19.375961
 20
0.421079
 30
0.000000
 11
19.375961
 21
0.359693
 31
0.000000
  0
LINE
  8
150
 10
19.375961
 20
0.359693
 30
0.000000
 11
19.406653
 21
0.329000
 31
0.000000
  0
LINE
  8
150
 10
19.406653
 20
0.329000
 30
0.000000
 11
19.437346
 21
0.359693
 31
0.000000
  0
LINE
  8
150
 10
19.437346
 20
0.359693
 30
0.000000
 11
19.437346
 21
0.421079
 31
0.000000
  0
LINE
  8
150
 10
19.560118
 20
0.329000
 30
0.000000
 11
19.560118
 21
0.421079
 31
0.000000
  0
LINE
  8
150
 10
19.560118
 20
0.421079
 30
0.000000
 11
19.590811
 21
0.390386
 31
0.000000
  0
LINE
  8
150
 10
19.590811
 20
0.390386
 30
0.000000
 11
19.621503
 21
0.421079
 31
0.000000
  0
LINE
  8
150
 10
19.621503
 20
0.421079
 30
0.000000
 11
19.621503
 21
0.329000
 31
0.000000
  0
LINE
  8
150
 10
21.249197
 20
5.728000
 30
0.000000
 11
21.249197
 21
5.635921
 31
0.000000
  0
LINE
  8
150
 10
21.249197
 20
5.635921
 30
0.000000
 11
21.203157
 21
5.635921
 31
0.000000
  0
LINE
  8
150
 10
21.203157
 20
5.635921
 30
0.000000
 11
21.187811
 21
5.651268
 31
0.000000
  0
LINE
  8
150
 10
21.187811
 20
5.651268
 30
0.000000
 11
21.187811
 21
5.681961
 31
0.000000
  0
LINE
  8
150
 10
21.187811
 20
5.681961
 30
0.000000
 11
21.203157
 21
5.697307
 31
0.000000
  0
LINE
  8
150
 10
21.203157
 20
5.697307
 30
0.000000
 11
21.249197
 21
5.697307
 31
0.000000
  0
LINE
  8
150
 10
21.218504
 20
5.697307
 30
0.000000
 11
21.187811
 21
5.728000
 31
0.000000
  0
LINE
  8
150
 10
21.095732
 20
5.635921
 30
0.000000
 11
21.157118
 21
5.635921
 31
0.000000
  0
LINE
  8
150
 10
21.157118
 20
5.635921
 30
0.000000
 11
21.157118
 21
5.728000
 31
0.000000
  0
LINE
  8
150
 10
21.157118
 20
5.728000
 30
0.000000
 11
21.095732
 21
5.728000
 31
0.000000
  0
LINE
  8
150
 10
21.157118
 20
5.681961
 30
0.000000
 11
21.126425
 21
5.681961
 31
0.000000
  0
LINE
  8
150
 10
21.065039
 20
5.635921
 30
0.000000
 11
21.065039
 21
5.697307
 31
0.000000
  0
LINE
  8
150
 10
21.065039
 20
5.697307
 30
0.000000
 11
21.034347
 21
5.728000
 31
0.000000
  0
LINE
  8
150
 10
21.034347
 20
5.728000
 30
0.000000
 11
21.003654
 21
5.697307
 31
0.000000
  0
LINE
  8
150
 10
21.003654
 20
5.697307
 30
0.000000
 11
21.003654
 21
5.635921
 31
0.000000
  0
LINE
  8
150
 10
20.880882
 20
5.728000
 30
0.000000
 11
20.880882
 21
5.635921
 31
0.000000
  0
LINE
  8
150
 10
20.880882
 20
5.635921
 30
0.000000
 11
20.850189
 21
5.666614
 31
0.000000
  0
LINE
  8
150
 10
20.850189
 20
5.666614
 30
0.000000
 11
20.819497
 21
5.635921
 31
0.000000
  0
LINE
  8
150
 10
20.819497
 20
5.635921
 30
0.000000
 11
20.819497
 21
5.728000
 31
0.000000
  0
LINE
  8
150
 10
13.454000
 20
0.096803
 30
0.000000
 11
13.361921
 21
0.096803
 31
0.000000
  0
LINE
  8
150
 10
13.361921
 20
0.096803
 30
0.000000
 11
13.361921
 21
0.142843
 31
0.000000
  0
LINE
  8
150
 10
13.361921
 20
0.142843
 30
0.000000
 11
13.377268
 21
0.158189
 31
0.000000
  0
LINE
  8
150
 10
13.377268
 20
0.158189
 30
0.000000
 11
13.407961
 21
0.158189
 31
0.000000
  0
LINE
  8
150
 10
13.407961
 20
0.158189
 30
0.000000
 11
13.423307
 21
0.142843
 31
0.000000
  0
LINE
  8
150
 10
13.423307
 20
0.142843
 30
0.000000
 11
13.423307
 21
0.096803
 31
0.000000
  0
LINE
  8
150
 10
13.423307
 20
0.127496
 30
0.000000
 11
13.454000
 21
0.158189
 31
0.000000
  0
LINE
  8
150
 10
13.361921
 20
0.250268
 30
0.000000
 11
13.361921
 21
0.188882
 31
0.000000
  0
LINE
  8
150
 10
13.361921
 20
0.188882
 30
0.000000
 11
13.454000
 21
0.188882
 31
0.000000
  0
LINE
  8
150
 10
13.454000
 20
0.188882
 30
0.000000
 11
13.454000
 21
0.250268
 31
0.000000
  0
LINE
  8
150
 10
13.407961
 20
0.188882
 30
0.000000
 11
13.407961
 21
0.219575
 31
0.000000
  0
LINE
  8
150
 10
13.361921
 20
0.280961
 30
0.000000
 11
13.423307
 21
0.280961
 31
0.000000
  0
LINE
  8
150
 10
13.423307
 20
0.280961
 30
0.000000
 11
13.454000
 21
0.311653
 31
0.000000
  0
LINE
  8
150
 10
13.454000
 20
0.311653
 30
0.000000
 11
13.423307
 21
0.342346
 31
0.000000
  0
LINE
  8
150
 10
13.423307
 20
0.342346
 30
0.000000
 11
13.361921
 21
0.342346
 31
0.000000
  0
LINE
  8
150
 10
13.454000
 20
0.465118
 30
0.000000
 11
13.361921
 21
0.465118
 31
0.000000
  0
LINE
  8
150
 10
13.361921
 20
0.465118
 30
0.000000
 11
13.392614
 21
0.495811
 31
0.000000
  0
LINE
  8
150
 10
13.392614
 20
0.495811
 30
0.000000
 11
13.361921
 21
0.526503
 31
0.000000
  0
LINE
  8
150
 10
13.361921
 20
0.526503
 30
0.000000
 11
13.454000
 21
0.526503
 31
0.000000
  0
CIRCLE
  8
161
 10
7.200000
 20
5.885000
 30
0.000000
 40
0.065000
  0
CIRCLE
  8
161
 10
12.650000
 20
5.885000
 30
0.000000
 40
0.065000
  0
CIRCLE
  8
161
 10
12.650000
 20
0.435000
 30
0.000000
 40
0.065000
  0
CIRCLE
  8
161
 10
7.200000
 20
0.435000
 30
0.000000
 40
0.065000
  0
CIRCLE
  8
161
 10
6.550000
 20
3.150000
 30
0.000000
 40
0.125000
  0
CIRCLE
  8
161
 10
6.550000
 20
5.155000
 30
0.000000
 40
0.125000
  0
CIRCLE
  8
161
 10
6.550000
 20
1.155000
 30
0.000000
 40
0.125000
  0
CIRCLE
  8
161
 10
13.300000
 20
3.150000
 30
0.000000
 40
0.125000
  0
CIRCLE
  8
161
 10
13.300000
 20
5.155000
 30
0.000000
 40
0.125000
  0
CIRCLE
  8
161
 10
13.300000
 20
1.155000
 30
0.000000
 40
0.125000
  0
CIRCLE
  8
161
 10
9.050000
 20
3.160000
 30
0.000000
 40
0.065000
  0
CIRCLE
  8
161
 10
10.670000
 20
3.160000
 30
0.000000
 40
0.065000
  0
CIRCLE
  8
161
 10
16.030000
 20
0.885000
 30
0.000000
 40
0.255000
  0
CIRCLE
  8
161
 10
16.020000
 20
5.135000
 30
0.000000
 40
0.200000
  0
CIRCLE
  8
161
 10
14.580000
 20
1.315000
 30
0.000000
 40
0.255000
  0
CIRCLE
  8
161
 10
14.580000
 20
2.350000
 30
0.000000
 40
0.255000
  0
CIRCLE
  8
161
 10
14.580000
 20
3.385000
 30
0.000000
 40
0.255000
  0
CIRCLE
  8
161
 10
14.580000
 20
4.420000
 30
0.000000
 40
0.255000
  0
CIRCLE
  8
161
 10
14.580000
 20
5.455000
 30
0.000000
 40
0.255000
  0
CIRCLE
  8
161
 10
0.425000
 20
5.880000
 30
0.000000
 40
0.065000
  0
CIRCLE
  8
161
 10
5.875000
 20
5.880000
 30
0.000000
 40
0.065000
  0
CIRCLE
  8
161
 10
5.875000
 20
0.430000
 30
0.000000
 40
0.065000
  0
CIRCLE
  8
161
 10
0.425000
 20
0.430000
 30
0.000000
 40
0.065000
  0
CIRCLE
  8
161
 10
4.295000
 20
4.285000
 30
0.000000
 40
0.060000
  0
CIRCLE
  8
161
 10
17.995000
 20
0.789000
 30
0.000000
 40
0.105000
  0
CIRCLE
  8
161
 10
17.995000
 20
1.773000
 30
0.000000
 40
0.105000
  0
CIRCLE
  8
161
 10
17.990000
 20
3.390000
 30
0.000000
 40
0.105000
  0
CIRCLE
  8
161
 10
17.990000
 20
4.374000
 30
0.000000
 40
0.105000
  0
CIRCLE
  8
161
 10
17.945000
 20
4.857000
 30
0.000000
 40
0.250000
  0
CIRCLE
  8
161
 10
17.990000
 20
2.090000
 30
0.000000
 40
0.105000
  0
CIRCLE
  8
161
 10
17.990000
 20
3.074000
 30
0.000000
 40
0.105000
  0
CIRCLE
  8
161
 10
19.221000
 20
5.272000
 30
0.000000
 40
0.105000
  0
CIRCLE
  8
161
 10
19.221000
 20
4.288000
 30
0.000000
 40
0.105000
  0
CIRCLE
  8
161
 10
19.226000
 20
2.671000
 30
0.000000
 40
0.105000
  0
CIRCLE
  8
161
 10
19.226000
 20
1.687000
 30
0.000000
 40
0.105000
  0
CIRCLE
  8
161
 10
19.271000
 20
1.204000
 30
0.000000
 40
0.255000
  0
CIRCLE
  8
161
 10
19.271000
 20
3.854000
 30
0.000000
 40
0.250000
  0
CIRCLE
  8
161
 10
21.191000
 20
3.801000
 30
0.000000
 40
0.255000
  0
ENDSEC
  0
EOF
