  0
SECTION
  2
HEADER
  9
$ACADVER
  1
AC1009
  9
$FILLMODE
 70
0
  9
$EXTMIN
 10
0.361000
 20
0.092000
 30
0.000000
  9
$EXTMAX
 10
3.727000
 20
6.342000
 30
0.000000
  0
ENDSEC
  0
SECTION
  2
TABLES
  0
TABLE
  2
LTYPE
 70
1
  0
LTYPE
  2
CONTINUOUS
 70
64
  3
Solid line
 72
65
 73
0
 40
0
  0
ENDTAB
  0
TABLE
  2
LAYER
 70
255
  0
LAYER
  2
1
 70
64
 62
14
  6
CONTINUOUS
  0
LAYER
  2
16
 70
64
 62
174
  6
CONTINUOUS
  0
LAYER
  2
17
 70
64
 62
94
  6
CONTINUOUS
  0
LAYER
  2
18
 70
64
 62
94
  6
CONTINUOUS
  0
LAYER
  2
19
 70
64
 62
54
  6
CONTINUOUS
  0
LAYER
  2
20
 70
64
 62
178
  6
CONTINUOUS
  0
LAYER
  2
21
 70
64
 62
250
  6
CONTINUOUS
  0
LAYER
  2
22
 70
64
 62
250
  6
CONTINUOUS
  0
LAYER
  2
23
 70
64
 62
178
  6
CONTINUOUS
  0
LAYER
  2
24
 70
64
 62
178
  6
CONTINUOUS
  0
LAYER
  2
25
 70
64
 62
250
  6
CONTINUOUS
  0
LAYER
  2
26
 70
64
 62
250
  6
CONTINUOUS
  0
LAYER
  2
27
 70
64
 62
250
  6
CONTINUOUS
  0
LAYER
  2
28
 70
64
 62
250
  6
CONTINUOUS
  0
LAYER
  2
39
 70
64
 62
14
  6
CONTINUOUS
  0
LAYER
  2
40
 70
64
 62
174
  6
CONTINUOUS
  0
LAYER
  2
41
 70
64
 62
14
  6
CONTINUOUS
  0
LAYER
  2
42
 70
64
 62
174
  6
CONTINUOUS
  0
LAYER
  2
43
 70
64
 62
94
  6
CONTINUOUS
  0
LAYER
  2
48
 70
64
 62
250
  6
CONTINUOUS
  0
LAYER
  2
49
 70
64
 62
250
  6
CONTINUOUS
  0
LAYER
  2
51
 70
64
 62
250
  6
CONTINUOUS
  0
LAYER
  2
52
 70
64
 62
250
  6
CONTINUOUS
  0
LAYER
  2
150
 70
64
 62
5
  6
CONTINUOUS
  0
LAYER
  2
160
 70
64
 62
94
  6
CONTINUOUS
  0
ENDTAB
  0
ENDSEC
  0
SECTION
  2
BLOCKS
  0
BLOCK
  8
0
  2
RECT
 70
64
 10
0.000000
 20
0.000000
 30
0.000000
  3
RECT
  0
SOLID
  8
0
 10
-0.500000
 20
-0.500000
 30
0.000000
 11
0.500000
 21
-0.500000
 31
0.000000
 12
-0.500000
 22
0.500000
 32
0.000000
 13
0.500000
 23
0.500000
 33
0.000000
  0
ENDBLK
  8
0
  0
BLOCK
  8
0
  2
PIE
 70
64
 10
0.000000
 20
0.000000
 30
0.000000
  3
PIE
  0
CIRCLE
  8
0
 10
0.000000
 20
0.000000
 30
0.000000
 40
0.500000
  0
ENDBLK
  8
0
  0
BLOCK
  8
0
  2
OCTAGONP
 70
64
 10
0.000000
 20
0.000000
 30
0.000000
  3
OCTAGONP
  0
POLYLINE
  8
0
 66
1
 10
0.000000
 20
0.000000
 30
0.000000
 40
0.000000
 41
0.000000
 70
1
  0
VERTEX
  8
0
 10
-0.500000
 20
-0.207107
 30
0.000000
  0
VERTEX
  8
0
 10
-0.500000
 20
0.207107
 30
0.000000
  0
VERTEX
  8
0
 10
-0.207107
 20
0.500000
 30
0.000000
  0
VERTEX
  8
0
 10
0.207107
 20
0.500000
 30
0.000000
  0
VERTEX
  8
0
 10
0.500000
 20
0.207107
 30
0.000000
  0
VERTEX
  8
0
 10
0.500000
 20
-0.207107
 30
0.000000
  0
VERTEX
  8
0
 10
0.207107
 20
-0.500000
 30
0.000000
  0
VERTEX
  8
0
 10
-0.207107
 20
-0.500000
 30
0.000000
  0
SEQEND
  8
0
  0
ENDBLK
  8
0
  0
BLOCK
  8
0
  2
SQUAREP
 70
64
 10
0.000000
 20
0.000000
 30
0.000000
  3
SQUAREP
  0
SOLID
  8
0
 10
-0.500000
 20
-0.500000
 30
0.000000
 11
0.500000
 21
-0.500000
 31
0.000000
 12
-0.500000
 22
0.500000
 32
0.000000
 13
0.500000
 23
0.500000
 33
0.000000
  0
ENDBLK
  8
0
  0
BLOCK
  8
0
  2
ROUNDP
 70
64
 10
0.000000
 20
0.000000
 30
0.000000
  3
ROUNDP
  0
CIRCLE
  8
0
 10
0.000000
 20
0.000000
 30
0.000000
 40
0.500000
  0
ENDBLK
  8
0
  0
BLOCK
  8
0
  2
ANNULUSP
 70
64
 10
0.000000
 20
0.000000
 30
0.000000
  3
ANNULUSP
  0
CIRCLE
  8
0
 10
0.000000
 20
0.000000
 30
0.000000
 40
0.500000
  0
ENDBLK
  8
0
  0
BLOCK
  8
0
  2
THERMALP
 70
64
 10
0.000000
 20
0.000000
 30
0.000000
  3
THERMALP
  0
LINE
  8
0
 10
-0.237868
 20
0.450000
 30
0.000000
 11
0.237868
 21
0.450000
 31
0.000000
  0
LINE
  8
0
 10
0.450000
 20
0.237868
 30
0.000000
 11
0.450000
 21
-0.237868
 31
0.000000
  0
LINE
  8
0
 10
0.237868
 20
-0.450000
 30
0.000000
 11
-0.237868
 21
-0.450000
 31
0.000000
  0
LINE
  8
0
 10
-0.450000
 20
-0.237868
 30
0.000000
 11
-0.450000
 21
0.237868
 31
0.000000
  0
ENDBLK
  8
0
  0
BLOCK
  8
0
  2
OCTAGONV
 70
64
 10
0.000000
 20
0.000000
 30
0.000000
  3
OCTAGONV
  0
POLYLINE
  8
0
 66
1
 10
0.000000
 20
0.000000
 30
0.000000
 40
0.000000
 41
0.000000
 70
1
  0
VERTEX
  8
0
 10
-0.500000
 20
-0.207107
 30
0.000000
  0
VERTEX
  8
0
 10
-0.500000
 20
0.207107
 30
0.000000
  0
VERTEX
  8
0
 10
-0.207107
 20
0.500000
 30
0.000000
  0
VERTEX
  8
0
 10
0.207107
 20
0.500000
 30
0.000000
  0
VERTEX
  8
0
 10
0.500000
 20
0.207107
 30
0.000000
  0
VERTEX
  8
0
 10
0.500000
 20
-0.207107
 30
0.000000
  0
VERTEX
  8
0
 10
0.207107
 20
-0.500000
 30
0.000000
  0
VERTEX
  8
0
 10
-0.207107
 20
-0.500000
 30
0.000000
  0
SEQEND
  8
0
  0
ENDBLK
  8
0
  0
BLOCK
  8
0
  2
SQUAREV
 70
64
 10
0.000000
 20
0.000000
 30
0.000000
  3
SQUAREV
  0
SOLID
  8
0
 10
-0.500000
 20
-0.500000
 30
0.000000
 11
0.500000
 21
-0.500000
 31
0.000000
 12
-0.500000
 22
0.500000
 32
0.000000
 13
0.500000
 23
0.500000
 33
0.000000
  0
ENDBLK
  8
0
  0
BLOCK
  8
0
  2
ROUNDV
 70
64
 10
0.000000
 20
0.000000
 30
0.000000
  3
ROUNDV
  0
CIRCLE
  8
0
 10
0.000000
 20
0.000000
 30
0.000000
 40
0.500000
  0
ENDBLK
  8
0
  0
BLOCK
  8
0
  2
ANNULUSV
 70
64
 10
0.000000
 20
0.000000
 30
0.000000
  3
ANNULUSV
  0
CIRCLE
  8
0
 10
0.000000
 20
0.000000
 30
0.000000
 40
0.500000
  0
ENDBLK
  8
0
  0
BLOCK
  8
0
  2
THERMALV
 70
64
 10
0.000000
 20
0.000000
 30
0.000000
  3
THERMALV
  0
LINE
  8
0
 10
-0.237868
 20
0.450000
 30
0.000000
 11
0.237868
 21
0.450000
 31
0.000000
  0
LINE
  8
0
 10
0.450000
 20
0.237868
 30
0.000000
 11
0.450000
 21
-0.237868
 31
0.000000
  0
LINE
  8
0
 10
0.237868
 20
-0.450000
 30
0.000000
 11
-0.237868
 21
-0.450000
 31
0.000000
  0
LINE
  8
0
 10
-0.450000
 20
-0.237868
 30
0.000000
 11
-0.450000
 21
0.237868
 31
0.000000
  0
ENDBLK
  8
0
  0
ENDSEC
  0
SECTION
  2
ENTITIES
  0
LINE
  8
160
 10
2.106000
 20
0.342000
 30
0.000000
 11
2.106000
 21
0.592000
 31
0.000000
  0
LINE
  8
160
 10
2.106000
 20
0.592000
 30
0.000000
 11
1.981000
 21
0.592000
 31
0.000000
  0
LINE
  8
160
 10
1.981000
 20
0.592000
 30
0.000000
 11
1.981000
 21
2.338000
 31
0.000000
  0
LINE
  8
160
 10
1.981000
 20
3.342000
 30
0.000000
 11
1.981000
 21
5.587000
 31
0.000000
  0
LINE
  8
160
 10
2.106000
 20
5.837000
 30
0.000000
 11
2.106000
 21
6.092000
 31
0.000000
  0
LINE
  8
160
 10
2.106000
 20
6.092000
 30
0.000000
 11
1.981000
 21
6.092000
 31
0.000000
  0
LINE
  8
160
 10
1.981000
 20
6.092000
 30
0.000000
 11
1.981000
 21
6.342000
 31
0.000000
  0
LINE
  8
160
 10
1.981000
 20
6.342000
 30
0.000000
 11
0.486000
 21
6.342000
 31
0.000000
  0
LINE
  8
160
 10
0.486000
 20
6.342000
 30
0.000000
 11
0.486000
 21
6.092000
 31
0.000000
  0
LINE
  8
160
 10
0.486000
 20
6.092000
 30
0.000000
 11
0.361000
 21
6.092000
 31
0.000000
  0
LINE
  8
160
 10
0.361000
 20
5.842000
 30
0.000000
 11
0.486000
 21
5.842000
 31
0.000000
  0
LINE
  8
160
 10
0.486000
 20
5.842000
 30
0.000000
 11
0.486000
 21
3.342000
 31
0.000000
  0
LINE
  8
160
 10
0.487000
 20
3.092000
 30
0.000000
 11
0.486000
 21
0.592000
 31
0.000000
  0
LINE
  8
160
 10
0.486000
 20
0.592000
 30
0.000000
 11
0.361000
 21
0.592000
 31
0.000000
  0
LINE
  8
160
 10
0.361000
 20
0.342000
 30
0.000000
 11
0.486000
 21
0.342000
 31
0.000000
  0
LINE
  8
160
 10
0.486000
 20
0.342000
 30
0.000000
 11
0.486000
 21
0.092000
 31
0.000000
  0
LINE
  8
160
 10
0.486000
 20
0.092000
 30
0.000000
 11
1.981000
 21
0.092000
 31
0.000000
  0
LINE
  8
160
 10
0.741000
 20
3.342000
 30
0.000000
 11
1.086000
 21
3.342000
 31
0.000000
  0
LINE
  8
160
 10
1.086000
 20
3.342000
 30
0.000000
 11
1.086000
 21
3.842000
 31
0.000000
  0
LINE
  8
160
 10
1.086000
 20
3.842000
 30
0.000000
 11
0.741000
 21
3.842000
 31
0.000000
  0
LINE
  8
160
 10
0.741000
 20
3.842000
 30
0.000000
 11
0.741000
 21
3.597000
 31
0.000000
  0
LINE
  8
160
 10
1.981000
 20
3.342000
 30
0.000000
 11
2.106000
 21
3.342000
 31
0.000000
  0
LINE
  8
160
 10
2.106000
 20
3.342000
 30
0.000000
 11
2.106000
 21
3.088000
 31
0.000000
  0
LINE
  8
160
 10
0.487000
 20
3.092000
 30
0.000000
 11
0.361000
 21
3.092000
 31
0.000000
  0
LINE
  8
160
 10
0.361000
 20
3.342000
 30
0.000000
 11
0.486000
 21
3.342000
 31
0.000000
  0
LINE
  8
160
 10
1.951000
 20
1.039000
 30
0.000000
 11
1.951000
 21
0.845000
 31
0.000000
  0
ARC
  8
160
 10
1.716821
 20
0.942000
 30
0.000000
 40
0.253473
 50
22.500000
 51
337.500000
  0
LINE
  8
160
 10
0.741000
 20
3.592000
 30
0.000000
 11
0.741000
 21
3.342000
 31
0.000000
  0
LINE
  8
160
 10
1.191000
 20
4.117000
 30
0.000000
 11
1.516000
 21
4.117000
 31
0.000000
  0
LINE
  8
160
 10
1.516000
 20
4.117000
 30
0.000000
 11
1.516000
 21
4.617000
 31
0.000000
  0
LINE
  8
160
 10
1.516000
 20
4.617000
 30
0.000000
 11
1.191000
 21
4.617000
 31
0.000000
  0
LINE
  8
160
 10
1.191000
 20
4.617000
 30
0.000000
 11
1.191000
 21
4.117000
 31
0.000000
  0
LINE
  8
160
 10
1.191000
 20
3.172000
 30
0.000000
 11
1.191000
 21
2.517000
 31
0.000000
  0
LINE
  8
160
 10
1.191000
 20
2.517000
 30
0.000000
 11
1.806000
 21
2.517000
 31
0.000000
  0
LINE
  8
160
 10
1.806000
 20
2.517000
 30
0.000000
 11
1.806000
 21
3.172000
 31
0.000000
  0
LINE
  8
160
 10
1.806000
 20
3.172000
 30
0.000000
 11
1.191000
 21
3.172000
 31
0.000000
  0
LINE
  8
160
 10
0.741000
 20
3.592000
 30
0.000000
 11
0.741000
 21
3.597000
 31
0.000000
  0
LINE
  8
160
 10
0.361000
 20
0.342000
 30
0.000000
 11
0.361000
 21
0.592000
 31
0.000000
  0
LINE
  8
160
 10
0.361000
 20
5.842000
 30
0.000000
 11
0.361000
 21
6.092000
 31
0.000000
  0
LINE
  8
160
 10
0.361000
 20
3.342000
 30
0.000000
 11
0.361000
 21
3.092000
 31
0.000000
  0
LINE
  8
160
 10
3.726000
 20
0.338000
 30
0.000000
 11
3.601000
 21
0.338000
 31
0.000000
  0
LINE
  8
160
 10
1.981000
 20
0.092000
 30
0.000000
 11
1.981000
 21
0.342000
 31
0.000000
  0
LINE
  8
160
 10
1.981000
 20
0.342000
 30
0.000000
 11
2.106000
 21
0.342000
 31
0.000000
  0
LINE
  8
160
 10
2.106000
 20
0.592000
 30
0.000000
 11
2.106000
 21
2.337000
 31
0.000000
  0
LINE
  8
160
 10
2.106000
 20
3.342000
 30
0.000000
 11
2.106000
 21
5.587000
 31
0.000000
  0
LINE
  8
160
 10
2.106000
 20
5.587000
 30
0.000000
 11
1.981000
 21
5.587000
 31
0.000000
  0
LINE
  8
160
 10
1.981000
 20
5.587000
 30
0.000000
 11
1.981000
 21
5.837000
 31
0.000000
  0
LINE
  8
160
 10
1.981000
 20
5.837000
 30
0.000000
 11
2.106000
 21
5.837000
 31
0.000000
  0
LINE
  8
160
 10
2.106000
 20
5.837000
 30
0.000000
 11
3.727000
 21
5.837000
 31
0.000000
  0
LINE
  8
160
 10
3.727000
 20
5.836000
 30
0.000000
 11
3.727000
 21
5.587000
 31
0.000000
  0
LINE
  8
160
 10
3.727000
 20
5.587000
 30
0.000000
 11
3.601000
 21
5.587000
 31
0.000000
  0
LINE
  8
160
 10
3.601000
 20
5.587000
 30
0.000000
 11
3.601000
 21
3.338000
 31
0.000000
  0
LINE
  8
160
 10
3.601000
 20
2.837000
 30
0.000000
 11
3.601000
 21
0.588000
 31
0.000000
  0
LINE
  8
160
 10
3.726000
 20
0.338000
 30
0.000000
 11
3.726000
 21
0.092000
 31
0.000000
  0
LINE
  8
160
 10
3.726000
 20
0.092000
 30
0.000000
 11
1.981000
 21
0.092000
 31
0.000000
  0
LINE
  8
160
 10
2.106000
 20
3.088000
 30
0.000000
 11
1.981000
 21
3.088000
 31
0.000000
  0
LINE
  8
160
 10
1.981000
 20
3.088000
 30
0.000000
 11
1.981000
 21
2.338000
 31
0.000000
  0
LINE
  8
160
 10
1.981000
 20
2.338000
 30
0.000000
 11
2.106000
 21
2.337000
 31
0.000000
  0
LINE
  8
160
 10
3.601000
 20
2.837000
 30
0.000000
 11
3.727000
 21
2.837000
 31
0.000000
  0
LINE
  8
160
 10
3.727000
 20
2.837000
 30
0.000000
 11
3.727000
 21
3.087000
 31
0.000000
  0
LINE
  8
160
 10
2.992000
 20
0.940000
 30
0.000000
 11
3.149000
 21
0.972000
 31
0.000000
  0
LINE
  8
160
 10
3.008000
 20
1.737000
 30
0.000000
 11
3.145000
 21
1.708000
 31
0.000000
  0
LINE
  8
160
 10
2.841000
 20
1.067000
 30
0.000000
 11
2.841000
 21
1.609000
 31
0.000000
  0
LINE
  8
160
 10
3.261000
 20
1.102000
 30
0.000000
 11
3.261000
 21
1.574000
 31
0.000000
  0
ARC
  8
160
 10
2.980575
 20
1.600057
 30
0.000000
 40
0.139862
 50
78.273828
 51
176.334066
  0
ARC
  8
160
 10
2.967180
 20
1.063351
 30
0.000000
 40
0.126233
 50
178.343538
 51
282.266872
  0
ARC
  8
160
 10
3.124675
 20
1.106203
 30
0.000000
 40
0.136390
 50
280.273783
 51
358.233952
  0
ARC
  8
160
 10
3.115089
 20
1.564898
 30
0.000000
 40
0.146195
 50
3.569659
 51
78.193962
  0
LINE
  8
160
 10
2.987000
 20
3.541000
 30
0.000000
 11
3.144000
 21
3.573000
 31
0.000000
  0
LINE
  8
160
 10
3.003000
 20
4.338000
 30
0.000000
 11
3.140000
 21
4.309000
 31
0.000000
  0
LINE
  8
160
 10
2.836000
 20
3.668000
 30
0.000000
 11
2.836000
 21
4.210000
 31
0.000000
  0
LINE
  8
160
 10
3.256000
 20
3.703000
 30
0.000000
 11
3.256000
 21
4.175000
 31
0.000000
  0
ARC
  8
160
 10
2.975575
 20
4.201057
 30
0.000000
 40
0.139862
 50
78.273828
 51
176.334066
  0
ARC
  8
160
 10
2.962180
 20
3.664351
 30
0.000000
 40
0.126233
 50
178.343538
 51
282.266872
  0
ARC
  8
160
 10
3.119675
 20
3.707203
 30
0.000000
 40
0.136390
 50
280.273783
 51
358.233952
  0
ARC
  8
160
 10
3.110089
 20
4.165898
 30
0.000000
 40
0.146195
 50
3.569659
 51
78.193962
  0
LINE
  8
160
 10
2.136000
 20
4.817000
 30
0.000000
 11
2.136000
 21
5.011000
 31
0.000000
  0
ARC
  8
160
 10
2.370179
 20
4.914000
 30
0.000000
 40
0.253473
 50
202.500000
 51
157.500000
  0
LINE
  8
160
 10
2.987000
 20
2.241000
 30
0.000000
 11
3.144000
 21
2.273000
 31
0.000000
  0
LINE
  8
160
 10
3.003000
 20
3.038000
 30
0.000000
 11
3.140000
 21
3.009000
 31
0.000000
  0
LINE
  8
160
 10
2.836000
 20
2.368000
 30
0.000000
 11
2.836000
 21
2.910000
 31
0.000000
  0
LINE
  8
160
 10
3.256000
 20
2.403000
 30
0.000000
 11
3.256000
 21
2.875000
 31
0.000000
  0
ARC
  8
160
 10
2.975575
 20
2.901057
 30
0.000000
 40
0.139862
 50
78.273828
 51
176.334066
  0
ARC
  8
160
 10
2.962180
 20
2.364351
 30
0.000000
 40
0.126233
 50
178.343538
 51
282.266872
  0
ARC
  8
160
 10
3.119675
 20
2.407203
 30
0.000000
 40
0.136390
 50
280.273783
 51
358.233952
  0
ARC
  8
160
 10
3.110089
 20
2.865898
 30
0.000000
 40
0.146195
 50
3.569659
 51
78.193962
  0
LINE
  8
160
 10
3.602000
 20
5.837000
 30
0.000000
 11
3.727000
 21
5.836000
 31
0.000000
  0
LINE
  8
160
 10
3.601000
 20
0.338000
 30
0.000000
 11
3.601000
 21
0.588000
 31
0.000000
  0
LINE
  8
160
 10
3.727000
 20
5.837000
 30
0.000000
 11
3.727000
 21
5.836000
 31
0.000000
  0
LINE
  8
160
 10
3.601000
 20
3.338000
 30
0.000000
 11
3.601000
 21
3.087000
 31
0.000000
  0
LINE
  8
160
 10
3.601000
 20
3.087000
 30
0.000000
 11
3.727000
 21
3.087000
 31
0.000000
  0
LINE
  8
160
 10
0.741000
 20
2.984000
 30
0.000000
 11
0.901000
 21
2.984000
 31
0.000000
  0
LINE
  8
160
 10
0.901000
 20
2.984000
 30
0.000000
 11
0.901000
 21
2.704000
 31
0.000000
  0
LINE
  8
160
 10
0.901000
 20
2.704000
 30
0.000000
 11
0.741000
 21
2.704000
 31
0.000000
  0
LINE
  8
160
 10
0.741000
 20
2.704000
 30
0.000000
 11
0.741000
 21
2.984000
 31
0.000000
  0
LINE
  8
160
 10
0.741000
 20
1.364000
 30
0.000000
 11
1.141000
 21
1.364000
 31
0.000000
  0
LINE
  8
160
 10
1.141000
 20
1.364000
 30
0.000000
 11
1.141000
 21
2.214000
 31
0.000000
  0
LINE
  8
160
 10
1.141000
 20
2.214000
 30
0.000000
 11
0.741000
 21
2.214000
 31
0.000000
  0
LINE
  8
160
 10
0.741000
 20
2.214000
 30
0.000000
 11
0.741000
 21
1.364000
 31
0.000000
  0
LINE
  8
150
 10
1.003803
 20
0.139000
 30
0.000000
 11
1.003803
 21
0.231079
 31
0.000000
  0
LINE
  8
150
 10
1.003803
 20
0.231079
 30
0.000000
 11
1.049843
 21
0.231079
 31
0.000000
  0
LINE
  8
150
 10
1.049843
 20
0.231079
 30
0.000000
 11
1.065189
 21
0.215732
 31
0.000000
  0
LINE
  8
150
 10
1.065189
 20
0.215732
 30
0.000000
 11
1.065189
 21
0.185039
 31
0.000000
  0
LINE
  8
150
 10
1.065189
 20
0.185039
 30
0.000000
 11
1.049843
 21
0.169693
 31
0.000000
  0
LINE
  8
150
 10
1.049843
 20
0.169693
 30
0.000000
 11
1.003803
 21
0.169693
 31
0.000000
  0
LINE
  8
150
 10
1.034496
 20
0.169693
 30
0.000000
 11
1.065189
 21
0.139000
 31
0.000000
  0
LINE
  8
150
 10
1.157268
 20
0.231079
 30
0.000000
 11
1.095882
 21
0.231079
 31
0.000000
  0
LINE
  8
150
 10
1.095882
 20
0.231079
 30
0.000000
 11
1.095882
 21
0.139000
 31
0.000000
  0
LINE
  8
150
 10
1.095882
 20
0.139000
 30
0.000000
 11
1.157268
 21
0.139000
 31
0.000000
  0
LINE
  8
150
 10
1.095882
 20
0.185039
 30
0.000000
 11
1.126575
 21
0.185039
 31
0.000000
  0
LINE
  8
150
 10
1.187961
 20
0.231079
 30
0.000000
 11
1.187961
 21
0.169693
 31
0.000000
  0
LINE
  8
150
 10
1.187961
 20
0.169693
 30
0.000000
 11
1.218653
 21
0.139000
 31
0.000000
  0
LINE
  8
150
 10
1.218653
 20
0.139000
 30
0.000000
 11
1.249346
 21
0.169693
 31
0.000000
  0
LINE
  8
150
 10
1.249346
 20
0.169693
 30
0.000000
 11
1.249346
 21
0.231079
 31
0.000000
  0
LINE
  8
150
 10
1.372118
 20
0.139000
 30
0.000000
 11
1.372118
 21
0.231079
 31
0.000000
  0
LINE
  8
150
 10
1.372118
 20
0.231079
 30
0.000000
 11
1.402811
 21
0.200386
 31
0.000000
  0
LINE
  8
150
 10
1.402811
 20
0.200386
 30
0.000000
 11
1.433503
 21
0.231079
 31
0.000000
  0
LINE
  8
150
 10
1.433503
 20
0.231079
 30
0.000000
 11
1.433503
 21
0.139000
 31
0.000000
  0
LINE
  8
150
 10
3.151197
 20
5.764000
 30
0.000000
 11
3.151197
 21
5.671921
 31
0.000000
  0
LINE
  8
150
 10
3.151197
 20
5.671921
 30
0.000000
 11
3.105157
 21
5.671921
 31
0.000000
  0
LINE
  8
150
 10
3.105157
 20
5.671921
 30
0.000000
 11
3.089811
 21
5.687268
 31
0.000000
  0
LINE
  8
150
 10
3.089811
 20
5.687268
 30
0.000000
 11
3.089811
 21
5.717961
 31
0.000000
  0
LINE
  8
150
 10
3.089811
 20
5.717961
 30
0.000000
 11
3.105157
 21
5.733307
 31
0.000000
  0
LINE
  8
150
 10
3.105157
 20
5.733307
 30
0.000000
 11
3.151197
 21
5.733307
 31
0.000000
  0
LINE
  8
150
 10
3.120504
 20
5.733307
 30
0.000000
 11
3.089811
 21
5.764000
 31
0.000000
  0
LINE
  8
150
 10
2.997732
 20
5.671921
 30
0.000000
 11
3.059118
 21
5.671921
 31
0.000000
  0
LINE
  8
150
 10
3.059118
 20
5.671921
 30
0.000000
 11
3.059118
 21
5.764000
 31
0.000000
  0
LINE
  8
150
 10
3.059118
 20
5.764000
 30
0.000000
 11
2.997732
 21
5.764000
 31
0.000000
  0
LINE
  8
150
 10
3.059118
 20
5.717961
 30
0.000000
 11
3.028425
 21
5.717961
 31
0.000000
  0
LINE
  8
150
 10
2.967039
 20
5.671921
 30
0.000000
 11
2.967039
 21
5.733307
 31
0.000000
  0
LINE
  8
150
 10
2.967039
 20
5.733307
 30
0.000000
 11
2.936347
 21
5.764000
 31
0.000000
  0
LINE
  8
150
 10
2.936347
 20
5.764000
 30
0.000000
 11
2.905654
 21
5.733307
 31
0.000000
  0
LINE
  8
150
 10
2.905654
 20
5.733307
 30
0.000000
 11
2.905654
 21
5.671921
 31
0.000000
  0
LINE
  8
150
 10
2.782882
 20
5.764000
 30
0.000000
 11
2.782882
 21
5.671921
 31
0.000000
  0
LINE
  8
150
 10
2.782882
 20
5.671921
 30
0.000000
 11
2.752189
 21
5.702614
 31
0.000000
  0
LINE
  8
150
 10
2.752189
 20
5.702614
 30
0.000000
 11
2.721497
 21
5.671921
 31
0.000000
  0
LINE
  8
150
 10
2.721497
 20
5.671921
 30
0.000000
 11
2.721497
 21
5.764000
 31
0.000000
  0
CIRCLE
  8
160
 10
1.086000
 20
0.942000
 30
0.000000
 40
0.255000
  0
CIRCLE
  8
160
 10
1.076000
 20
5.192000
 30
0.000000
 40
0.200000
  0
CIRCLE
  8
160
 10
3.051000
 20
0.846000
 30
0.000000
 40
0.105000
  0
CIRCLE
  8
160
 10
3.051000
 20
1.830000
 30
0.000000
 40
0.105000
  0
CIRCLE
  8
160
 10
3.046000
 20
3.447000
 30
0.000000
 40
0.105000
  0
CIRCLE
  8
160
 10
3.046000
 20
4.431000
 30
0.000000
 40
0.105000
  0
CIRCLE
  8
160
 10
3.001000
 20
4.914000
 30
0.000000
 40
0.250000
  0
CIRCLE
  8
160
 10
3.046000
 20
2.147000
 30
0.000000
 40
0.105000
  0
CIRCLE
  8
160
 10
3.046000
 20
3.131000
 30
0.000000
 40
0.105000
  0
ENDSEC
  0
EOF
